<svg width="249" height="249" viewBox="0 0 249 249" fill="none" xmlns="http://www.w3.org/2000/svg">
<path d="M249 190.434H0V190.559H249V190.434Z" fill="#EBEBEB"/>
<path d="M224.051 198.45H207.556V198.575H224.051V198.45Z" fill="#EBEBEB"/>
<path d="M164.948 199.802H160.618V199.926H164.948V199.802Z" fill="#EBEBEB"/>
<path d="M207.057 193.826H197.5V193.95H207.057V193.826Z" fill="#EBEBEB"/>
<path d="M47.6347 194.662H26.1246V194.787H47.6347V194.662Z" fill="#EBEBEB"/>
<path d="M55.2227 194.662H52.0689V194.787H55.2227V194.662Z" fill="#EBEBEB"/>
<path d="M112.123 196.765H65.4725V196.89H112.123V196.765Z" fill="#EBEBEB"/>
<path d="M120.685 86.5908H49.9768V190.259H120.685V86.5908Z" fill="#F0F0F0"/>
<path d="M118.186 89.8541H52.4763V109.001H118.186V89.8541Z" fill="#E0E0E0"/>
<path d="M56.2088 92.9537H52.4763V109.001H56.2088V92.9537Z" fill="#EBEBEB"/>
<path d="M74.2583 92.9537H70.5253V109.001H74.2583V92.9537Z" fill="#EBEBEB"/>
<path d="M94.7471 92.5602L91.0682 93.1941L93.793 109.008L97.4719 108.375L94.7471 92.5602Z" fill="#EBEBEB"/>
<path d="M60.8337 95.0682H57.1012V109H60.8337V95.0682Z" fill="#EBEBEB"/>
<path d="M69.4137 95.0682H65.6812V109H69.4137V95.0682Z" fill="#EBEBEB"/>
<path d="M91.0698 95.0682H87.3372V109H91.0698V95.0682Z" fill="#EBEBEB"/>
<path d="M79.1606 94.5922L75.5165 95.4019L78.5383 109.002L82.1825 108.193L79.1606 94.5922Z" fill="#EBEBEB"/>
<path d="M64.0622 92.1569H62.1957V109H64.0622V92.1569Z" fill="#EBEBEB"/>
<path d="M86.2646 92.1569H84.3981V109H86.2646V92.1569Z" fill="#EBEBEB"/>
<path d="M52.4764 131.179H118.186V112.032H52.4764V131.179Z" fill="#E0E0E0"/>
<path d="M114.453 131.179H118.186V115.132H114.453V131.179Z" fill="#EBEBEB"/>
<path d="M96.404 131.179H100.137V115.132H96.404V131.179Z" fill="#EBEBEB"/>
<path d="M73.1822 130.544L76.8606 131.178L79.5854 115.364L75.907 114.73L73.1822 130.544Z" fill="#EBEBEB"/>
<path d="M109.828 131.178H113.561V117.246H109.828V131.178Z" fill="#EBEBEB"/>
<path d="M101.248 131.178H104.981V117.246H101.248V131.178Z" fill="#EBEBEB"/>
<path d="M79.5918 131.178H83.3248V117.246H79.5918V131.178Z" fill="#EBEBEB"/>
<path d="M88.4801 130.368L92.1237 131.177L95.1456 117.577L91.5019 116.767L88.4801 130.368Z" fill="#EBEBEB"/>
<path d="M106.6 131.178H108.467V114.335H106.6V131.178Z" fill="#EBEBEB"/>
<path d="M84.3977 131.178H86.2642V114.335H84.3977V131.178Z" fill="#EBEBEB"/>
<path d="M56.2088 115.132H52.4763V131.178H56.2088V115.132Z" fill="#EBEBEB"/>
<path d="M60.8337 117.247H57.1012V131.179H60.8337V117.247Z" fill="#EBEBEB"/>
<path d="M69.4137 117.247H65.6812V131.179H69.4137V117.247Z" fill="#EBEBEB"/>
<path d="M64.0622 114.335H62.1957V131.179H64.0622V114.335Z" fill="#EBEBEB"/>
<path d="M118.186 134.211H52.4763V153.357H118.186V134.211Z" fill="#E0E0E0"/>
<path d="M93.9243 137.31H90.1913V153.357H93.9243V137.31Z" fill="#EBEBEB"/>
<path d="M114.412 136.918L110.733 137.552L113.458 153.367L117.136 152.733L114.412 136.918Z" fill="#EBEBEB"/>
<path d="M80.5002 139.425H76.7672V153.357H80.5002V139.425Z" fill="#EBEBEB"/>
<path d="M89.0797 139.425H85.3472V153.357H89.0797V139.425Z" fill="#EBEBEB"/>
<path d="M110.736 139.425H107.003V153.357H110.736V139.425Z" fill="#EBEBEB"/>
<path d="M98.8269 138.948L95.1833 139.758L98.2051 153.358L101.849 152.549L98.8269 138.948Z" fill="#EBEBEB"/>
<path d="M83.7282 136.513H81.8617V153.357H83.7282V136.513Z" fill="#EBEBEB"/>
<path d="M105.931 136.513H104.064V153.357H105.931V136.513Z" fill="#EBEBEB"/>
<path d="M71.466 136.917L67.7871 137.55L70.5119 153.365L74.1908 152.731L71.466 136.917Z" fill="#EBEBEB"/>
<path d="M67.7922 139.425H64.0592V153.357H67.7922V139.425Z" fill="#EBEBEB"/>
<path d="M55.8821 138.948L52.2384 139.758L55.2603 153.358L58.9039 152.548L55.8821 138.948Z" fill="#EBEBEB"/>
<path d="M62.986 136.513H61.1195V153.357H62.986V136.513Z" fill="#EBEBEB"/>
<path d="M37.7783 190.531H49.9768L49.9768 86.5907H37.7783L37.7783 190.531Z" fill="#E0E0E0"/>
<path d="M162.068 187.818H151.703L157.152 143.442C157.382 141.564 159.092 140.041 160.971 140.041H164.532H206.193L199.564 187.818H162.068Z" fill="#F5F5F5"/>
<path d="M194.939 187.818H205.303L210.752 143.442C210.982 141.564 209.647 140.041 207.768 140.041H204.206C202.328 140.041 200.618 141.564 200.388 143.442L194.939 187.818Z" fill="#F0F0F0"/>
<path d="M191.12 187.765L192.998 166.302C193.082 165.343 193.823 164.573 194.778 164.451L195.55 164.352C196.83 164.189 197.824 163.155 197.937 161.869L198.279 157.956C198.42 156.352 197.155 154.973 195.545 154.973H212.866C214.476 154.973 215.741 156.352 215.6 157.956L215.257 161.869C215.145 163.155 214.151 164.189 212.871 164.352L212.099 164.451C211.144 164.573 210.403 165.343 210.32 166.302L208.442 187.765C208.305 189.33 206.995 190.531 205.424 190.531H188.103C189.673 190.531 190.983 189.33 191.12 187.765Z" fill="#E6E6E6"/>
<path d="M143.454 160.929C143.16 157.558 140.337 154.972 136.954 154.972H145.335H152.033C155.416 154.972 158.239 157.558 158.533 160.929L160.022 177.943H144.942L143.454 160.929Z" fill="#E6E6E6"/>
<path d="M130.255 154.972H136.953C140.337 154.972 143.159 157.558 143.454 160.929L144.942 177.942H180.857L182.345 160.928C182.64 157.558 185.462 154.972 188.846 154.972H195.544C197.154 154.972 198.418 156.351 198.278 157.955L197.935 161.868C197.823 163.154 196.829 164.188 195.549 164.351L194.776 164.45C193.822 164.572 193.081 165.342 192.997 166.301L191.119 187.764C190.982 189.329 189.672 190.53 188.101 190.53H137.697C136.127 190.53 134.817 189.329 134.68 187.764L132.802 166.301C132.718 165.342 131.977 164.572 131.023 164.45L130.25 164.351C128.97 164.188 127.977 163.154 127.864 161.868L127.521 157.955C127.381 156.352 128.645 154.972 130.255 154.972Z" fill="#F0F0F0"/>
<path d="M50.8752 81.4116C50.8752 81.4116 50.3234 77.7747 52.9763 75.4425C55.6286 73.1104 55.3955 71.7235 54.6376 71.5427C53.8796 71.3619 53.1799 73.6936 52.0141 74.335C52.0141 74.335 51.9773 71.0118 53.1615 69.7877C54.3458 68.5637 54.9673 65.4098 53.8403 65.354C52.7133 65.2988 52.5968 67.2275 52.3637 68.595C52.1306 69.9625 50.8747 71.8863 50.8747 71.8863C50.8747 71.8863 50.6297 68.9128 49.8642 67.6887C49.0988 66.4646 51.1396 63.6658 50.3523 62.4417C49.5655 61.2177 48.1661 63.5493 48.2826 66.1728C48.3991 68.7962 50.1481 71.5945 49.7402 74.3345C49.7402 74.3345 48.9688 72.4107 48.2761 72.2359C47.5834 72.0611 46.8837 70.7887 46.4176 70.3171C45.951 69.8455 45.3683 71.478 46.4176 72.9939C47.4669 74.5098 50.1486 78.565 49.7407 81.8423L50.8752 81.4116Z" fill="#E6E6E6"/>
<path d="M52.4608 79.7572L53.3293 85.2083C53.5977 86.8916 52.297 88.4159 50.5923 88.4159H49.6655C47.9609 88.4159 46.6601 86.8916 46.9285 85.2083L47.797 79.7572H52.4608Z" fill="#E6E6E6"/>
<path d="M104.608 87.3458H107.313V75.717H104.608V87.3458Z" fill="#EBEBEB"/>
<path d="M91.5279 87.3458H94.2331V75.717H91.5279V87.3458Z" fill="#EBEBEB"/>
<path d="M74.698 86.8879L77.3639 87.3472L79.3385 75.8871L76.6725 75.4277L74.698 86.8879Z" fill="#EBEBEB"/>
<path d="M101.256 87.3459H103.961V77.2495H101.256V87.3459Z" fill="#EBEBEB"/>
<path d="M95.0382 87.3459H97.7434V77.2495H95.0382V87.3459Z" fill="#EBEBEB"/>
<path d="M79.3442 87.3459H82.0494V77.2495H79.3442V87.3459Z" fill="#EBEBEB"/>
<path d="M85.7835 86.759L88.4242 87.3457L90.6141 77.4895L87.9734 76.9028L85.7835 86.759Z" fill="#EBEBEB"/>
<path d="M98.917 87.3457H100.27V75.1392H98.917V87.3457Z" fill="#EBEBEB"/>
<path d="M82.8271 87.3457H84.1797V75.1392H82.8271V87.3457Z" fill="#EBEBEB"/>
<path d="M73.1791 78.1158H59.9985V87.2152H73.1791V78.1158Z" fill="#EBEBEB"/>
<path d="M118.39 81.8428H107.348V88.6365H118.39V81.8428Z" fill="#EBEBEB"/>
<path d="M115.808 75.8713H110.287V82.6646H115.808V75.8713Z" fill="#EBEBEB"/>
<path d="M208.071 66.8829H194.939V121.606H208.071V66.8829Z" fill="#E0E0E0"/>
<path d="M157.55 121.75H206.661V66.8824H157.55V121.75Z" fill="#E0E0E0"/>
<path d="M155.966 121.75H206.922V66.8824H155.966V121.75Z" fill="#F0F0F0"/>
<path d="M158.143 119.229H204.827V68.6324H158.143V119.229Z" fill="white"/>
<path d="M158.143 119.229H159.009V68.6324H158.143V119.229Z" fill="#E0E0E0"/>
<path d="M158.863 105.017V106.381H204.949V105.017H158.863Z" fill="#E0E0E0"/>
<path d="M158.142 105.017H205.559V102.726H158.142V105.017Z" fill="#F0F0F0"/>
<path d="M124.5 212.925C177.827 212.925 221.057 210.401 221.057 207.287C221.057 204.172 177.827 201.648 124.5 201.648C71.1732 201.648 27.9433 204.172 27.9433 207.287C27.9433 210.401 71.1732 212.925 124.5 212.925Z" fill="#F5F5F5"/>
<path d="M160.334 188.308H71.2314C69.2195 188.308 67.5881 186.677 67.5881 184.664V79.7497C67.5881 77.7378 69.219 76.1063 71.2314 76.1063H160.333C162.345 76.1063 163.976 77.7373 163.976 79.7497V184.664C163.977 186.676 162.346 188.308 160.334 188.308Z" fill="#407BFF"/>
<path opacity="0.6" d="M160.334 188.308H71.2314C69.2195 188.308 67.5881 186.677 67.5881 184.664V79.7497C67.5881 77.7378 69.219 76.1063 71.2314 76.1063H160.333C162.345 76.1063 163.976 77.7373 163.976 79.7497V184.664C163.977 186.676 162.346 188.308 160.334 188.308Z" fill="white"/>
<path d="M148.361 127.561H83.2043V138.718H148.361V127.561Z" fill="white"/>
<g opacity="0.4">
<path d="M89.0305 134.225V134.517H86.7695V131.32H88.9617V131.612H87.1077V132.75H88.761V133.037H87.1077V134.225H89.0305Z" fill="#263238"/>
<path d="M89.4876 133.138H90.6843V133.421H89.4876V133.138Z" fill="#263238"/>
<path d="M95.3745 133.124V134.517H95.0503V133.156C95.0503 132.649 94.7943 132.389 94.3606 132.389C93.8675 132.389 93.5568 132.709 93.5568 133.257V134.517H93.2326V133.156C93.2326 132.649 92.9766 132.389 92.5384 132.389C92.0498 132.389 91.7346 132.709 91.7346 133.257V134.517H91.4104V132.115H91.7212V132.554C91.89 132.266 92.2007 132.097 92.6026 132.097C93 132.097 93.3103 132.266 93.4567 132.604C93.6305 132.294 93.9731 132.097 94.4069 132.097C94.991 132.097 95.3745 132.435 95.3745 133.124Z" fill="#263238"/>
<path d="M98.0692 133.028V134.517H97.7584V134.143C97.6125 134.389 97.3291 134.54 96.9317 134.54C96.3884 134.54 96.0547 134.257 96.0547 133.841C96.0547 133.471 96.2923 133.161 96.982 133.161H97.7445V133.015C97.7445 132.604 97.5114 132.38 97.0642 132.38C96.7534 132.38 96.4611 132.49 96.2649 132.663L96.119 132.421C96.361 132.216 96.7171 132.097 97.0961 132.097C97.7176 132.097 98.0692 132.407 98.0692 133.028ZM97.745 133.796V133.403H96.9915C96.5254 133.403 96.375 133.585 96.375 133.832C96.375 134.111 96.5986 134.284 96.9825 134.284C97.3476 134.284 97.617 134.111 97.745 133.796Z" fill="#263238"/>
<path d="M98.8779 131.357C98.8779 131.234 98.983 131.129 99.1154 131.129C99.2479 131.129 99.353 131.229 99.353 131.352C99.353 131.485 99.2524 131.59 99.1154 131.59C98.983 131.589 98.8779 131.484 98.8779 131.357ZM98.9506 132.115H99.2748V134.517H98.9506V132.115Z" fill="#263238"/>
<path d="M100.179 131.128H100.503V134.517H100.179V131.128Z" fill="#263238"/>
</g>
<path d="M148.361 142.801H83.2043V153.958H148.361V142.801Z" fill="white"/>
<g opacity="0.4">
<path d="M89.273 147.673C89.273 148.354 88.7799 148.765 87.9667 148.765H87.1082V149.774H86.77V146.577H87.9667C88.7799 146.578 89.273 146.989 89.273 147.673ZM88.9348 147.673C88.9348 147.162 88.5972 146.87 87.9577 146.87H87.1082V148.468H87.9577C88.5972 148.468 88.9348 148.176 88.9348 147.673Z" fill="#263238"/>
<path d="M91.7256 148.286V149.774H91.4149V149.4C91.2685 149.646 90.9856 149.797 90.5882 149.797C90.0449 149.797 89.7112 149.514 89.7112 149.099C89.7112 148.729 89.9488 148.418 90.6385 148.418H91.4009V148.272C91.4009 147.861 91.1679 147.638 90.7207 147.638C90.4104 147.638 90.1181 147.748 89.9214 147.92L89.7755 147.679C90.0175 147.473 90.3735 147.355 90.7525 147.355C91.3735 147.354 91.7256 147.665 91.7256 148.286ZM91.4014 149.053V148.66H90.6479C90.1818 148.66 90.0314 148.843 90.0314 149.089C90.0314 149.368 90.255 149.541 90.639 149.541C91.004 149.541 91.2734 149.368 91.4014 149.053Z" fill="#263238"/>
<path d="M92.2739 149.501L92.4198 149.245C92.6116 149.395 92.9363 149.514 93.2739 149.514C93.7306 149.514 93.9178 149.358 93.9178 149.121C93.9178 148.496 92.3606 148.989 92.3606 148.039C92.3606 147.646 92.6987 147.354 93.3108 147.354C93.621 147.354 93.9592 147.44 94.1603 147.577L94.0189 147.838C93.8088 147.692 93.5578 147.633 93.3113 147.633C92.877 147.633 92.6858 147.801 92.6858 148.03C92.6858 148.678 94.243 148.189 94.243 149.112C94.243 149.528 93.878 149.797 93.252 149.797C92.8541 149.797 92.4701 149.669 92.2739 149.501Z" fill="#263238"/>
<path d="M94.507 149.501L94.6534 149.245C94.8451 149.395 95.1698 149.514 95.5074 149.514C95.9641 149.514 96.1519 149.358 96.1519 149.121C96.1519 148.496 94.5946 148.989 94.5946 148.039C94.5946 147.646 94.9327 147.354 95.5448 147.354C95.8555 147.354 96.1932 147.44 96.3944 147.577L96.253 147.838C96.0428 147.692 95.7918 147.633 95.5453 147.633C95.111 147.633 94.9198 147.801 94.9198 148.03C94.9198 148.678 96.4771 148.189 96.4771 149.112C96.4771 149.528 96.112 149.797 95.486 149.797C95.0871 149.797 94.7032 149.669 94.507 149.501Z" fill="#263238"/>
<path d="M100.554 147.373L99.6448 149.774H99.339L98.5806 147.806L97.8226 149.774H97.5169L96.6125 147.373H96.9227L97.6762 149.414L98.4481 147.373H98.727L99.4939 149.414L100.257 147.373H100.554Z" fill="#263238"/>
<path d="M100.732 148.573C100.732 147.861 101.252 147.354 101.956 147.354C102.66 147.354 103.176 147.861 103.176 148.573C103.176 149.286 102.66 149.797 101.956 149.797C101.253 149.797 100.732 149.286 100.732 148.573ZM102.847 148.573C102.847 148.012 102.468 147.637 101.957 147.637C101.445 147.637 101.062 148.012 101.062 148.573C101.062 149.135 101.446 149.51 101.957 149.51C102.467 149.51 102.847 149.135 102.847 148.573Z" fill="#263238"/>
<path d="M105.048 147.354V147.669C105.021 147.669 104.993 147.665 104.97 147.665C104.468 147.665 104.162 147.985 104.162 148.55V149.774H103.838V147.373H104.149V147.843C104.299 147.523 104.605 147.354 105.048 147.354Z" fill="#263238"/>
<path d="M107.802 146.386V149.774H107.491V149.299C107.295 149.624 106.962 149.797 106.565 149.797C105.879 149.797 105.368 149.299 105.368 148.573C105.368 147.847 105.879 147.354 106.565 147.354C106.948 147.354 107.277 147.519 107.478 147.829V146.386H107.802V146.386ZM107.483 148.573C107.483 148.012 107.099 147.637 106.592 147.637C106.08 147.637 105.697 148.012 105.697 148.573C105.697 149.135 106.08 149.51 106.592 149.51C107.099 149.51 107.483 149.135 107.483 148.573Z" fill="#263238"/>
</g>
<path opacity="0.2" d="M148.361 165.337H83.2043V176.494H148.361V165.337Z" fill="black"/>
<g opacity="0.5">
<path d="M99.0502 160.21H97.9865L97.7574 160.72H97.5473L98.4203 158.81H98.6195L99.4925 160.72H99.2798L99.0502 160.21ZM98.977 160.046L98.5189 159.02L98.0607 160.046H98.977Z" fill="black"/>
<path d="M99.7693 158.696H99.9631V160.72H99.7693V158.696Z" fill="black"/>
<path d="M101.226 159.274V159.463C101.21 159.463 101.194 159.46 101.18 159.46C100.88 159.46 100.697 159.651 100.697 159.989V160.72H100.503V159.285H100.689V159.566C100.779 159.375 100.962 159.274 101.226 159.274Z" fill="black"/>
<path d="M102.812 160.063H101.612C101.634 160.363 101.863 160.562 102.177 160.562C102.351 160.562 102.507 160.499 102.616 160.374L102.725 160.499C102.597 160.652 102.398 160.734 102.171 160.734C101.724 160.734 101.418 160.429 101.418 160.003C101.418 159.578 101.716 159.274 102.119 159.274C102.523 159.274 102.815 159.572 102.815 160.003C102.815 160.019 102.812 160.041 102.812 160.063ZM101.612 159.918H102.629C102.605 159.637 102.4 159.441 102.119 159.441C101.841 159.441 101.636 159.637 101.612 159.918Z" fill="black"/>
<path d="M104.254 159.831V160.72H104.069V160.496C103.981 160.644 103.812 160.734 103.575 160.734C103.25 160.734 103.051 160.565 103.051 160.317C103.051 160.095 103.193 159.91 103.604 159.91H104.06V159.823C104.06 159.578 103.921 159.444 103.654 159.444C103.468 159.444 103.294 159.509 103.176 159.613L103.089 159.468C103.233 159.346 103.447 159.274 103.673 159.274C104.044 159.274 104.254 159.46 104.254 159.831ZM104.06 160.289V160.054H103.61C103.332 160.054 103.241 160.164 103.241 160.311C103.241 160.477 103.375 160.581 103.604 160.581C103.823 160.581 103.983 160.477 104.06 160.289Z" fill="black"/>
<path d="M106.096 158.696V160.72H105.911V160.437C105.793 160.63 105.594 160.734 105.357 160.734C104.948 160.734 104.642 160.437 104.642 160.003C104.642 159.569 104.948 159.274 105.357 159.274C105.586 159.274 105.782 159.372 105.903 159.558V158.696H106.096ZM105.905 160.003C105.905 159.667 105.676 159.444 105.373 159.444C105.068 159.444 104.838 159.667 104.838 160.003C104.838 160.339 105.068 160.562 105.373 160.562C105.676 160.562 105.905 160.339 105.905 160.003Z" fill="black"/>
<path d="M107.843 159.285L107.126 160.892C107.006 161.173 106.853 161.263 106.649 161.263C106.515 161.263 106.387 161.22 106.3 161.132L106.39 160.988C106.46 161.059 106.548 161.097 106.652 161.097C106.78 161.097 106.867 161.037 106.949 160.857L107.012 160.718L106.37 159.286H106.572L107.112 160.505L107.652 159.286H107.843V159.285Z" fill="black"/>
<path d="M109.916 159.831V160.72H109.73V160.496C109.643 160.644 109.473 160.734 109.236 160.734C108.911 160.734 108.712 160.565 108.712 160.317C108.712 160.095 108.854 159.91 109.266 159.91H109.721V159.823C109.721 159.578 109.582 159.444 109.315 159.444C109.129 159.444 108.955 159.509 108.838 159.613L108.751 159.468C108.895 159.346 109.108 159.274 109.334 159.274C109.705 159.274 109.916 159.46 109.916 159.831ZM109.722 160.289V160.054H109.272C108.993 160.054 108.903 160.164 108.903 160.311C108.903 160.477 109.037 160.581 109.266 160.581C109.484 160.581 109.645 160.477 109.722 160.289Z" fill="black"/>
<path d="M113.526 159.888V160.72H113.332V159.907C113.332 159.604 113.179 159.449 112.921 159.449C112.626 159.449 112.44 159.64 112.44 159.967V160.72H112.247V159.907C112.247 159.604 112.094 159.449 111.832 159.449C111.54 159.449 111.352 159.64 111.352 159.967V160.72H111.158V159.285H111.343V159.547C111.444 159.375 111.63 159.274 111.87 159.274C112.107 159.274 112.293 159.375 112.38 159.577C112.483 159.391 112.688 159.274 112.947 159.274C113.297 159.274 113.526 159.476 113.526 159.888Z" fill="black"/>
<path d="M115.309 160.063H114.109C114.131 160.363 114.36 160.562 114.674 160.562C114.848 160.562 115.004 160.499 115.113 160.374L115.222 160.499C115.094 160.652 114.895 160.734 114.669 160.734C114.221 160.734 113.916 160.429 113.916 160.003C113.916 159.578 114.213 159.274 114.617 159.274C115.021 159.274 115.312 159.572 115.312 160.003C115.312 160.019 115.309 160.041 115.309 160.063ZM114.109 159.918H115.127C115.102 159.637 114.898 159.441 114.617 159.441C114.338 159.441 114.134 159.637 114.109 159.918Z" fill="black"/>
<path d="M118.077 159.888V160.72H117.883V159.907C117.883 159.604 117.73 159.449 117.471 159.449C117.176 159.449 116.991 159.64 116.991 159.967V160.72H116.797V159.907C116.797 159.604 116.645 159.449 116.383 159.449C116.091 159.449 115.903 159.64 115.903 159.967V160.72H115.709V159.285H115.894V159.547C115.995 159.375 116.18 159.274 116.42 159.274C116.658 159.274 116.843 159.375 116.93 159.577C117.034 159.391 117.239 159.274 117.498 159.274C117.848 159.274 118.077 159.476 118.077 159.888Z" fill="black"/>
<path d="M120.059 160.003C120.059 160.437 119.754 160.734 119.345 160.734C119.107 160.734 118.908 160.63 118.791 160.437V160.72H118.606V158.696H118.799V159.558C118.919 159.372 119.116 159.274 119.345 159.274C119.754 159.274 120.059 159.569 120.059 160.003ZM119.866 160.003C119.866 159.667 119.634 159.444 119.331 159.444C119.025 159.444 118.796 159.667 118.796 160.003C118.796 160.339 119.025 160.562 119.331 160.562C119.634 160.562 119.866 160.339 119.866 160.003Z" fill="black"/>
<path d="M121.706 160.063H120.506C120.527 160.363 120.757 160.562 121.07 160.562C121.245 160.562 121.4 160.499 121.51 160.374L121.619 160.499C121.491 160.652 121.291 160.734 121.065 160.734C120.618 160.734 120.312 160.429 120.312 160.003C120.312 159.578 120.609 159.274 121.013 159.274C121.417 159.274 121.709 159.572 121.709 160.003C121.708 160.019 121.706 160.041 121.706 160.063ZM120.506 159.918H121.523C121.499 159.637 121.294 159.441 121.013 159.441C120.735 159.441 120.53 159.637 120.506 159.918Z" fill="black"/>
<path d="M122.828 159.274V159.463C122.811 159.463 122.795 159.46 122.781 159.46C122.482 159.46 122.298 159.651 122.298 159.989V160.72H122.105V159.285H122.29V159.566C122.381 159.375 122.563 159.274 122.828 159.274Z" fill="black"/>
<path d="M124.083 159.299C124.083 159.103 123.922 158.966 123.644 158.966C123.412 158.966 123.243 159.042 123.123 159.187L122.979 159.078C123.126 158.898 123.353 158.794 123.658 158.794C124.04 158.794 124.285 158.977 124.285 159.269C124.285 159.735 123.786 159.757 123.786 160.147H123.584C123.584 159.697 124.083 159.656 124.083 159.299ZM123.543 160.592C123.543 160.513 123.606 160.453 123.685 160.453C123.767 160.453 123.83 160.513 123.83 160.592C123.83 160.668 123.767 160.734 123.685 160.734C123.606 160.734 123.543 160.668 123.543 160.592Z" fill="black"/>
<path d="M125.432 158.811H125.875V160.36H126.832V160.72H125.432V158.811Z" fill="black"/>
<path d="M126.931 159.986C126.931 159.544 127.272 159.23 127.739 159.23C128.206 159.23 128.544 159.544 128.544 159.986C128.544 160.429 128.206 160.742 127.739 160.742C127.272 160.742 126.931 160.429 126.931 159.986ZM128.113 159.986C128.113 159.732 127.952 159.58 127.739 159.58C127.526 159.58 127.362 159.733 127.362 159.986C127.362 160.24 127.526 160.393 127.739 160.393C127.952 160.393 128.113 160.24 128.113 159.986Z" fill="black"/>
<path d="M130.343 159.252V160.474C130.343 161.02 130.048 161.271 129.519 161.271C129.24 161.271 128.971 161.203 128.799 161.07L128.968 160.764C129.094 160.865 129.298 160.931 129.486 160.931C129.786 160.931 129.917 160.794 129.917 160.529V160.467C129.805 160.59 129.644 160.649 129.454 160.649C129.047 160.649 128.72 160.368 128.72 159.94C128.72 159.512 129.047 159.23 129.454 159.23C129.658 159.23 129.828 159.299 129.939 159.441V159.252H130.343ZM129.922 159.94C129.922 159.724 129.761 159.58 129.538 159.58C129.314 159.58 129.15 159.724 129.15 159.94C129.15 160.156 129.314 160.3 129.538 160.3C129.761 160.3 129.922 160.156 129.922 159.94Z" fill="black"/>
<path d="M131.46 158.811C131.46 158.677 131.566 158.573 131.725 158.573C131.883 158.573 131.989 158.671 131.989 158.803C131.989 158.944 131.883 159.048 131.725 159.048C131.567 159.048 131.46 158.944 131.46 158.811ZM131.512 159.252H131.937V160.72H131.512V159.252Z" fill="black"/>
<path d="M133.834 159.88V160.72H133.409V159.946C133.409 159.708 133.3 159.599 133.111 159.599C132.907 159.599 132.76 159.725 132.76 159.995V160.72H132.335V159.253H132.741V159.425C132.855 159.3 133.027 159.231 133.226 159.231C133.572 159.23 133.834 159.433 133.834 159.88Z" fill="black"/>
</g>
<path d="M148.361 164.655H83.2043V175.811H148.361V164.655Z" fill="#407BFF"/>
<path d="M107.37 171.966L106.546 170.794C106.469 170.799 106.388 170.804 106.306 170.804H105.362V171.966H104.817V168.147H106.306C107.299 168.147 107.899 168.649 107.899 169.478C107.899 170.068 107.594 170.493 107.059 170.685L107.964 171.966H107.37ZM107.353 169.478C107.353 168.932 106.988 168.621 106.29 168.621H105.362V170.34H106.29C106.988 170.34 107.353 170.024 107.353 169.478Z" fill="white"/>
<path d="M111.312 170.695H108.966C109.032 171.202 109.44 171.541 110.014 171.541C110.352 171.541 110.636 171.426 110.848 171.191L111.138 171.53C110.876 171.835 110.477 171.999 109.997 171.999C109.064 171.999 108.442 171.383 108.442 170.52C108.442 169.664 109.059 169.047 109.894 169.047C110.728 169.047 111.323 169.647 111.323 170.537C111.322 170.58 111.317 170.646 111.312 170.695ZM108.965 170.318H110.82C110.766 169.832 110.4 169.489 109.893 169.489C109.391 169.489 109.02 169.827 108.965 170.318Z" fill="white"/>
<path d="M114.817 169.074V171.573C114.817 172.594 114.298 173.057 113.316 173.057C112.787 173.057 112.253 172.91 111.936 172.626L112.187 172.222C112.455 172.451 112.875 172.599 113.3 172.599C113.983 172.599 114.293 172.283 114.293 171.628V171.399C114.043 171.699 113.666 171.846 113.251 171.846C112.417 171.846 111.784 171.278 111.784 170.444C111.784 169.609 112.417 169.047 113.251 169.047C113.682 169.047 114.075 169.205 114.32 169.522V169.074H114.817ZM114.303 170.444C114.303 169.882 113.889 169.505 113.31 169.505C112.727 169.505 112.312 169.882 112.312 170.444C112.312 171 112.727 171.388 113.31 171.388C113.889 171.388 114.303 171 114.303 170.444Z" fill="white"/>
<path d="M115.725 168.18C115.725 167.989 115.878 167.836 116.079 167.836C116.281 167.836 116.434 167.983 116.434 168.169C116.434 168.366 116.287 168.518 116.079 168.518C115.878 168.518 115.725 168.371 115.725 168.18ZM115.817 169.074H116.341V171.966H115.817V169.074Z" fill="white"/>
<path d="M116.976 171.661L117.194 171.246C117.439 171.421 117.832 171.546 118.209 171.546C118.694 171.546 118.897 171.399 118.897 171.153C118.897 170.504 117.069 171.066 117.069 169.915C117.069 169.397 117.532 169.048 118.275 169.048C118.651 169.048 119.076 169.146 119.327 169.309L119.104 169.724C118.842 169.555 118.552 169.495 118.269 169.495C117.811 169.495 117.587 169.664 117.587 169.893C117.587 170.575 119.42 170.019 119.42 171.143C119.42 171.667 118.94 171.999 118.171 171.999C117.69 171.999 117.216 171.851 116.976 171.661Z" fill="white"/>
<path d="M121.702 171.797C121.543 171.933 121.303 171.999 121.069 171.999C120.485 171.999 120.152 171.677 120.152 171.093V169.506H119.661V169.075H120.152V168.442H120.676V169.075H121.506V169.506H120.676V171.072C120.676 171.383 120.84 171.558 121.129 171.558C121.282 171.558 121.429 171.509 121.538 171.422L121.702 171.797Z" fill="white"/>
<path d="M124.841 170.695H122.495C122.56 171.202 122.969 171.541 123.542 171.541C123.88 171.541 124.164 171.426 124.377 171.191L124.666 171.53C124.404 171.835 124.006 171.999 123.526 171.999C122.593 171.999 121.971 171.383 121.971 170.52C121.971 169.664 122.588 169.047 123.423 169.047C124.257 169.047 124.852 169.647 124.852 170.537C124.852 170.58 124.846 170.646 124.841 170.695ZM122.495 170.318H124.35C124.295 169.832 123.929 169.489 123.422 169.489C122.92 169.489 122.549 169.827 122.495 170.318Z" fill="white"/>
<path d="M127.134 169.047V169.555C127.091 169.549 127.053 169.549 127.014 169.549C126.453 169.549 126.103 169.893 126.103 170.526V171.966H125.579V169.074H126.081V169.56C126.267 169.222 126.627 169.047 127.134 169.047Z" fill="white"/>
<g opacity="0.6">
<path d="M104.377 88.4488L104.598 87.9827C104.909 88.2635 105.441 88.4667 105.978 88.4667C106.701 88.4667 107.012 88.1859 107.012 87.8218C107.012 86.8004 104.479 87.4458 104.479 85.8926C104.479 85.2477 104.981 84.6984 106.08 84.6984C106.57 84.6984 107.077 84.8298 107.424 85.0689L107.227 85.547C106.863 85.3139 106.45 85.2063 106.08 85.2063C105.369 85.2063 105.065 85.5051 105.065 85.8692C105.065 86.8906 107.597 86.2516 107.597 87.7865C107.597 88.4254 107.084 88.9752 105.979 88.9752C105.339 88.9747 104.712 88.7596 104.377 88.4488Z" fill="#263238"/>
<path d="M108.286 84.782C108.286 84.5728 108.452 84.4055 108.674 84.4055C108.895 84.4055 109.062 84.5669 109.062 84.7701C109.062 84.9852 108.901 85.1525 108.674 85.1525C108.452 85.152 108.286 84.9907 108.286 84.782ZM108.387 85.7611H108.96V88.9269H108.387V85.7611Z" fill="#263238"/>
<path d="M113.082 85.7611V88.4966C113.082 89.6136 112.515 90.1216 111.44 90.1216C110.86 90.1216 110.275 89.9602 109.929 89.6495L110.203 89.2072C110.496 89.4582 110.956 89.6196 111.422 89.6196C112.169 89.6196 112.509 89.2735 112.509 88.5564V88.3054C112.235 88.634 111.822 88.7954 111.368 88.7954C110.454 88.7954 109.762 88.1739 109.762 87.2601C109.762 86.3462 110.454 85.7312 111.368 85.7312C111.84 85.7312 112.27 85.9045 112.539 86.2506V85.7611H113.082ZM112.521 87.2606C112.521 86.6455 112.067 86.2332 111.434 86.2332C110.795 86.2332 110.341 86.6455 110.341 87.2606C110.341 87.8696 110.795 88.2939 111.434 88.2939C112.067 88.2934 112.521 87.8696 112.521 87.2606Z" fill="#263238"/>
<path d="M117.182 87.1052V88.9269H116.609V87.1709C116.609 86.5494 116.298 86.2451 115.755 86.2451C115.145 86.2451 114.751 86.6097 114.751 87.2964V88.9269H114.178V85.7611H114.728V86.2392C114.961 85.917 115.367 85.7312 115.868 85.7312C116.639 85.7312 117.182 86.1734 117.182 87.1052Z" fill="#263238"/>
<path d="M122.805 85.7611V88.9268H122.262V88.4488C122.029 88.7774 121.635 88.9622 121.187 88.9622C120.369 88.9622 119.825 88.5145 119.825 87.5822V85.7606H120.398V87.5165C120.398 88.138 120.709 88.4483 121.252 88.4483C121.849 88.4483 122.232 88.0778 122.232 87.397V85.7606L122.805 85.7611Z" fill="#263238"/>
<path d="M127.18 87.3442C127.18 88.3178 126.505 88.9627 125.579 88.9627C125.131 88.9627 124.737 88.7894 124.474 88.4493V90.0857H123.901V85.7616H124.451V86.2631C124.708 85.9105 125.114 85.7317 125.58 85.7317C126.504 85.7312 127.18 86.3766 127.18 87.3442ZM126.6 87.3442C126.6 86.6754 126.14 86.2332 125.531 86.2332C124.928 86.2332 124.468 86.6754 124.468 87.3442C124.468 88.019 124.928 88.4612 125.531 88.4612C126.14 88.4607 126.6 88.019 126.6 87.3442Z" fill="#263238"/>
</g>
<path d="M148.361 112.321H83.2043V123.478H148.361V112.321Z" fill="white"/>
<g opacity="0.4">
<path d="M86.77 116.08H87.1082V118.985H88.8985V119.277H86.7705V116.08H86.77Z" fill="#263238"/>
<path d="M91.2137 117.788V119.277H90.9029V118.902C90.757 119.149 90.4737 119.3 90.0763 119.3C89.5329 119.3 89.1993 119.017 89.1993 118.601C89.1993 118.232 89.4368 117.921 90.1266 117.921H90.889V117.775C90.889 117.364 90.6559 117.14 90.2087 117.14C89.898 117.14 89.6056 117.25 89.4094 117.423L89.263 117.181C89.505 116.976 89.8611 116.857 90.2401 116.857C90.8621 116.856 91.2137 117.167 91.2137 117.788ZM90.8895 118.556V118.163H90.136C89.6699 118.163 89.5195 118.346 89.5195 118.592C89.5195 118.871 89.7431 119.044 90.127 119.044C90.4921 119.044 90.7615 118.87 90.8895 118.556Z" fill="#263238"/>
<path d="M91.762 119.003L91.9084 118.747C92.1001 118.898 92.4248 119.016 92.7624 119.016C93.2191 119.016 93.4069 118.861 93.4069 118.624C93.4069 117.998 91.8496 118.491 91.8496 117.541C91.8496 117.148 92.1878 116.856 92.7998 116.856C93.11 116.856 93.4482 116.943 93.6489 117.08L93.5075 117.34C93.2973 117.194 93.0463 117.135 92.7998 117.135C92.3655 117.135 92.1743 117.303 92.1743 117.532C92.1743 118.18 93.7316 117.692 93.7316 118.615C93.7316 119.03 93.3665 119.299 92.7405 119.299C92.3421 119.3 91.9582 119.172 91.762 119.003Z" fill="#263238"/>
<path d="M95.5941 119.131C95.4661 119.245 95.2744 119.3 95.0871 119.3C94.635 119.3 94.384 119.044 94.384 118.601V117.149H93.9547V116.875H94.384V116.35H94.7082V116.875H95.4387V117.149H94.7082V118.583C94.7082 118.866 94.8541 119.021 95.1235 119.021C95.256 119.021 95.3884 118.981 95.4796 118.898L95.5941 119.131Z" fill="#263238"/>
<path d="M100.12 116.08V119.277H99.841L97.7863 116.683V119.277H97.4482V116.08H97.727L99.7868 118.674V116.08H100.12Z" fill="#263238"/>
<path d="M102.906 117.788V119.277H102.595V118.902C102.449 119.149 102.166 119.3 101.769 119.3C101.225 119.3 100.892 119.017 100.892 118.601C100.892 118.232 101.129 117.921 101.819 117.921H102.582V117.775C102.582 117.364 102.348 117.14 101.901 117.14C101.591 117.14 101.299 117.25 101.102 117.423L100.956 117.181C101.198 116.976 101.554 116.857 101.933 116.857C102.554 116.856 102.906 117.167 102.906 117.788ZM102.582 118.556V118.163H101.828C101.362 118.163 101.212 118.346 101.212 118.592C101.212 118.871 101.435 119.044 101.819 119.044C102.184 119.044 102.454 118.87 102.582 118.556Z" fill="#263238"/>
<path d="M107.751 117.884V119.277H107.427V117.916C107.427 117.409 107.171 117.149 106.737 117.149C106.244 117.149 105.934 117.469 105.934 118.016V119.277H105.609V117.916C105.609 117.409 105.353 117.149 104.915 117.149C104.427 117.149 104.111 117.469 104.111 118.016V119.277H103.787V116.875H104.097V117.313C104.266 117.026 104.577 116.857 104.979 116.857C105.376 116.857 105.687 117.026 105.833 117.364C106.007 117.053 106.349 116.857 106.783 116.857C107.368 116.856 107.751 117.194 107.751 117.884Z" fill="#263238"/>
<path d="M110.734 118.176H108.724C108.761 118.679 109.145 119.012 109.67 119.012C109.962 119.012 110.222 118.907 110.405 118.697L110.588 118.907C110.373 119.163 110.04 119.3 109.661 119.3C108.912 119.3 108.401 118.788 108.401 118.076C108.401 117.364 108.898 116.857 109.574 116.857C110.25 116.857 110.739 117.355 110.739 118.076C110.739 118.103 110.734 118.14 110.734 118.176ZM108.724 117.934H110.428C110.387 117.464 110.045 117.135 109.574 117.135C109.108 117.135 108.766 117.464 108.724 117.934Z" fill="#263238"/>
</g>
<path d="M148.361 97.0806H83.2043V108.237H148.361V97.0806Z" fill="white"/>
<g opacity="0.4">
<path d="M87.1077 101.132V102.388H88.761V102.68H87.1077V104.037H86.7695V100.84H88.9617V101.132L87.1077 101.132Z" fill="#263238"/>
<path d="M89.4742 100.876C89.4742 100.753 89.5793 100.648 89.7117 100.648C89.8442 100.648 89.9493 100.749 89.9493 100.872C89.9493 101.005 89.8487 101.11 89.7117 101.11C89.5788 101.109 89.4742 101.004 89.4742 100.876ZM89.5469 101.634H89.8711V104.037H89.5469V101.634Z" fill="#263238"/>
<path d="M91.9856 101.616V101.931C91.9582 101.931 91.9308 101.927 91.9079 101.927C91.4054 101.927 91.0997 102.246 91.0997 102.813V104.037H90.7755V101.634H91.0862V102.105C91.2366 101.785 91.5429 101.616 91.9856 101.616Z" fill="#263238"/>
<path d="M92.255 103.762L92.4009 103.506C92.5926 103.657 92.9173 103.776 93.255 103.776C93.7117 103.776 93.8989 103.621 93.8989 103.383C93.8989 102.758 92.3417 103.251 92.3417 102.301C92.3417 101.909 92.6798 101.616 93.2918 101.616C93.6026 101.616 93.9402 101.702 94.1414 101.839L94 102.1C93.7898 101.954 93.5388 101.894 93.2923 101.894C92.8581 101.894 92.6668 102.063 92.6668 102.292C92.6668 102.94 94.2241 102.451 94.2241 103.374C94.2241 103.79 93.8591 104.059 93.2331 104.059C92.8357 104.06 92.4517 103.932 92.255 103.762Z" fill="#263238"/>
<path d="M96.0871 103.89C95.9591 104.004 95.7674 104.059 95.5801 104.059C95.128 104.059 94.877 103.803 94.877 103.36V101.908H94.4477V101.634H94.877V101.109H95.2012V101.634H95.9317V101.908H95.2012V103.342C95.2012 103.625 95.3476 103.78 95.617 103.78C95.7495 103.78 95.8819 103.739 95.9731 103.657L96.0871 103.89Z" fill="#263238"/>
<path d="M100.613 100.839V104.036H100.334L98.2793 101.442V104.036H97.9412V100.839H98.22L100.28 103.434V100.839H100.613Z" fill="#263238"/>
<path d="M103.399 102.548V104.037H103.088V103.662C102.942 103.909 102.659 104.06 102.262 104.06C101.718 104.06 101.385 103.776 101.385 103.361C101.385 102.991 101.622 102.681 102.312 102.681H103.075V102.534C103.075 102.123 102.841 101.899 102.394 101.899C102.084 101.899 101.791 102.009 101.595 102.183L101.449 101.941C101.691 101.735 102.047 101.616 102.426 101.616C103.047 101.616 103.399 101.927 103.399 102.548ZM103.075 103.315V102.922H102.321C101.855 102.922 101.705 103.105 101.705 103.351C101.705 103.63 101.928 103.804 102.312 103.804C102.678 103.804 102.947 103.63 103.075 103.315Z" fill="#263238"/>
<path d="M108.244 102.644V104.037H107.92V102.676C107.92 102.169 107.664 101.909 107.23 101.909C106.737 101.909 106.427 102.228 106.427 102.776V104.037H106.102V102.676C106.102 102.169 105.846 101.909 105.408 101.909C104.92 101.909 104.604 102.228 104.604 102.776V104.037H104.28V101.634H104.591V102.073C104.76 101.785 105.071 101.616 105.472 101.616C105.87 101.616 106.18 101.785 106.326 102.123C106.5 101.812 106.843 101.616 107.277 101.616C107.861 101.616 108.244 101.954 108.244 102.644Z" fill="#263238"/>
<path d="M111.227 102.936H109.218C109.255 103.439 109.638 103.772 110.163 103.772C110.455 103.772 110.716 103.667 110.899 103.456L111.081 103.667C110.867 103.922 110.533 104.06 110.155 104.06C109.406 104.06 108.894 103.548 108.894 102.835C108.894 102.123 109.392 101.616 110.068 101.616C110.744 101.616 111.232 102.114 111.232 102.835C111.232 102.863 111.227 102.899 111.227 102.936ZM109.218 102.694H110.922C110.88 102.223 110.538 101.894 110.067 101.894C109.601 101.895 109.259 102.223 109.218 102.694Z" fill="#263238"/>
</g>
<path d="M67.9481 172.084C67.9481 172.084 64.6513 169.335 61.8247 172.084C58.998 174.832 58.4522 191.86 58.4522 191.86" stroke="#407BFF" stroke-width="0.9446" stroke-miterlimit="10"/>
<path d="M58.2181 195.148C58.2181 195.148 60.1613 175.165 52.8447 166.767" stroke="#407BFF" stroke-width="0.9446" stroke-miterlimit="10"/>
<path d="M58.9144 193.042C58.9144 193.042 57.4179 170.293 62.9053 165.246" stroke="#407BFF" stroke-width="0.9446" stroke-miterlimit="10"/>
<path d="M58.2182 193.042C58.2182 193.042 58.0907 178.01 54.0125 175.672C49.9344 173.336 47.8558 180.957 47.8558 180.957" stroke="#407BFF" stroke-width="0.9446" stroke-miterlimit="10"/>
<path d="M59.8292 193.042C59.8292 193.042 59.1638 181.502 62.3237 177.377C65.483 173.253 68.8091 179.144 68.8091 179.144" stroke="#407BFF" stroke-width="0.9446" stroke-miterlimit="10"/>
<path d="M58.7281 194.588C58.7281 194.588 60.7714 167.599 57.39 163.026" stroke="#407BFF" stroke-width="0.9446" stroke-miterlimit="10"/>
<path d="M50.5206 177.863C50.5206 177.863 52.5539 178.612 51.9493 180.382C51.3448 182.152 44.9151 185.064 44.9151 185.064C44.9151 185.064 42.2224 182.596 44.6955 178.582C47.1685 174.568 50.4658 176.596 50.5206 177.863Z" fill="#407BFF"/>
<path opacity="0.2" d="M50.5206 177.863C50.5206 177.863 52.5539 178.612 51.9493 180.382C51.3448 182.152 44.9151 185.064 44.9151 185.064C44.9151 185.064 42.2224 182.596 44.6955 178.582C47.1685 174.568 50.4658 176.596 50.5206 177.863Z" fill="black"/>
<path d="M59.3601 174.494C59.3601 174.494 57.1948 174.403 57.0718 176.269C56.9488 178.135 61.7624 183.298 61.7624 183.298C61.7624 183.298 65.1976 182.056 64.4596 177.399C63.7221 172.743 59.8984 173.346 59.3601 174.494Z" fill="#407BFF"/>
<path opacity="0.2" d="M59.3601 174.494C59.3601 174.494 57.1948 174.403 57.0718 176.269C56.9488 178.135 61.7624 183.298 61.7624 183.298C61.7624 183.298 65.1976 182.056 64.4596 177.399C63.7221 172.743 59.8984 173.346 59.3601 174.494Z" fill="black"/>
<path d="M61.1932 165.561C61.1932 165.561 59.7495 165.406 59.8661 164.527C59.9821 163.647 65.478 161.384 68.72 165.044C68.72 165.044 66.6438 168.61 63.6429 168.657C60.642 168.703 61.1932 165.561 61.1932 165.561Z" fill="#407BFF"/>
<path opacity="0.2" d="M61.1932 165.561C61.1932 165.561 59.7495 165.406 59.8661 164.527C59.9821 163.647 65.478 161.384 68.72 165.044C68.72 165.044 66.6438 168.61 63.6429 168.657C60.642 168.703 61.1932 165.561 61.1932 165.561Z" fill="black"/>
<path d="M58.5035 163.426C58.5035 163.426 59.8107 164.058 60.1768 163.25C60.5433 162.442 57.0762 157.615 52.3891 159.006C52.3891 159.006 52.2651 163.131 54.7874 164.757C57.3093 166.384 58.5035 163.426 58.5035 163.426Z" fill="#407BFF"/>
<path opacity="0.2" d="M58.5035 163.426C58.5035 163.426 59.8107 164.058 60.1768 163.25C60.5433 162.442 57.0762 157.615 52.3891 159.006C52.3891 159.006 52.2651 163.131 54.7874 164.757C57.3093 166.384 58.5035 163.426 58.5035 163.426Z" fill="black"/>
<path d="M65.338 177.151C65.338 177.151 64.3415 176.347 65.4167 175.954C66.4919 175.561 71.7677 175.673 71.8225 180.899C71.8225 180.899 65.6782 181.92 64.9172 179.929C64.1573 177.939 65.338 177.151 65.338 177.151Z" fill="#407BFF"/>
<path opacity="0.2" d="M65.338 177.151C65.338 177.151 64.3415 176.347 65.4167 175.954C66.4919 175.561 71.7677 175.673 71.8225 180.899C71.8225 180.899 65.6782 181.92 64.9172 179.929C64.1573 177.939 65.338 177.151 65.338 177.151Z" fill="black"/>
<path d="M52.8084 165.43C52.8084 165.43 53.8049 164.626 52.7297 164.233C51.6545 163.84 46.3787 163.952 46.3239 169.178C46.3239 169.178 52.4682 170.199 53.2292 168.208C53.9891 166.218 52.8084 165.43 52.8084 165.43Z" fill="#407BFF"/>
<path opacity="0.2" d="M52.8084 165.43C52.8084 165.43 53.8049 164.626 52.7297 164.233C51.6545 163.84 46.3787 163.952 46.3239 169.178C46.3239 169.178 52.4682 170.199 53.2292 168.208C53.9891 166.218 52.8084 165.43 52.8084 165.43Z" fill="black"/>
<path d="M56.0568 169.64C56.0568 169.64 56.1445 168.662 55.3551 169.045C54.5658 169.429 51.8154 172.396 54.6664 175.211C54.6664 175.211 58.504 172.369 57.8123 170.889C57.12 169.409 56.0568 169.64 56.0568 169.64Z" fill="#407BFF"/>
<path opacity="0.2" d="M56.0568 169.64C56.0568 169.64 56.1445 168.662 55.3551 169.045C54.5658 169.429 51.8154 172.396 54.6664 175.211C54.6664 175.211 58.504 172.369 57.8123 170.889C57.12 169.409 56.0568 169.64 56.0568 169.64Z" fill="black"/>
<path d="M66.229 171.034C66.229 171.034 65.6334 170.253 66.5059 170.157C67.3779 170.06 71.2872 171.103 70.3769 175.005C70.3769 175.005 65.6145 174.647 65.4108 173.026C65.2061 171.405 66.229 171.034 66.229 171.034Z" fill="#407BFF"/>
<path opacity="0.2" d="M66.229 171.034C66.229 171.034 65.6334 170.253 66.5059 170.157C67.3779 170.06 71.2872 171.103 70.3769 175.005C70.3769 175.005 65.6145 174.647 65.4108 173.026C65.2061 171.405 66.229 171.034 66.229 171.034Z" fill="black"/>
<path d="M50.8756 207.528H66.2713L68.3176 192.557H48.8293L50.8756 207.528Z" fill="#263238"/>
<path opacity="0.2" d="M50.8756 207.528H66.2713L68.3176 192.557H48.8293L50.8756 207.528Z" fill="white"/>
<path d="M70.2474 191.344V192.766C70.2474 193.718 69.476 194.489 68.5238 194.489H48.4305C47.4788 194.489 46.7069 193.718 46.7069 192.766V191.344H70.2474Z" fill="#263238"/>
<path d="M198.513 49.4544H184.207C181.773 49.4544 179.801 51.427 179.801 53.8597V66.3107C179.801 68.7434 181.774 70.716 184.207 70.716H188.384L187.374 74.6472L191.347 70.716H198.513C200.946 70.716 202.919 68.7439 202.919 66.3107V53.8597C202.919 51.427 200.946 49.4544 198.513 49.4544Z" fill="#407BFF"/>
<path opacity="0.7" d="M198.513 49.4544H184.207C181.773 49.4544 179.801 51.427 179.801 53.8597V66.3107C179.801 68.7434 181.774 70.716 184.207 70.716H188.384L187.374 74.6472L191.347 70.716H198.513C200.946 70.716 202.919 68.7439 202.919 66.3107V53.8597C202.919 51.427 200.946 49.4544 198.513 49.4544Z" fill="white"/>
<path d="M196.379 65.053C199.152 62.2802 199.152 57.7844 196.379 55.0115C193.606 52.2386 189.11 52.2387 186.337 55.0115C183.564 57.7844 183.564 62.2802 186.337 65.053C189.11 67.8259 193.606 67.8259 196.379 65.053Z" fill="#407BFF"/>
<path d="M190.614 63.2032C190.423 63.2032 190.241 63.119 190.117 62.9731L187.331 59.6908C187.098 59.4159 187.132 59.0045 187.406 58.771C187.681 58.5384 188.093 58.5713 188.326 58.8462L190.614 61.5423L194.393 57.0902C194.627 56.8148 195.039 56.782 195.313 57.015C195.588 57.2481 195.622 57.6599 195.388 57.9348L191.112 62.9736C190.988 63.119 190.806 63.2032 190.614 63.2032Z" fill="white"/>
<path d="M196.035 126.271C196.035 126.271 187.362 125.18 174.227 128.781C174.227 128.781 172.112 105.306 172.364 102.082C172.616 98.857 192.644 99.8012 192.644 99.8012C192.644 99.8012 193.161 109.196 194.45 114.865C195.739 120.533 196.695 125.181 196.035 126.271Z" fill="#407BFF"/>
<path opacity="0.2" d="M196.035 126.271C196.035 126.271 187.362 125.18 174.227 128.781C174.227 128.781 172.112 105.306 172.364 102.082C172.616 98.857 192.644 99.8012 192.644 99.8012C192.644 99.8012 193.161 109.196 194.45 114.865C195.739 120.533 196.695 125.181 196.035 126.271Z" fill="black"/>
<path d="M167.89 203.991L171.426 204.992L172.267 199.489L172.72 196.546L169.185 195.545L168.582 199.489L167.89 203.991Z" fill="#E4897B"/>
<path d="M188.218 204.28L191.863 204.763L191.898 199.489L191.923 196.212L188.273 195.734L188.248 199.489L188.218 204.28Z" fill="#E4897B"/>
<path opacity="0.2" d="M188.273 195.734L188.248 199.489H191.898L191.923 196.212L188.273 195.734Z" fill="black"/>
<path opacity="0.2" d="M168.582 199.489H172.267L172.72 196.546L169.185 195.545L168.582 199.489Z" fill="black"/>
<path d="M152.193 103.987L148.683 102.95L149.324 106.958C149.324 106.958 152.511 107.695 152.821 106.037L152.193 103.987Z" fill="#E4897B"/>
<path d="M145.179 103.881L146.901 107.14L149.324 106.958L148.683 102.95L145.179 103.881Z" fill="#E4897B"/>
<path d="M157.039 105.012L151.275 103.721L150.751 106.521L155.985 107.798L157.039 105.012Z" fill="#E4897B"/>
<path d="M174.486 102.485C174.486 102.485 174.361 102.635 174.147 102.889C173.42 103.74 171.642 105.797 169.819 107.57C168.325 109.014 166.812 110.274 165.826 110.528C163.002 111.255 152.738 108.232 152.738 108.232L153.799 104.069C153.799 104.069 163.36 105.339 164.102 105.339C164.665 105.339 170.482 96.9128 171.891 96.2206L174.486 102.485Z" fill="#407BFF"/>
<path opacity="0.2" d="M174.147 102.889C173.42 103.74 171.642 105.797 169.819 107.57C170.188 104.652 171.259 101.972 172.668 100.279C172.817 100.1 172.967 99.9506 173.116 99.841L174.147 102.889Z" fill="black"/>
<path d="M167.933 203.439L171.948 203.331C172.099 203.327 172.233 203.428 172.271 203.573L173.114 206.806C173.202 207.142 172.956 207.468 172.609 207.472C171.16 207.486 169.064 207.458 167.243 207.507C165.114 207.564 163.761 207.46 161.264 207.527C159.755 207.568 159.281 206.06 159.908 205.906C162.762 205.202 164.628 205.341 167.059 203.748C167.322 203.575 167.616 203.448 167.933 203.439Z" fill="#263238"/>
<path d="M167.589 203.955C167.586 203.956 167.582 203.957 167.578 203.958C166.99 204.092 165.942 204.265 165.525 203.92C165.4 203.816 165.34 203.676 165.347 203.503C165.351 203.4 165.398 203.318 165.482 203.268C165.922 203.004 167.425 203.715 167.595 203.796C167.628 203.812 167.648 203.847 167.644 203.884C167.641 203.916 167.619 203.943 167.589 203.955ZM165.604 203.403C165.592 203.407 165.582 203.412 165.573 203.417C165.538 203.437 165.523 203.465 165.521 203.511C165.516 203.629 165.554 203.719 165.636 203.787C165.869 203.98 166.475 203.999 167.283 203.843C166.69 203.582 165.878 203.299 165.604 203.403Z" fill="#407BFF"/>
<path d="M167.589 203.955C167.569 203.963 167.546 203.963 167.525 203.954C167.075 203.768 166.167 203 166.219 202.584C166.231 202.487 166.296 202.365 166.535 202.333C166.712 202.31 166.876 202.356 167.023 202.469C167.505 202.838 167.639 203.821 167.645 203.863C167.649 203.894 167.636 203.924 167.611 203.943C167.604 203.948 167.597 203.952 167.589 203.955ZM166.47 202.526C166.399 202.553 166.394 202.592 166.392 202.607C166.36 202.857 166.98 203.462 167.443 203.721C167.385 203.434 167.233 202.848 166.917 202.606C166.807 202.521 166.69 202.488 166.558 202.505C166.521 202.51 166.492 202.517 166.47 202.526Z" fill="#407BFF"/>
<path d="M188.364 203.439L192.379 203.331C192.53 203.327 192.664 203.428 192.702 203.573L193.545 206.806C193.633 207.142 193.387 207.468 193.04 207.472C191.591 207.486 189.494 207.458 187.674 207.507C185.545 207.564 184.192 207.46 181.695 207.527C180.186 207.568 179.712 206.06 180.339 205.906C183.193 205.202 185.059 205.341 187.49 203.748C187.752 203.575 188.047 203.448 188.364 203.439Z" fill="#263238"/>
<path d="M188.02 203.955C188.017 203.956 188.013 203.957 188.009 203.958C187.421 204.092 186.373 204.265 185.956 203.92C185.831 203.816 185.771 203.676 185.778 203.503C185.782 203.4 185.829 203.318 185.913 203.268C186.353 203.004 187.856 203.715 188.026 203.796C188.059 203.812 188.079 203.847 188.075 203.884C188.072 203.916 188.05 203.943 188.02 203.955ZM186.035 203.403C186.023 203.407 186.013 203.412 186.003 203.417C185.969 203.437 185.954 203.465 185.952 203.511C185.948 203.629 185.985 203.719 186.067 203.787C186.301 203.98 186.907 203.999 187.714 203.843C187.121 203.582 186.309 203.299 186.035 203.403Z" fill="#407BFF"/>
<path d="M188.02 203.955C188 203.963 187.977 203.963 187.956 203.954C187.505 203.768 186.598 203 186.65 202.584C186.662 202.487 186.727 202.365 186.966 202.333C187.143 202.31 187.307 202.356 187.454 202.469C187.936 202.838 188.07 203.821 188.076 203.863C188.08 203.894 188.067 203.924 188.042 203.943C188.035 203.948 188.028 203.952 188.02 203.955ZM186.901 202.526C186.83 202.553 186.825 202.592 186.823 202.607C186.791 202.857 187.411 203.462 187.874 203.721C187.816 203.434 187.664 202.848 187.348 202.606C187.238 202.521 187.12 202.488 186.99 202.505C186.952 202.51 186.923 202.517 186.901 202.526Z" fill="#407BFF"/>
<path d="M195.738 124.13C197.67 132.504 194.355 198.364 194.355 198.364H187.95L185.212 143.477L175.125 198.364L168.279 197.866C172.754 155.348 176.71 129.964 176.71 129.964L176.701 126.756L195.738 124.13Z" fill="#263238"/>
<path opacity="0.4" d="M168.278 197.866L175.126 198.364L183.064 155.157L185.21 143.479L187.949 198.364H194.353C194.353 198.364 197.67 132.503 195.738 124.132L176.699 126.756L176.709 129.964C176.709 129.964 172.755 155.347 168.278 197.866Z" fill="white"/>
<path d="M192.288 93.121C192.057 97.2225 192.232 101.314 192.593 105.123C192.858 107.91 193.229 110.545 193.623 112.922C194.544 118.496 195.589 122.672 195.738 124.13C192.949 124.516 182.434 125.967 176.701 126.756C169.759 107.345 172.373 96.0468 172.373 96.0468C172.373 96.0468 174.358 95.1987 176.74 94.5528C177.053 94.4656 177.374 94.3869 177.7 94.3117C179.814 93.8217 183.346 93.4143 185.794 93.1947C186.309 93.1489 186.833 93.116 187.344 93.0921C189.944 92.9736 192.288 93.121 192.288 93.121Z" fill="#263238"/>
<path d="M182.098 84.3861C182.238 87.0524 182.521 92.0513 184.736 93.3187C184.736 93.3187 183.357 95.9457 180.374 96.2126C178.117 96.4148 178.267 94.1892 178.267 94.1892C179.572 93.2137 179.259 91.5658 178.266 89.7077L182.098 84.3861Z" fill="#E4897B"/>
<path opacity="0.2" d="M180.536 86.5569L178.268 89.7047C178.505 90.144 178.716 90.5967 178.866 91.0498C179.915 90.6305 181.111 89.0797 180.941 87.9169C180.856 87.3367 180.695 86.7984 180.536 86.5569Z" fill="black"/>
<path d="M172.388 79.0251C171.953 80.4071 172.192 83.2467 174.123 82.3234C176.054 81.4001 173.136 76.6497 172.388 79.0251Z" fill="#263238"/>
<path d="M182.347 80.8926C182.559 84.4448 182.865 86.515 181.299 88.5254C178.943 91.5493 174.38 90.4213 173.107 86.9941C171.961 83.909 171.807 78.6182 175.098 76.8274C178.341 75.063 182.135 77.3404 182.347 80.8926Z" fill="#E4897B"/>
<path d="M179.857 78.9614V74.9928C179.857 74.9928 184.081 74.6791 183.893 76.8409C186.233 78.0012 185.127 81.6411 181.984 83.4259C180.262 82.0475 180.459 78.7278 180.459 78.7278C180.273 78.81 180.069 78.8872 179.857 78.9614Z" fill="#263238"/>
<path d="M184.066 83.6665C183.894 84.6087 183.301 85.3801 182.644 85.8123C181.656 86.4627 180.791 85.6634 180.756 84.5404C180.724 83.5295 181.2 81.9733 182.342 81.7731C183.466 81.5763 184.262 82.5893 184.066 83.6665Z" fill="#E4897B"/>
<path d="M177.102 82.4783C177.137 82.7656 177.013 83.0156 176.824 83.0365C176.636 83.0575 176.455 82.8418 176.42 82.5545C176.385 82.2671 176.509 82.0171 176.697 81.9962C176.886 81.9753 177.067 82.1909 177.102 82.4783Z" fill="#263238"/>
<path d="M173.846 82.8418C173.881 83.1292 173.757 83.3791 173.569 83.4001C173.381 83.421 173.2 83.2053 173.165 82.918C173.13 82.6307 173.254 82.3807 173.442 82.3597C173.63 82.3388 173.811 82.5545 173.846 82.8418Z" fill="#263238"/>
<path d="M174.899 82.8692C174.899 82.8692 174.422 84.5395 173.788 85.3956C174.345 85.788 175.185 85.4737 175.185 85.4737L174.899 82.8692Z" fill="#DE5753"/>
<path d="M176.862 86.4C176.746 86.4294 176.622 86.4518 176.49 86.4668C176.443 86.4717 176.401 86.4384 176.396 86.392C176.39 86.3452 176.424 86.3034 176.47 86.2984C177.735 86.1555 178.217 85.2103 178.222 85.2008C178.242 85.159 178.294 85.1426 178.336 85.163C178.378 85.1839 178.396 85.2352 178.375 85.277C178.356 85.3149 177.94 86.1306 176.862 86.4Z" fill="#263238"/>
<path d="M177.978 81.3174C177.92 81.3318 177.857 81.3159 177.812 81.2696C177.284 80.7208 176.667 80.8264 176.66 80.8274C176.567 80.8443 176.478 80.7831 176.46 80.6914C176.442 80.5993 176.504 80.5106 176.595 80.4937C176.628 80.4877 177.402 80.3548 178.057 81.036C178.123 81.1043 178.121 81.2113 178.053 81.2761C178.032 81.297 178.005 81.3104 177.978 81.3174Z" fill="#263238"/>
<path d="M172.307 81.8816C172.276 81.8896 172.242 81.8886 172.209 81.8771C172.12 81.8458 172.073 81.7487 172.104 81.6605C172.411 80.7736 173.171 80.5878 173.203 80.5749C173.295 80.553 173.387 80.6092 173.41 80.6999C173.433 80.7905 173.378 80.8816 173.288 80.9045C173.256 80.911 172.672 81.0619 172.426 81.7735C172.407 81.8293 172.361 81.8682 172.307 81.8816Z" fill="#263238"/>
<path d="M181.732 80.4354C181.732 80.4354 179.256 79.5276 178.105 78.0829C178.105 78.0829 175.845 78.674 175.382 79.5933C175.382 79.5933 174.598 78.9365 175.185 78.0829C175.185 78.0829 173.494 78.44 173.159 79.5933C173.159 79.5933 172.314 79.304 172.365 78.0829C172.365 78.0829 171.611 78.3668 171.373 79.5933C171.373 79.5933 169.502 75.7025 175.672 74.5859C175.672 74.5859 175.185 74.3808 174.227 74.3394C174.227 74.3394 178.531 72.6029 181.945 74.1935C185.361 75.7846 184.737 78.8384 181.732 80.4354Z" fill="#263238"/>
<path d="M197.209 127.48L191.238 128.277C191.238 128.277 188.773 111.051 187.688 105.488V93.6061L190.81 92.7844L193.216 93.6061C193.793 95.5333 194.301 98.0632 194.744 100.877C195.038 102.739 195.302 104.731 195.536 106.748C195.86 109.497 196.129 112.296 196.358 114.915C196.716 119.144 196.955 122.888 197.085 125.169C197.17 126.623 197.209 127.48 197.209 127.48Z" fill="#407BFF"/>
<path d="M187.688 105.487C187.688 105.487 188.184 97.1065 190.811 92.7828C190.811 92.7828 190.745 91.5458 190.22 91.3486C189.695 91.1514 187.688 92.3336 187.688 92.3336C187.688 92.3336 186.437 91.4801 186.162 91.874C185.886 92.2679 185.222 94.9332 187.688 105.487Z" fill="#407BFF"/>
<path opacity="0.7" d="M187.688 105.487C187.688 105.487 188.184 97.1065 190.811 92.7828C190.811 92.7828 190.745 91.5458 190.22 91.3486C189.695 91.1514 187.688 92.3336 187.688 92.3336C187.688 92.3336 186.437 91.4801 186.162 91.874C185.886 92.2679 185.222 94.9332 187.688 105.487Z" fill="white"/>
<path d="M174.1 129.786L174.782 130.279C174.782 130.279 173.796 124.725 174.194 110.681C174.214 110.004 174.239 109.351 174.264 108.729C174.772 96.8465 176.615 94.6852 176.734 94.5557L175.011 95.1434L171.889 96.219C170.967 106.358 174.1 129.786 174.1 129.786Z" fill="#407BFF"/>
<path d="M174.37 106.685C174.37 106.685 172.646 98.5402 173.159 95.7325C173.671 92.9248 175.51 94.1723 175.51 94.1723C175.51 94.1723 177.2 92.8087 177.701 94.3112C177.701 94.3112 175.382 95.9451 174.37 106.685Z" fill="#407BFF"/>
<path opacity="0.7" d="M174.37 106.685C174.37 106.685 172.646 98.5402 173.159 95.7325C173.671 92.9248 175.51 94.1723 175.51 94.1723C175.51 94.1723 177.2 92.8087 177.701 94.3112C177.701 94.3112 175.382 95.9451 174.37 106.685Z" fill="white"/>
<path opacity="0.2" d="M195.536 106.748C192.986 105.319 192.648 101.589 192.648 101.589C192.802 101.529 193.748 101.206 194.744 100.877C195.038 102.739 195.302 104.731 195.536 106.748Z" fill="black"/>
<path opacity="0.2" d="M183.064 155.157L185.21 143.479L184.797 137.299C184.797 137.299 181.854 148.016 183.064 155.157Z" fill="black"/>
<path opacity="0.2" d="M197.085 125.169C195.481 125.06 194.092 124.955 194.092 124.955L193.788 118.436C193.788 118.436 194.306 118.003 195.466 118.128C195.466 118.128 195.989 116.853 196.358 114.915C196.716 119.143 196.956 122.888 197.085 125.169Z" fill="black"/>
<path d="M197.632 114.909L194.51 119.923L196.979 121.343L199.913 116.825L197.632 114.909Z" fill="#E4897B"/>
<path d="M193.091 93.5433C195.194 93.7744 204.125 106.034 204.519 109.73C204.913 113.425 199.272 119.805 199.272 119.805L195.503 117.587C195.503 117.587 199.33 111.706 199.528 110.136C199.725 108.567 192.532 102.131 192.532 102.131C192.532 102.131 191.747 100.241 191.647 97.5199C191.547 94.7988 193.091 93.5433 193.091 93.5433Z" fill="#407BFF"/>
<path d="M193.786 118.437C193.786 118.437 197 119.127 198.292 121.146C198.292 121.146 196.95 125.354 195.99 125.812C195.03 126.27 192.645 126.27 192.645 126.27C192.645 126.27 192.492 121.59 193.786 118.437Z" fill="#407BFF"/>
</svg>
