<svg width="249" height="249" viewBox="0 0 249 249" fill="none" xmlns="http://www.w3.org/2000/svg">
<path d="M224.051 198.45H207.556V198.575H224.051V198.45Z" fill="#EBEBEB"/>
<path d="M164.948 199.802H160.618V199.926H164.948V199.802Z" fill="#EBEBEB"/>
<path d="M207.057 193.826H197.5V193.95H207.057V193.826Z" fill="#EBEBEB"/>
<path d="M47.6347 194.662H26.1246V194.787H47.6347V194.662Z" fill="#EBEBEB"/>
<path d="M55.2227 194.662H52.0689V194.787H55.2227V194.662Z" fill="#EBEBEB"/>
<path d="M112.123 196.765H65.4725V196.89H112.123V196.765Z" fill="#EBEBEB"/>
<path d="M249 190.434H0V190.559H249V190.434Z" fill="#EBEBEB"/>
<path d="M39.826 61.5607H39.0038V125.659H39.826V61.5607Z" fill="#E0E0E0"/>
<path d="M90.9935 61.5607H90.1713V125.659H90.9935V61.5607Z" fill="#E0E0E0"/>
<path d="M94.2131 65.5906H35.7843L34.5512 62.7136H95.4457L94.2131 65.5906Z" fill="#EBEBEB"/>
<path d="M94.2131 69.5402H35.7843L34.5512 66.6633H95.4457L94.2131 69.5402Z" fill="#EBEBEB"/>
<path d="M94.2131 73.4899H35.7843L34.5512 70.6134H95.4457L94.2131 73.4899Z" fill="#EBEBEB"/>
<path d="M94.2131 77.44H35.7843L34.5512 74.563H95.4457L94.2131 77.44Z" fill="#EBEBEB"/>
<path d="M94.2131 81.3896H35.7843L34.5512 78.5127H95.4457L94.2131 81.3896Z" fill="#EBEBEB"/>
<path d="M94.2131 85.3393H35.7843L34.5512 82.4623H95.4457L94.2131 85.3393Z" fill="#EBEBEB"/>
<path d="M94.2131 89.2894H35.7843L34.5512 86.4125H95.4457L94.2131 89.2894Z" fill="#EBEBEB"/>
<path d="M94.2131 93.239H35.7843L34.5512 90.3621H95.4457L94.2131 93.239Z" fill="#EBEBEB"/>
<path d="M94.2131 97.1887H35.7843L34.5512 94.3117H95.4457L94.2131 97.1887Z" fill="#EBEBEB"/>
<path d="M94.2131 101.138H35.7843L34.5512 98.2614H95.4457L94.2131 101.138Z" fill="#EBEBEB"/>
<path d="M94.2131 105.088H35.7843L34.5512 102.211H95.4457L94.2131 105.088Z" fill="#EBEBEB"/>
<path d="M94.2131 109.038H35.7843L34.5512 106.161H95.4457L94.2131 109.038Z" fill="#EBEBEB"/>
<path d="M94.2131 112.988H35.7843L34.5512 110.111H95.4457L94.2131 112.988Z" fill="#EBEBEB"/>
<path d="M94.2131 116.937H35.7843L34.5512 114.06H95.4457L94.2131 116.937Z" fill="#EBEBEB"/>
<path d="M94.2131 120.887H35.7843L34.5512 118.011H95.4457L94.2131 120.887Z" fill="#EBEBEB"/>
<path d="M94.2131 124.837H35.7843L34.5512 121.96H95.4457L94.2131 124.837Z" fill="#EBEBEB"/>
<path d="M95.4457 124.837H34.5512V126.481H95.4457V124.837Z" fill="#E0E0E0"/>
<path d="M97.5691 59.1106H32.4277V62.9467H97.5691V59.1106Z" fill="#E0E0E0"/>
<path d="M33.0966 97.725C32.7305 97.725 32.4337 97.4282 32.4337 97.0622V74.689C32.4337 74.323 32.7305 74.0262 33.0966 74.0262C33.4626 74.0262 33.7594 74.323 33.7594 74.689V97.0622C33.7594 97.4282 33.4626 97.725 33.0966 97.725Z" fill="#E0E0E0"/>
<path d="M33.3366 62.1773H32.857V75.4649H33.3366V62.1773Z" fill="#E0E0E0"/>
<path d="M159.952 61.5607H159.13V125.659H159.952V61.5607Z" fill="#E0E0E0"/>
<path d="M211.12 61.5607H210.298V125.659H211.12V61.5607Z" fill="#E0E0E0"/>
<path d="M214.339 65.5906H155.91L154.678 62.7136H215.572L214.339 65.5906Z" fill="#EBEBEB"/>
<path d="M214.339 69.5402H155.91L154.678 66.6633H215.572L214.339 69.5402Z" fill="#EBEBEB"/>
<path d="M214.339 73.4899H155.91L154.678 70.6134H215.572L214.339 73.4899Z" fill="#EBEBEB"/>
<path d="M214.339 77.44H155.91L154.678 74.563H215.572L214.339 77.44Z" fill="#EBEBEB"/>
<path d="M214.339 81.3896H155.91L154.678 78.5127H215.572L214.339 81.3896Z" fill="#EBEBEB"/>
<path d="M214.339 85.3393H155.91L154.678 82.4623H215.572L214.339 85.3393Z" fill="#EBEBEB"/>
<path d="M214.339 89.2894H155.91L154.678 86.4125H215.572L214.339 89.2894Z" fill="#EBEBEB"/>
<path d="M214.339 93.239H155.91L154.678 90.3621H215.572L214.339 93.239Z" fill="#EBEBEB"/>
<path d="M214.339 97.1887H155.91L154.678 94.3117H215.572L214.339 97.1887Z" fill="#EBEBEB"/>
<path d="M214.339 101.138H155.91L154.678 98.2614H215.572L214.339 101.138Z" fill="#EBEBEB"/>
<path d="M214.339 105.088H155.91L154.678 102.211H215.572L214.339 105.088Z" fill="#EBEBEB"/>
<path d="M214.339 109.038H155.91L154.678 106.161H215.572L214.339 109.038Z" fill="#EBEBEB"/>
<path d="M214.339 112.988H155.91L154.678 110.111H215.572L214.339 112.988Z" fill="#EBEBEB"/>
<path d="M214.339 116.937H155.91L154.678 114.06H215.572L214.339 116.937Z" fill="#EBEBEB"/>
<path d="M214.339 120.887H155.91L154.678 118.011H215.572L214.339 120.887Z" fill="#EBEBEB"/>
<path d="M214.339 124.837H155.91L154.678 121.96H215.572L214.339 124.837Z" fill="#EBEBEB"/>
<path d="M215.572 124.837H154.678V126.481H215.572V124.837Z" fill="#E0E0E0"/>
<path d="M217.696 59.1106H152.554V62.9467H217.696V59.1106Z" fill="#E0E0E0"/>
<path d="M153.223 97.725C152.857 97.725 152.56 97.4282 152.56 97.0622V74.689C152.56 74.323 152.857 74.0262 153.223 74.0262C153.589 74.0262 153.886 74.323 153.886 74.689V97.0622C153.886 97.4282 153.589 97.725 153.223 97.725Z" fill="#E0E0E0"/>
<path d="M153.463 62.1773H152.983V75.4649H153.463V62.1773Z" fill="#E0E0E0"/>
<path d="M194.052 52.3473H54.9484V131.03H194.052V52.3473Z" fill="#E0E0E0"/>
<path d="M194.773 132.949H54.2267C53.7761 132.949 53.4105 132.583 53.4105 132.132V130.477C53.4105 130.026 53.7761 129.66 54.2267 129.66H194.773C195.224 129.66 195.59 130.026 195.59 130.477V132.132C195.59 132.583 195.224 132.949 194.773 132.949Z" fill="#EBEBEB"/>
<path d="M190.857 54.7377H58.143V130.409H190.857V54.7377Z" fill="#FAFAFA"/>
<path d="M131.807 144.486C129.62 142.08 127.433 139.674 125.247 137.267C125.247 135.827 125.247 134.388 125.247 132.949C125.247 131.891 123.753 131.889 123.753 132.949C123.753 134.388 123.753 135.827 123.753 137.267C121.566 139.673 119.38 142.079 117.193 144.486C116.512 145.235 117.568 146.399 118.249 145.649C120.084 143.63 121.918 141.611 123.753 139.592C123.753 141.397 123.753 143.202 123.753 145.007C123.753 146.064 125.247 146.066 125.247 145.007C125.247 143.202 125.247 141.397 125.247 139.592C127.081 141.611 128.915 143.63 130.75 145.649C131.431 146.398 132.488 145.236 131.807 144.486Z" fill="#E6E6E6"/>
<path d="M197.206 55.9588H51.795C50.6566 55.9588 49.7333 55.0355 49.7333 53.897V50.7975C49.7333 49.6591 50.6566 48.7358 51.795 48.7358H197.206C198.344 48.7358 199.267 49.6591 199.267 50.7975V53.897C199.267 55.0355 198.344 55.9588 197.206 55.9588Z" fill="#F0F0F0"/>
<path d="M93.0513 146.142H34.2599V166.435H93.0513V146.142Z" fill="#EBEBEB"/>
<path d="M93.0513 166.435H34.2599V186.729H93.0513V166.435Z" fill="#EBEBEB"/>
<path d="M56.6012 166.435L63.9158 146.142H52.658L45.3429 166.435H56.6012Z" fill="#F0F0F0"/>
<path d="M69.3644 146.142H66.8913L59.5767 166.435H62.0493L69.3644 146.142Z" fill="#F0F0F0"/>
<path d="M49.286 186.729L56.6012 166.435H45.3434L38.0283 186.729H49.286Z" fill="#F0F0F0"/>
<path d="M62.0493 166.435H59.5767L52.2616 186.729H54.7347L62.0493 166.435Z" fill="#F0F0F0"/>
<path d="M93.0514 149.262V147.209H34.26V149.262H93.0514Z" fill="#E0E0E0"/>
<path d="M93.0515 169.398V167.344H34.2601V169.398H93.0515Z" fill="#E0E0E0"/>
<path d="M65.1598 158.886C65.6468 158.886 66.0417 158.491 66.0417 158.004C66.0417 157.517 65.6468 157.122 65.1598 157.122C64.9128 157.122 62.3989 157.122 62.1519 157.122C61.6648 157.122 61.2699 157.517 61.2699 158.004C61.2699 158.491 61.6648 158.886 62.1519 158.886C62.4183 158.886 64.8928 158.886 65.1598 158.886Z" fill="#E0E0E0"/>
<path d="M65.1598 158.575C65.6468 158.575 66.0417 158.18 66.0417 157.693C66.0417 157.206 65.6468 156.811 65.1598 156.811C64.9128 156.811 62.3989 156.811 62.1519 156.811C61.6648 156.811 61.2699 157.206 61.2699 157.693C61.2699 158.18 61.6648 158.575 62.1519 158.575C62.4183 158.575 64.8928 158.575 65.1598 158.575Z" fill="#F5F5F5"/>
<path d="M65.1598 177.619C65.6468 177.619 66.0417 177.224 66.0417 176.737C66.0417 176.25 65.6468 175.855 65.1598 175.855C64.9128 175.855 62.3989 175.855 62.1519 175.855C61.6648 175.855 61.2699 176.25 61.2699 176.737C61.2699 177.224 61.6648 177.619 62.1519 177.619C62.4183 177.619 64.8928 177.619 65.1598 177.619Z" fill="#E0E0E0"/>
<path d="M65.1598 177.308C65.6468 177.308 66.0417 176.913 66.0417 176.426C66.0417 175.939 65.6468 175.544 65.1598 175.544C64.9128 175.544 62.3989 175.544 62.1519 175.544C61.6648 175.544 61.2699 175.939 61.2699 176.426C61.2699 176.913 61.6648 177.308 62.1519 177.308C62.4183 177.308 64.8928 177.308 65.1598 177.308Z" fill="#F5F5F5"/>
<path d="M33.2335 145.232V187.616H34.2599H35.2868H92.0249H93.0513H94.0777V145.232H33.2335ZM92.0249 185.562H35.2868V167.508H92.0249V185.562ZM92.0249 165.455H35.2868V147.401H92.0249V165.455Z" fill="#F5F5F5"/>
<path d="M153.896 146.142H95.1046V166.435H153.896V146.142Z" fill="#EBEBEB"/>
<path d="M153.896 166.435H95.1046V186.729H153.896V166.435Z" fill="#EBEBEB"/>
<path d="M140.687 166.435L148.002 146.142H136.744L129.429 166.435H140.687Z" fill="#F0F0F0"/>
<path d="M153.451 146.142H150.978L143.663 166.435H146.136L153.451 146.142Z" fill="#F0F0F0"/>
<path d="M133.372 186.729L140.687 166.435H129.429L122.115 186.729H133.372Z" fill="#F0F0F0"/>
<path d="M146.136 166.435H143.663L136.348 186.729H138.821L146.136 166.435Z" fill="#F0F0F0"/>
<path d="M153.896 149.263V147.209H95.1045V149.263H153.896Z" fill="#E0E0E0"/>
<path d="M153.896 169.398V167.345H95.1047V169.398H153.896Z" fill="#E0E0E0"/>
<path d="M126.004 158.886C126.491 158.886 126.886 158.491 126.886 158.004C126.886 157.517 126.491 157.122 126.004 157.122C125.757 157.122 123.243 157.122 122.996 157.122C122.509 157.122 122.114 157.517 122.114 158.004C122.114 158.491 122.509 158.886 122.996 158.886C123.263 158.886 125.738 158.886 126.004 158.886Z" fill="#E0E0E0"/>
<path d="M126.004 158.575C126.491 158.575 126.886 158.18 126.886 157.693C126.886 157.206 126.491 156.811 126.004 156.811C125.757 156.811 123.243 156.811 122.996 156.811C122.509 156.811 122.114 157.206 122.114 157.693C122.114 158.18 122.509 158.575 122.996 158.575C123.263 158.575 125.738 158.575 126.004 158.575Z" fill="#F5F5F5"/>
<path d="M126.004 177.619C126.491 177.619 126.886 177.224 126.886 176.737C126.886 176.25 126.491 175.855 126.004 175.855C125.757 175.855 123.243 175.855 122.996 175.855C122.509 175.855 122.114 176.25 122.114 176.737C122.114 177.224 122.509 177.619 122.996 177.619C123.263 177.619 125.738 177.619 126.004 177.619Z" fill="#E0E0E0"/>
<path d="M126.004 177.308C126.491 177.308 126.886 176.913 126.886 176.426C126.886 175.939 126.491 175.544 126.004 175.544C125.757 175.544 123.243 175.544 122.996 175.544C122.509 175.544 122.114 175.939 122.114 176.426C122.114 176.913 122.509 177.308 122.996 177.308C123.263 177.308 125.738 177.308 126.004 177.308Z" fill="#F5F5F5"/>
<path d="M94.0782 145.232V187.616H95.1046H96.1309H152.869H153.895H154.922V145.232H94.0782ZM152.87 185.562H96.1314V167.508H152.87V185.562ZM152.87 165.455H96.1314V147.401H152.87V165.455Z" fill="#F5F5F5"/>
<path d="M214.74 146.142H155.949V166.435H214.74V146.142Z" fill="#EBEBEB"/>
<path d="M214.74 166.435H155.949V186.729H214.74V166.435Z" fill="#EBEBEB"/>
<path d="M193.178 166.435L200.493 146.142H189.235L181.92 166.435H193.178Z" fill="#F0F0F0"/>
<path d="M205.941 146.142H203.468L196.154 166.435H198.626L205.941 146.142Z" fill="#F0F0F0"/>
<path d="M185.864 186.729L193.178 166.435H181.92L174.605 186.729H185.864Z" fill="#F0F0F0"/>
<path d="M198.627 166.435H196.154L188.839 186.729H191.312L198.627 166.435Z" fill="#F0F0F0"/>
<path d="M214.74 149.263V147.209H155.949V149.263H214.74Z" fill="#E0E0E0"/>
<path d="M214.74 169.398V167.345H155.949V169.398H214.74Z" fill="#E0E0E0"/>
<path d="M186.848 158.886C187.335 158.886 187.73 158.491 187.73 158.004C187.73 157.517 187.335 157.122 186.848 157.122C186.601 157.122 184.087 157.122 183.84 157.122C183.353 157.122 182.958 157.517 182.958 158.004C182.958 158.491 183.353 158.886 183.84 158.886C184.107 158.886 186.582 158.886 186.848 158.886Z" fill="#E0E0E0"/>
<path d="M186.848 158.575C187.335 158.575 187.73 158.18 187.73 157.693C187.73 157.206 187.335 156.811 186.848 156.811C186.601 156.811 184.087 156.811 183.84 156.811C183.353 156.811 182.958 157.206 182.958 157.693C182.958 158.18 183.353 158.575 183.84 158.575C184.107 158.575 186.582 158.575 186.848 158.575Z" fill="#F5F5F5"/>
<path d="M186.848 177.619C187.335 177.619 187.73 177.224 187.73 176.737C187.73 176.25 187.335 175.855 186.848 175.855C186.601 175.855 184.087 175.855 183.84 175.855C183.353 175.855 182.958 176.25 182.958 176.737C182.958 177.224 183.353 177.619 183.84 177.619C184.107 177.619 186.582 177.619 186.848 177.619Z" fill="#E0E0E0"/>
<path d="M186.848 177.308C187.335 177.308 187.73 176.913 187.73 176.426C187.73 175.939 187.335 175.544 186.848 175.544C186.601 175.544 184.087 175.544 183.84 175.544C183.353 175.544 182.958 175.939 182.958 176.426C182.958 176.913 183.353 177.308 183.84 177.308C184.107 177.308 186.582 177.308 186.848 177.308Z" fill="#F5F5F5"/>
<path d="M154.922 145.232V187.616H155.948H156.975H213.713H214.739H215.765V145.232H154.922ZM213.713 185.562H156.975V167.508H213.713V185.562ZM213.713 165.455H156.975V147.401H213.713V165.455Z" fill="#F5F5F5"/>
<path d="M209.884 190.669H39.1159L38.227 187.616H210.773L209.884 190.669Z" fill="#E0E0E0"/>
<path d="M124.5 211.01C177.827 211.01 221.057 208.485 221.057 205.371C221.057 202.256 177.827 199.732 124.5 199.732C71.1732 199.732 27.9433 202.256 27.9433 205.371C27.9433 208.485 71.1732 211.01 124.5 211.01Z" fill="#F5F5F5"/>
<path d="M66.1065 119.522H176.653C179.666 119.522 181.896 117.079 181.632 114.066L175.69 46.1546C175.426 43.1407 172.77 40.6981 169.756 40.6981H59.2102C56.1968 40.6981 53.9673 43.1412 54.2307 46.1546L60.1724 114.066C60.4358 117.08 63.0926 119.522 66.1065 119.522Z" fill="#263238"/>
<path opacity="0.7" d="M66.1065 119.522H176.653C179.666 119.522 181.896 117.079 181.632 114.066L175.69 46.1546C175.426 43.1407 172.77 40.6981 169.756 40.6981H59.2102C56.1968 40.6981 53.9673 43.1412 54.2307 46.1546L60.1724 114.066C60.4358 117.08 63.0926 119.522 66.1065 119.522Z" fill="white"/>
<path d="M66.2246 112.572H174.025L168.046 44.2349H60.2456L66.2246 112.572Z" fill="#407BFF"/>
<path d="M67.7076 117.921H178.254C181.268 117.921 183.497 115.478 183.233 112.465L177.292 44.5536C177.028 41.5397 174.371 39.097 171.357 39.097H60.8113C57.7979 39.097 55.5684 41.5402 55.8318 44.5536L61.7734 112.465C62.0369 115.478 64.6942 117.921 67.7076 117.921Z" fill="#407BFF"/>
<path d="M66.2246 112.572H174.025L168.046 44.2349H60.2456L66.2246 112.572Z" fill="#407BFF"/>
<path opacity="0.4" d="M66.2246 112.678H174.025L168.046 44.3405H60.2456L66.2246 112.678Z" fill="white"/>
<path d="M168.585 50.4967H60.7844L60.2456 44.3405H168.046L168.585 50.4967Z" fill="#407BFF"/>
<path opacity="0.5" d="M168.585 50.4967H60.7844L60.2456 44.3405H168.046L168.585 50.4967Z" fill="black"/>
<path d="M64.7993 46.8733L64.8476 47.4266H65.8152L65.8491 47.815H64.8815L64.9482 48.5775H64.4641L64.2809 46.4844H65.8605L65.8944 46.8733H64.7993Z" fill="white"/>
<path d="M66.13 47.5307C66.0757 46.9086 66.5189 46.448 67.1793 46.448C67.8361 46.448 68.363 46.9057 68.4178 47.5307C68.4726 48.1556 68.0259 48.6128 67.3685 48.6128C66.7087 48.6133 66.1843 48.1527 66.13 47.5307ZM67.9278 47.5307C67.8929 47.1327 67.5886 46.8608 67.2151 46.8608C66.8416 46.8608 66.5847 47.1327 66.6195 47.5307C66.6544 47.9281 66.9591 48.2005 67.3321 48.2005C67.7056 48.201 67.9626 47.9286 67.9278 47.5307Z" fill="white"/>
<path d="M70.2066 48.5775L69.7524 47.9943H69.7285H69.3072L69.358 48.5775H68.8739L68.6907 46.4844H69.5955C70.1538 46.4844 70.5288 46.7747 70.5701 47.2438C70.5975 47.5576 70.4591 47.7876 70.1976 47.9047L70.7255 48.5775H70.2066ZM69.604 46.8788H69.2096L69.2733 47.6084H69.6678C69.9636 47.6084 70.1005 47.4709 70.0811 47.2438C70.0612 47.0132 69.8998 46.8788 69.604 46.8788Z" fill="white"/>
<path d="M72.973 48.5775L72.8599 47.3215L72.3355 48.3563H72.1174L71.4167 47.3489L71.5243 48.578H71.0701L70.8868 46.4849H71.2872L72.1836 47.7856L72.84 46.4849H73.2374L73.4261 48.578L72.973 48.5775Z" fill="white"/>
<path d="M67.8476 55.3751L67.8879 55.8358H68.6957L68.7241 56.1595H67.9168L67.9721 56.7944H67.5682L67.4158 55.0509H68.7345L68.7629 55.3746L67.8476 55.3751Z" fill="#407BFF"/>
<path d="M68.9073 55.0514C68.8969 54.9294 68.9855 54.8348 69.1299 54.8348C69.2749 54.8348 69.3799 54.9244 69.3904 55.0439C69.4018 55.1734 69.3127 55.2685 69.1683 55.2685C69.0234 55.268 68.9178 55.1734 68.9073 55.0514ZM68.99 55.4548H69.3789L69.496 56.7944H69.107L68.99 55.4548Z" fill="#407BFF"/>
<path d="M70.5702 55.4349L70.6015 55.7934C70.5692 55.7909 70.5438 55.7885 70.5139 55.7885C70.2993 55.7885 70.1678 55.9055 70.1902 56.162L70.2455 56.7944H69.8565L69.7395 55.4548H70.111L70.1264 55.6316C70.2096 55.5021 70.3635 55.4349 70.5702 55.4349Z" fill="#407BFF"/>
<path d="M70.7838 56.6699L70.8889 56.391C71.0154 56.4682 71.2016 56.5205 71.3665 56.5205C71.5458 56.5205 71.609 56.4732 71.6025 56.3985C71.5836 56.1794 70.7928 56.4035 70.7465 55.8681C70.7241 55.6142 70.9377 55.4349 71.3291 55.4349C71.5134 55.4349 71.7216 55.4772 71.855 55.5519L71.7494 55.8283C71.611 55.7536 71.477 55.7287 71.355 55.7287C71.1802 55.7287 71.11 55.7835 71.1165 55.8532C71.1364 56.0823 71.9272 55.8607 71.9735 56.3885C71.9955 56.6375 71.7788 56.8143 71.3774 56.8143C71.1509 56.8143 70.9158 56.7521 70.7838 56.6699Z" fill="#407BFF"/>
<path d="M73.106 56.7302C73.0313 56.7875 72.9162 56.8144 72.7967 56.8144C72.48 56.8144 72.2818 56.6525 72.2539 56.3338L72.2056 55.7835H71.9984L71.9725 55.4847H72.1797L72.1508 55.1585H72.5398L72.5686 55.4847H72.9023L72.9282 55.7835H72.5945L72.6423 56.3288C72.6523 56.4433 72.72 56.5056 72.8246 56.5056C72.8819 56.5056 72.9382 56.4882 72.9775 56.4558L73.106 56.7302Z" fill="#407BFF"/>
<path d="M75.5093 55.0514L75.6617 56.7949H75.33L74.3674 55.7361L74.46 56.7949H74.0611L73.9088 55.0514H74.2424L75.2026 56.1101L75.1099 55.0514H75.5093Z" fill="#407BFF"/>
<path d="M77.1657 56.0305L77.2324 56.7949H76.8684L76.8539 56.6281C76.7927 56.7501 76.6582 56.8148 76.4615 56.8148C76.1473 56.8148 75.9451 56.6405 75.9247 56.409C75.9037 56.1724 76.0566 56.0081 76.4655 56.0081H76.7747C76.7603 55.8412 76.6517 55.7441 76.4426 55.7441C76.3006 55.7441 76.1577 55.7914 76.0671 55.8686L75.9037 55.5972C76.0417 55.4926 76.2538 55.4354 76.468 55.4354C76.8768 55.4349 77.1303 55.6241 77.1657 56.0305ZM76.8071 56.3711L76.7952 56.2342H76.5282C76.3465 56.2342 76.2947 56.3014 76.3026 56.391C76.3111 56.4881 76.3993 56.5529 76.5362 56.5529C76.6657 56.5534 76.7728 56.4931 76.8071 56.3711Z" fill="#407BFF"/>
<path d="M79.7812 56.0275L79.8484 56.7944H79.4595L79.3977 56.0873C79.3788 55.8706 79.2727 55.771 79.1163 55.771C78.9415 55.771 78.8295 55.8831 78.8504 56.1221L78.9092 56.7944H78.5202L78.458 56.0873C78.439 55.8706 78.3384 55.771 78.1761 55.771C78.0043 55.771 77.8917 55.8831 77.9127 56.1221L77.9714 56.7944H77.5825L77.4655 55.4548H77.837L77.8504 55.6092C77.9401 55.4946 78.0845 55.4349 78.2563 55.4349C78.443 55.4349 78.6089 55.5076 78.7164 55.654C78.8116 55.5175 78.9789 55.4349 79.1806 55.4349C79.4998 55.4349 79.7453 55.6191 79.7812 56.0275Z" fill="#407BFF"/>
<path d="M81.4669 56.2342H80.4525C80.5043 56.401 80.6556 56.5031 80.8598 56.5031C81.0018 56.5031 81.1004 56.4607 81.185 56.3736L81.4111 56.5982C81.2991 56.7401 81.1188 56.8148 80.8768 56.8148C80.4131 56.8148 80.0859 56.5235 80.0511 56.1251C80.0162 55.7242 80.2976 55.4354 80.7059 55.4354C81.0999 55.4354 81.427 55.6993 81.4644 56.1306C81.4674 56.1595 81.4664 56.2018 81.4669 56.2342ZM80.4276 56.0076H81.0879C81.0456 55.8382 80.9091 55.7287 80.7348 55.7287C80.5575 55.7287 80.44 55.8363 80.4276 56.0076Z" fill="#407BFF"/>
<path d="M71.8037 89.763L71.8321 90.0867H70.4815L70.3291 88.3432H71.6473L71.6757 88.6669H70.7584L70.7912 89.0454H71.601L71.6284 89.3591H70.8186L70.854 89.7625L71.8037 89.763Z" fill="#407BFF"/>
<path d="M74.3231 89.3198L74.3903 90.0872H74.0014L73.9396 89.38C73.9207 89.1634 73.8151 89.0638 73.6583 89.0638C73.4835 89.0638 73.3714 89.1759 73.3923 89.4149L73.4511 90.0877H73.0621L72.9999 89.3805C72.981 89.1639 72.8804 89.0643 72.7185 89.0643C72.5462 89.0643 72.4342 89.1764 72.4551 89.4154L72.5138 90.0882H72.1249L72.0079 88.7481H72.3794L72.3928 88.9025C72.4825 88.7879 72.6269 88.7277 72.7987 88.7277C72.9855 88.7277 73.1518 88.7999 73.2589 88.9468C73.354 88.8098 73.5213 88.7277 73.7235 88.7277C74.0417 88.7272 74.2872 88.9114 74.3231 89.3198Z" fill="#407BFF"/>
<path d="M75.8564 89.3223L75.9231 90.0867H75.5596L75.5452 89.9194C75.4834 90.0419 75.3494 90.1066 75.1522 90.1066C74.8385 90.1066 74.6358 89.9323 74.6159 89.7008C74.595 89.4642 74.7479 89.2999 75.1567 89.2999H75.466C75.4515 89.133 75.343 89.0359 75.1338 89.0359C74.9919 89.0359 74.849 89.0837 74.7583 89.1604L74.595 88.8895C74.7329 88.7844 74.9451 88.7272 75.1592 88.7272C75.5671 88.7272 75.8206 88.9164 75.8564 89.3223ZM75.4973 89.6634L75.4854 89.5265H75.2185C75.0367 89.5265 74.9849 89.5937 74.9929 89.6828C75.0013 89.7799 75.089 89.8452 75.2264 89.8452C75.3559 89.8457 75.463 89.7854 75.4973 89.6634Z" fill="#407BFF"/>
<path d="M76.073 88.3432C76.0626 88.2212 76.1512 88.1266 76.2956 88.1266C76.4401 88.1266 76.5451 88.2162 76.5561 88.3353C76.5676 88.4647 76.4784 88.5598 76.334 88.5598C76.1891 88.5603 76.084 88.4657 76.073 88.3432ZM76.1557 88.7471H76.5446L76.6617 90.0872H76.2727L76.1557 88.7471Z" fill="#407BFF"/>
<path d="M76.8608 88.2386H77.2498L77.4116 90.0867H77.0227L76.8608 88.2386Z" fill="#407BFF"/>
<path d="M69.5682 66.5194H68.7584L68.6364 66.8929H68.2226L68.8476 65.1494H69.2465L70.1792 66.8929H69.7554L69.5682 66.5194ZM69.4143 66.2131L69.0797 65.5458L68.8615 66.2131H69.4143Z" fill="#407BFF"/>
<path d="M71.5238 65.0448L71.6852 66.8929H71.3142L71.3007 66.7385C71.2136 66.8555 71.0766 66.9128 70.8974 66.9128C70.5184 66.9128 70.2031 66.6439 70.1663 66.2231C70.1294 65.8023 70.3974 65.5333 70.7763 65.5333C70.9407 65.5333 71.0851 65.5856 71.1917 65.6957L71.1349 65.0453H71.5238V65.0448ZM71.2455 66.2226C71.2255 65.991 71.0637 65.8516 70.8715 65.8516C70.6767 65.8516 70.5398 65.991 70.5597 66.2226C70.5801 66.4546 70.742 66.5936 70.9362 66.5936C71.1284 66.5941 71.2659 66.4546 71.2455 66.2226Z" fill="#407BFF"/>
<path d="M73.2469 65.0448L73.4083 66.8929H73.0373L73.0238 66.7385C72.9367 66.8555 72.7997 66.9128 72.6204 66.9128C72.2415 66.9128 71.9267 66.6439 71.8894 66.2231C71.8525 65.8023 72.1204 65.5333 72.4994 65.5333C72.6638 65.5333 72.8082 65.5856 72.9147 65.6957L72.858 65.0453H73.2469V65.0448ZM72.9685 66.2226C72.9481 65.991 72.7868 65.8516 72.5945 65.8516C72.3998 65.8516 72.2624 65.991 72.2828 66.2226C72.3032 66.4546 72.4651 66.5936 72.6593 66.5936C72.8515 66.5941 72.989 66.4546 72.9685 66.2226Z" fill="#407BFF"/>
<path d="M74.479 65.5328L74.5104 65.8914C74.478 65.8889 74.4526 65.8864 74.4227 65.8864C74.2081 65.8864 74.0766 66.0039 74.099 66.2604L74.1543 66.8929H73.7658L73.6483 65.5533H74.0198L74.0353 65.7301C74.1184 65.6001 74.2723 65.5328 74.479 65.5328Z" fill="#407BFF"/>
<path d="M76.0736 66.3326H75.0591C75.1114 66.4994 75.2623 66.6015 75.4665 66.6015C75.6084 66.6015 75.7065 66.5592 75.7917 66.472L76.0183 66.6966C75.9062 66.8386 75.726 66.9133 75.4839 66.9133C75.0203 66.9133 74.6931 66.6219 74.6582 66.2235C74.6234 65.8227 74.9048 65.5338 75.3131 65.5338C75.7065 65.5338 76.0342 65.7978 76.0716 66.2285C76.0746 66.2579 76.0731 66.3002 76.0736 66.3326ZM75.0342 66.106H75.6946C75.6523 65.9367 75.5158 65.8271 75.341 65.8271C75.1642 65.8271 75.0467 65.9342 75.0342 66.106Z" fill="#407BFF"/>
<path d="M76.2468 66.7684L76.3519 66.489C76.4784 66.5662 76.6647 66.6185 76.8295 66.6185C77.0088 66.6185 77.072 66.5712 77.0656 66.4965C77.0461 66.2773 76.2563 66.5015 76.209 65.9661C76.1871 65.7121 76.4002 65.5328 76.7917 65.5328C76.9759 65.5328 77.1841 65.5752 77.3175 65.6499L77.2125 65.9263C77.074 65.8516 76.9396 65.8267 76.8176 65.8267C76.6428 65.8267 76.573 65.8814 76.579 65.9512C76.5989 66.1802 77.3898 65.9586 77.4361 66.4865C77.458 66.7355 77.2414 66.9123 76.8405 66.9123C76.6134 66.9128 76.3783 66.8505 76.2468 66.7684Z" fill="#407BFF"/>
<path d="M77.5691 66.7684L77.6741 66.489C77.8006 66.5662 77.9869 66.6185 78.1517 66.6185C78.331 66.6185 78.3942 66.5712 78.3878 66.4965C78.3683 66.2773 77.578 66.5015 77.5312 65.9661C77.5093 65.7121 77.7224 65.5328 78.1139 65.5328C78.2986 65.5328 78.5068 65.5752 78.6402 65.6499L78.5352 65.9263C78.3967 65.8516 78.2623 65.8267 78.1398 65.8267C77.9655 65.8267 77.8957 65.8814 77.9017 65.9512C77.9216 66.1802 78.7125 65.9586 78.7583 66.4865C78.7802 66.7355 78.5641 66.9123 78.1627 66.9123C77.9356 66.9128 77.701 66.8505 77.5691 66.7684Z" fill="#407BFF"/>
<path d="M72.8565 99.9416C72.8903 100.33 72.6199 100.572 72.1538 100.572H71.8022L71.844 101.052H71.4402L71.2878 99.3087H72.0428C72.5094 99.3092 72.8221 99.5507 72.8565 99.9416ZM72.4476 99.9416C72.4307 99.7499 72.2962 99.6378 72.0492 99.6378H71.7205L71.7733 100.243H72.1025C72.349 100.243 72.4641 100.131 72.4476 99.9416Z" fill="#407BFF"/>
<path d="M74.3181 100.288L74.3849 101.052H74.0213L74.0064 100.885C73.9446 101.007 73.8112 101.072 73.6145 101.072C73.3002 101.072 73.098 100.898 73.0776 100.666C73.0567 100.43 73.2096 100.265 73.618 100.265H73.9272C73.9128 100.098 73.8042 100.001 73.595 100.001C73.4531 100.001 73.3102 100.049 73.2196 100.126L73.0562 99.8545C73.1942 99.7499 73.4063 99.6926 73.6204 99.6926C74.0288 99.6926 74.2823 99.8819 74.3181 100.288ZM73.9591 100.629L73.9471 100.492H73.6802C73.4984 100.492 73.4466 100.559 73.4546 100.649C73.4631 100.746 73.5512 100.811 73.6882 100.811C73.8182 100.811 73.9252 100.751 73.9591 100.629Z" fill="#407BFF"/>
<path d="M74.5945 100.928L74.6996 100.649C74.8261 100.726 75.0123 100.779 75.1772 100.779C75.3564 100.779 75.4197 100.731 75.4132 100.657C75.3943 100.438 74.6035 100.662 74.5567 100.126C74.5347 99.8724 74.7479 99.6931 75.1393 99.6931C75.3241 99.6931 75.5322 99.7354 75.6657 99.8101L75.5606 100.087C75.4222 100.012 75.2877 99.9869 75.1652 99.9869C74.9909 99.9869 74.9212 100.042 74.9272 100.111C74.9471 100.341 75.7374 100.119 75.7837 100.647C75.8056 100.896 75.5895 101.073 75.1881 101.073C74.961 101.072 74.726 101.01 74.5945 100.928Z" fill="#407BFF"/>
<path d="M75.9167 100.928L76.0218 100.649C76.1483 100.726 76.3345 100.779 76.4994 100.779C76.6786 100.779 76.7419 100.731 76.7354 100.657C76.7165 100.438 75.9257 100.662 75.8789 100.126C75.8569 99.8724 76.0701 99.6931 76.4615 99.6931C76.6458 99.6931 76.8539 99.7354 76.9874 99.8101L76.8818 100.087C76.7434 100.012 76.6089 99.9869 76.4869 99.9869C76.3121 99.9869 76.2424 100.042 76.2484 100.111C76.2683 100.341 77.0591 100.119 77.1054 100.647C77.1273 100.896 76.9107 101.073 76.5098 101.073C76.2832 101.072 76.0482 101.01 75.9167 100.928Z" fill="#407BFF"/>
<path d="M79.3902 99.7125L79.0212 101.052H78.6477L78.2732 100.22L78.0342 101.052H77.6602L77.0591 99.7125H77.4256L77.8215 100.619L78.0715 99.7125H78.4007L78.7991 100.619L79.0466 99.7125H79.3902Z" fill="#407BFF"/>
<path d="M79.4918 100.382C79.4565 99.979 79.7428 99.6926 80.1691 99.6926C80.5954 99.6926 80.9296 99.979 80.9649 100.382C81.0003 100.786 80.7164 101.072 80.2901 101.072C79.8638 101.072 79.5272 100.786 79.4918 100.382ZM80.571 100.382C80.5506 100.151 80.3917 100.011 80.197 100.011C80.0023 100.011 79.8653 100.151 79.8853 100.382C79.9057 100.614 80.067 100.753 80.2617 100.753C80.4565 100.753 80.5914 100.614 80.571 100.382Z" fill="#407BFF"/>
<path d="M81.9943 99.6926L82.0257 100.051C81.9928 100.049 81.9679 100.046 81.938 100.046C81.7234 100.046 81.5919 100.163 81.6143 100.42L81.6696 101.053H81.2807L81.1636 99.713H81.5351L81.5506 99.8898C81.6337 99.7599 81.7876 99.6926 81.9943 99.6926Z" fill="#407BFF"/>
<path d="M83.5361 99.2046L83.6975 101.053H83.3264L83.313 100.898C83.2258 101.015 83.0889 101.073 82.9096 101.073C82.5306 101.073 82.2154 100.804 82.1786 100.383C82.1417 99.9621 82.4101 99.6931 82.7891 99.6931C82.9534 99.6931 83.0979 99.7454 83.2044 99.855L83.1477 99.2046H83.5361ZM83.2577 100.382C83.2373 100.151 83.0759 100.011 82.8837 100.011C82.6895 100.011 82.5521 100.151 82.572 100.382C82.5924 100.614 82.7542 100.753 82.9485 100.753C83.1407 100.753 83.2781 100.614 83.2577 100.382Z" fill="#407BFF"/>
<path d="M141.045 107.834H131.216C129.356 107.834 127.715 106.326 127.552 104.465C127.389 102.604 128.766 101.096 130.626 101.096H140.455C142.316 101.096 143.956 102.604 144.119 104.465C144.283 106.326 142.906 107.834 141.045 107.834Z" fill="#407BFF"/>
<path d="M132.692 105.19L132.802 104.886C132.959 104.993 133.185 105.068 133.394 105.068C133.633 105.068 133.723 104.988 133.714 104.881C133.686 104.555 132.691 104.779 132.634 104.132C132.608 103.836 132.826 103.589 133.322 103.589C133.541 103.589 133.77 103.641 133.941 103.743L133.843 104.05C133.673 103.958 133.502 103.913 133.347 103.913C133.108 103.913 133.024 104.002 133.034 104.112C133.062 104.433 134.057 104.211 134.113 104.851C134.138 105.143 133.919 105.392 133.42 105.392C133.143 105.392 132.856 105.31 132.692 105.19Z" fill="white"/>
<path d="M135.525 104.597L135.591 105.362H135.228L135.213 105.195C135.152 105.317 135.018 105.382 134.821 105.382C134.507 105.382 134.304 105.207 134.284 104.976C134.263 104.739 134.416 104.575 134.825 104.575H135.134C135.12 104.408 135.011 104.311 134.802 104.311C134.66 104.311 134.517 104.358 134.427 104.436L134.263 104.164C134.401 104.06 134.613 104.002 134.828 104.002C135.236 104.002 135.489 104.192 135.525 104.597ZM135.166 104.939L135.154 104.802H134.887C134.705 104.802 134.654 104.869 134.661 104.958C134.67 105.056 134.757 105.12 134.895 105.12C135.025 105.12 135.131 105.061 135.166 104.939Z" fill="white"/>
<path d="M137.13 104.022L136.682 105.362H136.281L135.6 104.022H136.001L136.452 104.934L136.757 104.022H137.13Z" fill="white"/>
<path d="M138.625 104.802H137.611C137.663 104.969 137.814 105.071 138.018 105.071C138.16 105.071 138.259 105.028 138.343 104.941L138.57 105.166C138.457 105.308 138.277 105.382 138.035 105.382C137.571 105.382 137.244 105.091 137.209 104.693C137.175 104.292 137.456 104.003 137.864 104.003C138.258 104.003 138.585 104.267 138.623 104.698C138.626 104.727 138.625 104.769 138.625 104.802ZM137.586 104.575H138.246C138.204 104.406 138.068 104.296 137.893 104.296C137.716 104.296 137.598 104.403 137.586 104.575Z" fill="white"/>
<path d="M159.742 107.834H149.913C148.053 107.834 146.412 106.326 146.25 104.465C146.087 102.604 147.463 101.096 149.324 101.096H159.153C161.013 101.096 162.654 102.604 162.817 104.465C162.979 106.326 161.603 107.834 159.742 107.834Z" fill="#407BFF"/>
<path d="M148.696 104.49C148.65 103.965 149.021 103.589 149.564 103.589C149.865 103.589 150.127 103.698 150.309 103.898L150.07 104.137C149.941 104.002 149.788 103.933 149.614 103.933C149.287 103.933 149.076 104.161 149.105 104.49C149.134 104.819 149.385 105.049 149.712 105.049C149.886 105.049 150.027 104.979 150.133 104.842L150.413 105.081C150.266 105.283 150.024 105.392 149.72 105.392C149.178 105.392 148.741 105.016 148.696 104.49Z" fill="white"/>
<path d="M150.473 104.692C150.438 104.289 150.724 104.002 151.151 104.002C151.577 104.002 151.911 104.289 151.946 104.692C151.982 105.096 151.698 105.382 151.272 105.382C150.845 105.382 150.509 105.095 150.473 104.692ZM151.553 104.692C151.532 104.46 151.374 104.321 151.179 104.321C150.984 104.321 150.847 104.46 150.868 104.692C150.888 104.924 151.049 105.063 151.244 105.063C151.438 105.063 151.573 104.924 151.553 104.692Z" fill="white"/>
<path d="M153.567 104.595L153.634 105.362H153.245L153.183 104.655C153.164 104.438 153.056 104.338 152.884 104.338C152.697 104.338 152.573 104.453 152.594 104.7L152.652 105.362H152.263L152.146 104.023H152.518L152.531 104.179C152.626 104.065 152.777 104.002 152.959 104.002C153.275 104.002 153.531 104.187 153.567 104.595Z" fill="white"/>
<path d="M154.843 105.297C154.768 105.354 154.653 105.381 154.533 105.381C154.217 105.381 154.018 105.219 153.991 104.901L153.942 104.35H153.736L153.71 104.052H153.916L153.888 103.725H154.276L154.305 104.052H154.639L154.665 104.35H154.331L154.379 104.896C154.389 105.01 154.456 105.072 154.561 105.072C154.618 105.072 154.674 105.055 154.714 105.023L154.843 105.297Z" fill="white"/>
<path d="M154.867 103.618C154.856 103.496 154.945 103.402 155.09 103.402C155.234 103.402 155.339 103.491 155.35 103.611C155.361 103.74 155.272 103.835 155.128 103.835C154.983 103.835 154.878 103.74 154.867 103.618ZM154.949 104.022H155.338L155.455 105.362H155.066L154.949 104.022Z" fill="white"/>
<path d="M157.12 104.595L157.187 105.362H156.798L156.737 104.655C156.718 104.438 156.609 104.338 156.437 104.338C156.251 104.338 156.126 104.453 156.147 104.7L156.205 105.362H155.816L155.699 104.023H156.071L156.084 104.179C156.179 104.065 156.331 104.002 156.512 104.002C156.829 104.002 157.084 104.187 157.12 104.595Z" fill="white"/>
<path d="M158.77 104.022L158.887 105.362H158.518L158.504 105.202C158.412 105.32 158.268 105.382 158.104 105.382C157.767 105.382 157.514 105.193 157.478 104.779L157.412 104.022H157.801L157.862 104.722C157.881 104.946 157.99 105.046 158.162 105.046C158.341 105.046 158.461 104.931 158.439 104.685L158.381 104.022H158.77Z" fill="white"/>
<path d="M160.504 104.802H159.49C159.542 104.969 159.693 105.071 159.897 105.071C160.039 105.071 160.138 105.028 160.223 104.941L160.449 105.166C160.337 105.308 160.156 105.382 159.914 105.382C159.451 105.382 159.123 105.091 159.089 104.693C159.054 104.292 159.335 104.003 159.743 104.003C160.137 104.003 160.465 104.267 160.502 104.698C160.505 104.727 160.504 104.769 160.504 104.802ZM159.465 104.575H160.125C160.083 104.406 159.947 104.296 159.772 104.296C159.595 104.296 159.478 104.403 159.465 104.575Z" fill="white"/>
<path d="M120.541 89.5613C120.503 89.1251 120.88 88.8134 121.423 88.8134C121.725 88.8134 121.984 88.904 122.163 89.0698L121.921 89.268C121.794 89.156 121.642 89.0982 121.468 89.0982C121.141 89.0982 120.926 89.2884 120.95 89.5613C120.974 89.8343 121.222 90.0245 121.548 90.0245C121.723 90.0245 121.865 89.9667 121.972 89.8532L122.249 90.0514C122.099 90.2187 121.855 90.3098 121.551 90.3098C121.011 90.3093 120.58 89.9971 120.541 89.5613Z" fill="#407BFF"/>
<path d="M122.316 89.7287C122.287 89.394 122.578 89.1565 123.004 89.1565C123.43 89.1565 123.76 89.3945 123.789 89.7287C123.819 90.0633 123.53 90.3009 123.104 90.3009C122.678 90.3009 122.346 90.0633 122.316 89.7287ZM123.395 89.7287C123.379 89.537 123.222 89.4209 123.027 89.4209C122.832 89.4209 122.693 89.537 122.71 89.7287C122.727 89.9209 122.887 90.037 123.081 90.037C123.276 90.0365 123.412 89.9209 123.395 89.7287Z" fill="#407BFF"/>
<path d="M125.411 89.648L125.467 90.2844H125.078L125.027 89.6973C125.011 89.5175 124.904 89.4348 124.732 89.4348C124.545 89.4348 124.419 89.5299 124.437 89.7346L124.485 90.2844H124.096L123.999 89.1724H124.371L124.382 89.3029C124.479 89.2077 124.631 89.1559 124.813 89.1559C125.129 89.1559 125.382 89.3088 125.411 89.648Z" fill="#407BFF"/>
<path d="M126.677 90.2306C126.601 90.278 126.486 90.3009 126.366 90.3009C126.049 90.3009 125.854 90.1669 125.83 89.9025L125.79 89.4458H125.583L125.562 89.1978H125.768L125.745 88.9269H126.133L126.157 89.1978H126.491L126.512 89.4458H126.179L126.219 89.8985C126.227 89.9931 126.294 90.0449 126.398 90.0449C126.456 90.0449 126.512 90.0304 126.552 90.0036L126.677 90.2306Z" fill="#407BFF"/>
<path d="M128.031 89.65L128.086 90.2844H127.722L127.71 90.146C127.647 90.2471 127.512 90.3009 127.315 90.3009C127.001 90.3009 126.801 90.1564 126.785 89.9642C126.767 89.7675 126.923 89.631 127.332 89.631H127.641C127.629 89.4926 127.522 89.4119 127.313 89.4119C127.171 89.4119 127.027 89.4513 126.935 89.5155L126.776 89.2899C126.915 89.2033 127.128 89.1555 127.343 89.1555C127.75 89.156 128.001 89.3133 128.031 89.65ZM127.667 89.9333L127.657 89.8193H127.39C127.208 89.8193 127.155 89.8751 127.162 89.9498C127.169 90.0304 127.256 90.0842 127.393 90.0842C127.522 90.0842 127.63 90.0344 127.667 89.9333Z" fill="#407BFF"/>
<path d="M128.302 89.7287C128.273 89.394 128.564 89.1565 129 89.1565C129.282 89.1565 129.512 89.2581 129.625 89.4399L129.336 89.5743C129.254 89.4692 129.143 89.4214 129.021 89.4214C128.824 89.4214 128.679 89.5355 128.696 89.7292C128.713 89.9234 128.878 90.0375 129.075 90.0375C129.197 90.0375 129.3 89.9921 129.363 89.8846L129.676 90.021C129.595 90.1988 129.382 90.3019 129.1 90.3019C128.664 90.3009 128.332 90.0633 128.302 89.7287Z" fill="#407BFF"/>
<path d="M130.803 90.2306C130.727 90.278 130.612 90.3009 130.492 90.3009C130.175 90.3009 129.98 90.1669 129.956 89.9025L129.916 89.4458H129.709L129.687 89.1978H129.894L129.87 88.9269H130.259L130.282 89.1978H130.616L130.637 89.4458H130.304L130.344 89.8985C130.352 89.9931 130.419 90.0449 130.523 90.0449C130.581 90.0449 130.637 90.0304 130.677 90.0036L130.803 90.2306Z" fill="#407BFF"/>
<path d="M133.231 88.8383L133.357 90.2849H133.026L132.08 89.4065L132.156 90.2849H131.757L131.631 88.8383H131.965L132.909 89.7167L132.832 88.8383H133.231Z" fill="#407BFF"/>
<path d="M134.995 89.1724L135.092 90.2844H134.724L134.713 90.1519C134.618 90.2491 134.473 90.3004 134.309 90.3004C133.972 90.3004 133.722 90.1435 133.692 89.8004L133.637 89.1719H134.026L134.077 89.7525C134.093 89.9388 134.2 90.0215 134.372 90.0215C134.552 90.0215 134.673 89.9264 134.655 89.7217L134.607 89.1714H134.995V89.1724Z" fill="#407BFF"/>
<path d="M137.663 89.648L137.718 90.2844H137.329L137.278 89.6973C137.262 89.5175 137.158 89.4348 137.001 89.4348C136.827 89.4348 136.712 89.528 136.73 89.7262L136.779 90.2839H136.39L136.338 89.6968C136.323 89.517 136.223 89.4343 136.061 89.4343C135.889 89.4343 135.775 89.5275 135.792 89.7257L135.841 90.2834H135.452L135.355 89.1714H135.726L135.737 89.2994C135.829 89.2048 135.974 89.155 136.146 89.155C136.333 89.155 136.498 89.2152 136.603 89.3372C136.701 89.2232 136.869 89.155 137.071 89.155C137.39 89.156 137.633 89.3089 137.663 89.648Z" fill="#407BFF"/>
<path d="M139.476 89.7287C139.507 90.0783 139.235 90.3009 138.859 90.3009C138.68 90.3009 138.531 90.2536 138.425 90.1565L138.436 90.2844H138.064L137.93 88.7511H138.319L138.366 89.2904C138.458 89.1998 138.591 89.156 138.758 89.156C139.135 89.156 139.446 89.3796 139.476 89.7287ZM139.083 89.7287C139.066 89.5369 138.909 89.4209 138.714 89.4209C138.52 89.4209 138.383 89.5369 138.4 89.7287C138.417 89.9209 138.574 90.0369 138.768 90.0369C138.963 90.0364 139.1 89.9209 139.083 89.7287Z" fill="#407BFF"/>
<path d="M141.048 89.8193H140.034C140.083 89.9578 140.232 90.0429 140.437 90.0429C140.579 90.0429 140.678 90.0076 140.764 89.9354L140.987 90.1211C140.873 90.2386 140.691 90.3009 140.449 90.3009C139.986 90.3009 139.663 90.0594 139.634 89.7287C139.605 89.3965 139.891 89.1565 140.3 89.1565C140.694 89.1565 141.017 89.3756 141.048 89.7332C141.05 89.7576 141.048 89.7929 141.048 89.8193ZM140.012 89.6316H140.673C140.633 89.4911 140.498 89.4005 140.323 89.4005C140.147 89.4005 140.027 89.4887 140.012 89.6316Z" fill="#407BFF"/>
<path d="M142.088 89.1559L142.114 89.4538C142.081 89.4518 142.056 89.4498 142.026 89.4498C141.811 89.4498 141.678 89.5469 141.696 89.7595L141.742 90.2844H141.353L141.256 89.1724H141.628L141.641 89.3193C141.726 89.2122 141.881 89.1559 142.088 89.1559Z" fill="#407BFF"/>
<path d="M69.2505 77.5854L69.3655 77.3334C69.5204 77.4221 69.745 77.4843 69.9541 77.4843C70.1932 77.4843 70.2853 77.4181 70.2773 77.3295C70.2534 77.0586 69.2554 77.2448 69.2086 76.7075C69.1867 76.4615 69.4083 76.2568 69.9043 76.2568C70.1234 76.2568 70.3515 76.3001 70.5214 76.3848L70.4188 76.6387C70.2504 76.5625 70.0801 76.5252 69.9252 76.5252C69.6862 76.5252 69.6006 76.5994 69.6085 76.6905C69.6319 76.957 70.6299 76.7732 70.6767 77.3041C70.6976 77.5456 70.474 77.7523 69.9755 77.7523C69.6987 77.7528 69.4138 77.685 69.2505 77.5854Z" fill="#407BFF"/>
<path d="M71.8211 77.6746C71.7454 77.7219 71.6304 77.7448 71.5104 77.7448C71.1937 77.7448 70.998 77.6103 70.9745 77.3459L70.9342 76.8887H70.727L70.7056 76.6407H70.9123L70.8889 76.3703H71.2778L71.3012 76.6407H71.6354L71.6568 76.8887H71.3231L71.363 77.3414C71.3714 77.4365 71.4382 77.4878 71.5428 77.4878C71.6 77.4878 71.6563 77.4734 71.6961 77.4465L71.8211 77.6746Z" fill="#407BFF"/>
<path d="M73.1752 77.0939L73.2305 77.7284H72.8669L72.8545 77.5899C72.7912 77.6915 72.6563 77.7453 72.4591 77.7453C72.1453 77.7453 71.9456 77.6004 71.9287 77.4087C71.9113 77.2119 72.0666 77.076 72.4755 77.076H72.7848C72.7728 76.9376 72.6657 76.8569 72.4566 76.8569C72.3146 76.8569 72.1707 76.8962 72.0796 76.96L71.9202 76.7349C72.0597 76.6482 72.2728 76.6004 72.487 76.6004C72.8948 76.5999 73.1458 76.7568 73.1752 77.0939ZM72.8111 77.3773L72.8012 77.2632H72.5343C72.3525 77.2632 72.2997 77.319 72.3067 77.3937C72.3136 77.4744 72.4003 77.5277 72.5377 77.5277C72.6672 77.5277 72.7748 77.4784 72.8111 77.3773Z" fill="#407BFF"/>
<path d="M74.4406 77.6746C74.3649 77.7219 74.2499 77.7448 74.1298 77.7448C73.8131 77.7448 73.6174 77.6103 73.594 77.3459L73.5537 76.8887H73.347L73.3251 76.6407H73.5322L73.5088 76.3703H73.8978L73.9212 76.6407H74.2548L74.2767 76.8887H73.9431L73.9829 77.3414C73.9914 77.4365 74.0581 77.4878 74.1627 77.4878C74.22 77.4878 74.2763 77.4734 74.3161 77.4465L74.4406 77.6746Z" fill="#407BFF"/>
<path d="M75.8868 77.2633H74.8723C74.9221 77.4017 75.0711 77.4864 75.2757 77.4864C75.4177 77.4864 75.5168 77.4515 75.6024 77.3788L75.8255 77.565C75.7115 77.6826 75.5297 77.7448 75.2882 77.7448C74.8245 77.7448 74.5018 77.5033 74.473 77.1726C74.4441 76.8399 74.7294 76.5999 75.1383 76.5999C75.5322 76.5999 75.8554 76.819 75.8868 77.1766C75.8883 77.2015 75.8868 77.2364 75.8868 77.2633ZM74.8504 77.0755H75.5108C75.4709 76.9351 75.336 76.8439 75.1617 76.8439C74.9849 76.8439 74.8654 76.9326 74.8504 77.0755Z" fill="#407BFF"/>
<path d="M117.632 55.0515H118.036L118.16 56.4663H119.035L119.064 56.795H117.786L117.632 55.0515Z" fill="#407BFF"/>
<path d="M120.396 56.0305L120.462 56.795H120.098L120.084 56.6281C120.022 56.7501 119.888 56.8149 119.691 56.8149C119.377 56.8149 119.175 56.6406 119.155 56.409C119.134 56.1725 119.286 56.0081 119.695 56.0081H120.005C119.99 55.8413 119.882 55.7442 119.672 55.7442C119.531 55.7442 119.388 55.7915 119.297 55.8687L119.134 55.5973C119.272 55.4927 119.484 55.4354 119.698 55.4354C120.107 55.4349 120.36 55.6242 120.396 56.0305ZM120.036 56.3712L120.025 56.2342H119.758C119.576 56.2342 119.524 56.3014 119.532 56.3911C119.54 56.4882 119.629 56.5529 119.766 56.5529C119.896 56.5534 120.003 56.4932 120.036 56.3712Z" fill="#407BFF"/>
<path d="M120.672 56.67L120.777 56.3911C120.904 56.4683 121.09 56.5206 121.255 56.5206C121.434 56.5206 121.497 56.4733 121.491 56.3986C121.472 56.1794 120.681 56.4035 120.634 55.8682C120.612 55.6142 120.825 55.4349 121.217 55.4349C121.402 55.4349 121.61 55.4773 121.743 55.552L121.638 55.8284C121.499 55.7537 121.365 55.7288 121.243 55.7288C121.068 55.7288 120.998 55.7835 121.004 55.8533C121.025 56.0823 121.815 55.8607 121.861 56.3886C121.883 56.6376 121.666 56.8144 121.265 56.8144C121.038 56.8144 120.804 56.7521 120.672 56.67Z" fill="#407BFF"/>
<path d="M122.994 56.7302C122.919 56.7875 122.804 56.8144 122.684 56.8144C122.368 56.8144 122.169 56.6525 122.142 56.3338L122.093 55.7835H121.886L121.86 55.4847H122.067L122.038 55.1585H122.427L122.456 55.4847H122.789L122.815 55.7835H122.482L122.529 56.3288C122.54 56.4433 122.607 56.5056 122.712 56.5056C122.77 56.5056 122.825 56.4882 122.865 56.4558L122.994 56.7302Z" fill="#407BFF"/>
<path d="M125.397 55.0515L125.549 56.795H125.218L124.255 55.7362L124.348 56.795H123.949L123.796 55.0515H124.13L125.09 56.1102L124.998 55.0515H125.397Z" fill="#407BFF"/>
<path d="M127.054 56.0305L127.121 56.795H126.757L126.743 56.6281C126.681 56.7501 126.547 56.8149 126.35 56.8149C126.036 56.8149 125.834 56.6406 125.813 56.409C125.792 56.1725 125.945 56.0081 126.354 56.0081H126.663C126.649 55.8413 126.54 55.7442 126.331 55.7442C126.189 55.7442 126.046 55.7915 125.956 55.8687L125.792 55.5973C125.93 55.4927 126.142 55.4354 126.357 55.4354C126.765 55.4349 127.018 55.6242 127.054 56.0305ZM126.695 56.3712L126.683 56.2342H126.416C126.234 56.2342 126.183 56.3014 126.19 56.3911C126.199 56.4882 126.286 56.5529 126.424 56.5529C126.553 56.5534 126.66 56.4932 126.695 56.3712Z" fill="#407BFF"/>
<path d="M129.669 56.0276L129.736 56.7945H129.347L129.285 56.0873C129.266 55.8707 129.161 55.7711 129.003 55.7711C128.829 55.7711 128.717 55.8831 128.738 56.1222L128.796 56.7945H128.407L128.346 56.0873C128.327 55.8707 128.226 55.7711 128.064 55.7711C127.891 55.7711 127.779 55.8831 127.8 56.1222L127.859 56.7945H127.47L127.353 55.4549H127.725L127.738 55.6092C127.828 55.4947 127.972 55.4349 128.144 55.4349C128.331 55.4349 128.496 55.5076 128.605 55.6541C128.7 55.5176 128.867 55.4349 129.069 55.4349C129.388 55.4349 129.633 55.6192 129.669 56.0276Z" fill="#407BFF"/>
<path d="M131.355 56.2342H130.34C130.392 56.401 130.543 56.5031 130.747 56.5031C130.889 56.5031 130.988 56.4608 131.073 56.3737L131.299 56.5983C131.187 56.7402 131.007 56.8149 130.765 56.8149C130.301 56.8149 129.974 56.5236 129.939 56.1252C129.904 55.7243 130.186 55.4354 130.594 55.4354C130.988 55.4354 131.315 55.6994 131.353 56.1306C131.356 56.1595 131.354 56.2018 131.355 56.2342ZM130.315 56.0076H130.976C130.933 55.8383 130.797 55.7287 130.622 55.7287C130.445 55.7287 130.328 55.8363 130.315 56.0076Z" fill="#407BFF"/>
<path d="M114.625 62.3302H67.8272L67.4751 58.3069H114.273L114.625 62.3302Z" fill="white"/>
<path d="M116.448 83.1705H69.6504L69.2983 79.1472H116.096L116.448 83.1705Z" fill="white"/>
<path d="M117.514 95.3531H70.7161L70.3645 91.3297H117.163L117.514 95.3531Z" fill="white"/>
<path d="M118.487 106.477H71.6897L71.3376 102.454H118.136L118.487 106.477Z" fill="white"/>
<path d="M167.839 95.3531H121.041L120.689 91.3297H167.487L167.839 95.3531Z" fill="white"/>
<path d="M165.82 72.2708H68.6967L68.3446 68.2469H165.468L165.82 72.2708Z" fill="white"/>
<path d="M164.95 62.3302H118.152L117.8 58.3069H164.598L164.95 62.3302Z" fill="white"/>
<path d="M131.705 94.9263H128.098L127.807 91.6091H131.415L131.705 94.9263Z" fill="#E0E0E0"/>
<path d="M130.867 92.7022L129.837 93.9806L128.584 92.7022H130.867Z" fill="#263238"/>
<path d="M123.176 93.3417H122.742L122.779 93.765H122.457L122.42 93.3417H121.989L121.963 93.0374H122.394L122.357 92.6141H122.678L122.715 93.0374H123.149L123.176 93.3417Z" fill="#263238"/>
<path d="M124.679 93.5284C124.705 93.8223 124.501 94.0912 124.006 94.0912C123.761 94.0912 123.504 94.0239 123.323 93.9044L123.453 93.5957C123.594 93.6953 123.784 93.7525 123.966 93.7525C124.168 93.7525 124.285 93.6709 124.273 93.5284C124.261 93.3965 124.157 93.3143 123.927 93.3143H123.743L123.72 93.0479L124.043 92.642H123.3L123.272 92.3183H124.493L124.516 92.5797L124.161 93.0279C124.48 93.0772 124.656 93.2715 124.679 93.5284Z" fill="#263238"/>
<path d="M126.173 93.7326L126.202 94.0613H124.884L124.861 93.7998L125.479 93.1649C125.62 93.018 125.64 92.9283 125.633 92.8437C125.621 92.7067 125.518 92.627 125.334 92.627C125.185 92.627 125.062 92.6843 124.988 92.8013L124.677 92.6121C124.795 92.4154 125.028 92.2884 125.342 92.2884C125.731 92.2884 126.008 92.4876 126.035 92.8038C126.05 92.9731 126.016 93.1275 125.792 93.3541L125.424 93.7331L126.173 93.7326Z" fill="#263238"/>
<path d="M157.637 94.0802H133.851L133.731 92.7022H157.517L157.637 94.0802Z" fill="#263238"/>
<path d="M95.629 94.0802H71.8436L71.7225 92.7022H95.5085L95.629 94.0802Z" fill="#263238"/>
<path d="M81.6601 81.8478H70.7733L70.6523 80.4698H81.5396L81.6601 81.8478Z" fill="#263238"/>
<path d="M79.837 61.0075H68.9497L68.8292 59.6295H79.7164L79.837 61.0075Z" fill="#263238"/>
<path d="M130.374 61.0075H119.488L119.367 59.6295H130.254L130.374 61.0075Z" fill="#263238"/>
<path d="M155.614 70.9476H69.8197L69.6992 69.5701H155.493L155.614 70.9476Z" fill="#263238"/>
<path d="M74.222 104.559L74.6204 104.765L74.4745 105.051L74.0711 104.825L74.1149 105.247H73.7868L73.7529 104.821L73.3893 105.051L73.1966 104.765L73.5592 104.559L73.1608 104.35L73.3032 104.064L73.7071 104.294L73.6662 103.868H73.9944L74.0248 104.294L74.3883 104.064L74.5846 104.35L74.222 104.559Z" fill="#263238"/>
<path d="M76.7215 104.559L77.1199 104.765L76.9739 105.051L76.5706 104.825L76.6144 105.247H76.2862L76.2524 104.821L75.8888 105.051L75.6961 104.765L76.0581 104.559L75.6597 104.35L75.8022 104.064L76.206 104.294L76.1652 103.868H76.4934L76.5233 104.294L76.8868 104.064L77.0825 104.35L76.7215 104.559Z" fill="#263238"/>
<path d="M79.2209 104.559L79.6193 104.765L79.4734 105.051L79.07 104.825L79.1138 105.247H78.7856L78.7518 104.821L78.3882 105.051L78.1955 104.765L78.5581 104.559L78.1597 104.35L78.3021 104.064L78.706 104.294L78.6651 103.868H78.9933L79.0237 104.294L79.3872 104.064L79.5834 104.35L79.2209 104.559Z" fill="#263238"/>
<path d="M81.7204 104.559L82.1188 104.765L81.9729 105.051L81.5695 104.825L81.6133 105.247H81.2851L81.2513 104.821L80.8877 105.051L80.695 104.765L81.057 104.559L80.6586 104.35L80.8011 104.064L81.2049 104.294L81.1641 103.868H81.4923L81.5227 104.294L81.8862 104.064L82.0819 104.35L81.7204 104.559Z" fill="#263238"/>
<path d="M84.2199 104.559L84.6183 104.765L84.4724 105.051L84.069 104.825L84.1128 105.247H83.7846L83.7508 104.821L83.3872 105.051L83.1945 104.765L83.5565 104.559L83.1581 104.35L83.3006 104.064L83.7044 104.294L83.6641 103.868H83.9923L84.0227 104.294L84.3862 104.064L84.5824 104.35L84.2199 104.559Z" fill="#263238"/>
<path d="M86.7193 104.559L87.1177 104.765L86.9718 105.051L86.5684 104.825L86.6123 105.247H86.2841L86.2502 104.821L85.8867 105.051L85.6939 104.765L86.056 104.559L85.6576 104.35L85.8 104.064L86.2039 104.294L86.1631 103.868H86.4912L86.5216 104.294L86.8852 104.064L87.0809 104.35L86.7193 104.559Z" fill="#263238"/>
<path d="M89.2188 104.559L89.6172 104.765L89.4713 105.051L89.0679 104.825L89.1117 105.247H88.7835L88.7497 104.821L88.3861 105.051L88.1934 104.765L88.5554 104.559L88.157 104.35L88.2995 104.064L88.7033 104.294L88.6625 103.868H88.9907L89.0211 104.294L89.3846 104.064L89.5808 104.35L89.2188 104.559Z" fill="#263238"/>
<path opacity="0.1" d="M66.2246 112.572H174.025L168.046 44.2349H60.2456L66.2246 112.572Z" fill="white"/>
<path opacity="0.1" d="M83.5062 39.1323L104.563 117.886H97.4796L76.6557 39.1323H83.5062Z" fill="white"/>
<path opacity="0.1" d="M72.5751 39.1323L93.6315 117.886H79.5814L58.7576 39.1323H72.5751Z" fill="white"/>
<path d="M72.3011 36.9983L69.2314 37.024L69.2367 37.6595L72.3064 37.6337L72.3011 36.9983Z" fill="#407BFF"/>
<path d="M83.9247 36.901L75.021 36.9758L75.0263 37.6113L83.9301 37.5365L83.9247 36.901Z" fill="#407BFF"/>
<path opacity="0.5" d="M179.196 79.9788C179.355 81.7925 178.014 83.2626 176.2 83.2626C174.386 83.2626 172.788 81.7925 172.629 79.9788C172.47 78.1651 173.811 76.695 175.625 76.695C177.438 76.695 179.037 78.1651 179.196 79.9788Z" fill="black"/>
<path opacity="0.5" d="M62.3208 91.6106C61.9717 91.6106 61.6634 91.3277 61.633 90.9781L59.4513 66.0403C59.4209 65.6912 59.6789 65.4078 60.0285 65.4078C60.3776 65.4078 60.6858 65.6907 60.7162 66.0403L62.8979 90.9781C62.9283 91.3272 62.6699 91.6106 62.3208 91.6106Z" fill="black"/>
<path d="M70.4172 204.187H60.0399L58.887 202.01C56.0858 196.72 54.5768 190.843 54.4832 184.858L54.4752 184.335H75.9813C75.9813 190.742 74.3579 197.044 71.2628 202.654L70.4172 204.187Z" fill="#407BFF"/>
<path opacity="0.7" d="M70.4172 204.187H60.0399L58.887 202.01C56.0858 196.72 54.5768 190.843 54.4832 184.858L54.4752 184.335H75.9813C75.9813 190.742 74.3579 197.044 71.2628 202.654L70.4172 204.187Z" fill="white"/>
<path d="M47.9937 184.762C49.9444 186.076 52.2178 186.766 54.4862 186.732C54.7591 186.728 55.0404 186.711 55.2859 186.575C55.531 186.439 55.7322 186.155 55.7127 185.846C55.6903 185.492 55.407 185.243 55.1455 185.048C53.6849 183.963 52.0958 183.102 50.4359 182.488C49.5963 182.177 48.7382 181.929 47.8697 181.749C47.1725 181.604 46.4275 181.264 45.7229 181.27C45.5884 182.79 46.9713 184.074 47.9937 184.762Z" fill="#407BFF"/>
<path d="M75.6621 176.028C76.6352 174.78 78.0351 173.972 79.4962 173.816C79.5814 173.807 79.6745 173.802 79.7442 173.858C79.8378 173.932 79.8513 174.081 79.8538 174.21C79.8896 176.169 79.2945 178.134 78.2049 179.654C77.7024 180.354 77.0759 180.976 76.3175 181.249C75.7687 181.446 75.1138 181.444 74.5914 181.146C74.0675 180.847 74.1631 180.419 74.2169 179.829C74.3444 178.428 74.8379 177.085 75.6621 176.028Z" fill="#407BFF"/>
<path opacity="0.2" d="M75.6621 176.028C76.6352 174.78 78.0351 173.972 79.4962 173.816C79.5814 173.807 79.6745 173.802 79.7442 173.858C79.8378 173.932 79.8513 174.081 79.8538 174.21C79.8896 176.169 79.2945 178.134 78.2049 179.654C77.7024 180.354 77.0759 180.976 76.3175 181.249C75.7687 181.446 75.1138 181.444 74.5914 181.146C74.0675 180.847 74.1631 180.419 74.2169 179.829C74.3444 178.428 74.8379 177.085 75.6621 176.028Z" fill="black"/>
<path d="M66.2758 176.917C66.9964 175.63 67.5248 173.974 67.5482 172.221C67.5681 170.752 67.2329 169.317 66.7524 168.08C66.2718 166.843 65.6493 165.777 65.0308 164.72C64.8301 167.905 64.7718 171.114 64.857 174.313C64.8749 174.992 64.9038 175.696 65.1 176.294C65.2962 176.893 65.7081 177.353 66.1094 177.204L66.2758 176.917Z" fill="#407BFF"/>
<path d="M69.0592 167.179C67.7016 169.187 66.8485 172.098 66.7375 175.103C66.6981 176.164 66.7549 177.273 67.0676 178.202C67.3804 179.131 67.9959 179.839 68.6368 179.742C69.3062 179.641 69.8241 178.741 70.2021 177.822C70.83 176.296 71.593 174.119 71.2354 172.238C70.8519 170.225 70.0945 168.422 69.0592 167.179Z" fill="#407BFF"/>
<path opacity="0.1" d="M69.0592 167.179C67.7016 169.187 66.8485 172.098 66.7375 175.103C66.6981 176.164 66.7549 177.273 67.0676 178.202C67.3804 179.131 67.9959 179.839 68.6368 179.742C69.3062 179.641 69.8241 178.741 70.2021 177.822C70.83 176.296 71.593 174.119 71.2354 172.238C70.8519 170.225 70.0945 168.422 69.0592 167.179Z" fill="black"/>
<path d="M73.1786 178.378C74.2861 177.346 74.7388 175.618 74.689 173.992C74.6392 172.367 74.1552 170.804 73.6766 169.271C72.5969 170.751 71.7165 172.42 71.076 174.199C70.8305 174.881 70.6179 175.593 70.6034 176.329C70.589 177.065 70.7971 177.836 71.2802 178.327C71.7638 178.818 72.5481 178.949 73.0715 178.515C73.0098 178.551 72.948 178.588 72.8863 178.625L73.1786 178.378Z" fill="#407BFF"/>
<g opacity="0.2">
<path d="M73.1786 178.378C74.2861 177.346 74.7388 175.618 74.689 173.992C74.6392 172.367 74.1552 170.804 73.6766 169.271C72.5969 170.751 71.7165 172.42 71.076 174.199C70.8305 174.881 70.6179 175.593 70.6034 176.329C70.589 177.065 70.7971 177.836 71.2802 178.327C71.7638 178.818 72.5481 178.949 73.0715 178.515C73.0098 178.551 72.948 178.588 72.8863 178.625L73.1786 178.378Z" fill="black"/>
</g>
<path d="M75.7049 172C75.9813 174.008 76.2527 176.064 75.9136 178.059C75.5744 180.054 74.5008 182.011 72.8215 182.714C72.1228 183.007 71.2239 183.01 70.7553 182.353C70.4401 181.911 70.4087 181.276 70.5506 180.73C70.6926 180.185 70.9839 179.708 71.2702 179.242C72.6104 177.064 75.4021 171.784 75.6865 172.005L75.7049 172Z" fill="#407BFF"/>
<path d="M75.7049 172C75.9813 174.008 76.2527 176.064 75.9136 178.059C75.5744 180.054 74.5008 182.011 72.8215 182.714C72.1228 183.007 71.2239 183.01 70.7553 182.353C70.4401 181.911 70.4087 181.276 70.5506 180.73C70.6926 180.185 70.9839 179.708 71.2702 179.242C72.6104 177.064 75.4021 171.784 75.6865 172.005L75.7049 172Z" fill="#407BFF"/>
<g opacity="0.1">
<path d="M75.7049 172C75.9813 174.008 76.2527 176.064 75.9136 178.059C75.5744 180.054 74.5008 182.011 72.8215 182.714C72.1228 183.007 71.2239 183.01 70.7553 182.353C70.4401 181.911 70.4087 181.276 70.5506 180.73C70.6926 180.185 70.9839 179.708 71.2702 179.242C72.6104 177.064 75.4021 171.784 75.6865 172.005L75.7049 172Z" fill="black"/>
</g>
<path d="M70.5153 174.713C71.1712 175.904 71.7224 177.191 71.9485 178.571C72.1746 179.952 72.0526 181.438 71.4341 182.654C70.8156 183.87 69.6582 184.765 68.4217 184.775C67.4655 184.782 66.5293 184.203 66.0109 183.293C65.4392 182.288 65.857 181.376 66.2933 180.393C67.2838 178.158 68.9272 176.401 70.5153 174.713Z" fill="#407BFF"/>
<path d="M82.8418 178.425C83.1844 178.982 83.1714 179.748 82.9413 180.375C82.7113 181.002 82.2934 181.514 81.8582 181.98C78.9001 185.148 74.6955 186.757 70.6512 186.267C70.3146 186.226 69.9341 186.139 69.7598 185.81C69.5676 185.447 69.7409 184.951 70.0362 184.692C70.3315 184.433 70.714 184.348 71.079 184.259C73.1497 183.752 75.1292 182.839 76.938 181.589C78.7512 180.336 80.9065 179.47 82.8418 178.425Z" fill="#407BFF"/>
<path opacity="0.1" d="M82.8418 178.425C83.1844 178.982 83.1714 179.748 82.9413 180.375C82.7113 181.002 82.2934 181.514 81.8582 181.98C78.9001 185.148 74.6955 186.757 70.6512 186.267C70.3146 186.226 69.9341 186.139 69.7598 185.81C69.5676 185.447 69.7409 184.951 70.0362 184.692C70.3315 184.433 70.714 184.348 71.079 184.259C73.1497 183.752 75.1292 182.839 76.938 181.589C78.7512 180.336 80.9065 179.47 82.8418 178.425Z" fill="black"/>
<path d="M75.6915 178.42C75.9913 177.975 76.3683 177.46 76.8598 177.516C77.2408 177.559 77.5211 177.946 77.679 178.342C78.3199 179.949 77.5535 181.917 76.3284 183.003C75.1034 184.089 73.5312 184.501 72.0138 184.883C71.4934 185.015 70.9729 185.146 70.4525 185.277C69.833 185.434 68.59 185.225 69.1433 184.245C69.5138 183.588 70.7548 183.214 71.3295 182.825C73.0113 181.689 74.5028 180.187 75.6915 178.42Z" fill="#407BFF"/>
<path d="M82.1301 184.762C80.1795 186.076 77.9061 186.766 75.6377 186.732C75.3648 186.728 75.0834 186.711 74.8379 186.575C74.5929 186.439 74.3917 186.155 74.4111 185.846C74.4336 185.492 74.7169 185.243 74.9784 185.048C76.439 183.963 78.0281 183.102 79.688 182.488C80.5276 182.177 81.3856 181.929 82.2542 181.749C82.9514 181.604 83.6964 181.264 84.401 181.27C84.5355 182.79 83.152 184.074 82.1301 184.762Z" fill="#407BFF"/>
<path d="M75.8404 190.778C77.7547 190.64 79.5903 189.766 81.167 188.525C81.4678 188.289 81.797 187.91 81.6635 187.523C81.5699 187.251 81.2925 187.138 81.046 187.055C79.2348 186.448 77.3842 185.836 75.4973 185.918C74.6063 185.957 73.7124 186.172 72.8967 186.586C72.2598 186.909 70.9396 187.702 70.7533 188.559C70.5606 189.445 72.2145 190.091 72.823 190.328C73.7886 190.705 74.823 190.852 75.8404 190.778Z" fill="#407BFF"/>
<path opacity="0.1" d="M75.8404 190.778C77.7547 190.64 79.5903 189.766 81.167 188.525C81.4678 188.289 81.797 187.91 81.6635 187.523C81.5699 187.251 81.2925 187.138 81.046 187.055C79.2348 186.448 77.3842 185.836 75.4973 185.918C74.6063 185.957 73.7124 186.172 72.8967 186.586C72.2598 186.909 70.9396 187.702 70.7533 188.559C70.5606 189.445 72.2145 190.091 72.823 190.328C73.7886 190.705 74.823 190.852 75.8404 190.778Z" fill="black"/>
<path d="M68.2833 186.038C70.1458 185.612 72.0651 185.508 73.955 185.731C74.4246 185.786 74.9037 185.866 75.318 186.122C75.7323 186.379 76.0735 186.848 76.0889 187.383C76.1043 187.923 75.7871 188.418 75.3882 188.711C74.9893 189.004 74.5162 189.133 74.0536 189.254C72.6886 189.614 71.2882 189.963 69.8963 189.774C68.8734 189.635 67.6707 189.137 67.0089 188.189C66.1503 186.961 67.2818 186.267 68.2833 186.038Z" fill="#407BFF"/>
<path opacity="0.1" d="M68.2833 186.038C70.1458 185.612 72.0651 185.508 73.955 185.731C74.4246 185.786 74.9037 185.866 75.318 186.122C75.7323 186.379 76.0735 186.848 76.0889 187.383C76.1043 187.923 75.7871 188.418 75.3882 188.711C74.9893 189.004 74.5162 189.133 74.0536 189.254C72.6886 189.614 71.2882 189.963 69.8963 189.774C68.8734 189.635 67.6707 189.137 67.0089 188.189C66.1503 186.961 67.2818 186.267 68.2833 186.038Z" fill="white"/>
<path d="M62.6016 186.021C62.2405 185.746 61.8805 185.435 61.6753 185C61.4701 184.565 61.4607 183.974 61.7625 183.619C62.1942 183.111 64.5966 182.39 65.2001 182.25C65.7041 182.133 66.2181 182.346 66.6941 182.567C67.3824 182.887 68.0617 183.231 68.7305 183.599C69.0636 183.782 69.4018 183.978 69.6568 184.282C69.9117 184.587 70.0731 185.026 69.9795 185.433C69.848 186.007 69.2967 186.299 68.7992 186.478C67.5139 186.939 66.1603 187.153 64.8132 187.109C64.9058 187.088 63.1992 186.478 62.6016 186.021Z" fill="#407BFF"/>
<g opacity="0.1">
<path d="M62.6016 186.021C62.2405 185.746 61.8805 185.435 61.6753 185C61.4701 184.565 61.4607 183.974 61.7625 183.619C62.1942 183.111 64.5966 182.39 65.2001 182.25C65.7041 182.133 66.2181 182.346 66.6941 182.567C67.3824 182.887 68.0617 183.231 68.7305 183.599C69.0636 183.782 69.4018 183.978 69.6568 184.282C69.9117 184.587 70.0731 185.026 69.9795 185.433C69.848 186.007 69.2967 186.299 68.7992 186.478C67.5139 186.939 66.1603 187.153 64.8132 187.109C64.9058 187.088 63.1992 186.478 62.6016 186.021Z" fill="black"/>
</g>
<path d="M67.4795 186.969C68.0701 187.15 68.6339 187.554 68.9117 188.172C69.1896 188.791 69.1094 189.635 68.6334 190.072C68.2872 190.389 67.8151 190.446 67.3719 190.489C66.8251 190.544 66.2783 190.598 65.7315 190.653C65.3854 190.687 65.0054 190.712 64.7226 190.483C64.3406 190.172 64.3077 189.553 64.3107 189.02C64.3137 188.512 64.3197 187.988 64.495 187.52C64.7191 186.921 65.1374 186.62 65.6822 186.706C66.2743 186.8 66.8998 186.79 67.4795 186.969Z" fill="#407BFF"/>
<path d="M54.4613 176.028C53.4882 174.78 52.0883 173.972 50.6272 173.816C50.542 173.807 50.4489 173.802 50.3792 173.858C50.286 173.932 50.2721 174.081 50.2696 174.21C50.2337 176.169 50.8289 178.134 51.9185 179.654C52.421 180.354 53.0474 180.976 53.8059 181.249C54.3547 181.446 55.0096 181.444 55.532 181.146C56.0559 180.847 55.9602 180.419 55.9065 179.829C55.7795 178.428 55.286 177.085 54.4613 176.028Z" fill="#407BFF"/>
<path opacity="0.2" d="M54.4613 176.028C53.4882 174.78 52.0883 173.972 50.6272 173.816C50.542 173.807 50.4489 173.802 50.3792 173.858C50.286 173.932 50.2721 174.081 50.2696 174.21C50.2337 176.169 50.8289 178.134 51.9185 179.654C52.421 180.354 53.0474 180.976 53.8059 181.249C54.3547 181.446 55.0096 181.444 55.532 181.146C56.0559 180.847 55.9602 180.419 55.9065 179.829C55.7795 178.428 55.286 177.085 54.4613 176.028Z" fill="black"/>
<path d="M63.8475 176.917C63.1269 175.63 62.5986 173.974 62.5751 172.221C62.5557 170.752 62.8904 169.317 63.3709 168.08C63.8515 166.843 64.474 165.777 65.0925 164.72C65.2932 167.905 65.3515 171.114 65.2663 174.313C65.2484 174.992 65.2195 175.696 65.0233 176.294C64.8271 176.893 64.4153 177.353 64.0139 177.204L63.8475 176.917Z" fill="#407BFF"/>
<path d="M61.0647 167.179C62.4223 169.187 63.2753 172.098 63.3864 175.103C63.4257 176.164 63.369 177.273 63.0562 178.202C62.7435 179.131 62.1279 179.839 61.487 179.742C60.8177 179.641 60.2998 178.741 59.9218 177.822C59.2938 176.296 58.5309 174.119 58.8885 172.238C59.2719 170.225 60.0294 168.422 61.0647 167.179Z" fill="#407BFF"/>
<path opacity="0.1" d="M61.0647 167.179C62.4223 169.187 63.2753 172.098 63.3864 175.103C63.4257 176.164 63.369 177.273 63.0562 178.202C62.7435 179.131 62.1279 179.839 61.487 179.742C60.8177 179.641 60.2998 178.741 59.9218 177.822C59.2938 176.296 58.5309 174.119 58.8885 172.238C59.2719 170.225 60.0294 168.422 61.0647 167.179Z" fill="black"/>
<path d="M56.9453 178.378C55.8377 177.346 55.385 175.618 55.4348 173.992C55.4846 172.367 55.9687 170.804 56.4473 169.271C57.5269 170.751 58.4074 172.42 59.0478 174.199C59.2933 174.881 59.506 175.593 59.5204 176.329C59.5349 177.065 59.3267 177.836 58.8436 178.327C58.3601 178.818 57.5757 178.949 57.0523 178.515C57.1141 178.551 57.1758 178.588 57.2376 178.625L56.9453 178.378Z" fill="#407BFF"/>
<g opacity="0.2">
<path d="M56.9453 178.378C55.8377 177.346 55.385 175.618 55.4348 173.992C55.4846 172.367 55.9687 170.804 56.4473 169.271C57.5269 170.751 58.4074 172.42 59.0478 174.199C59.2933 174.881 59.506 175.593 59.5204 176.329C59.5349 177.065 59.3267 177.836 58.8436 178.327C58.3601 178.818 57.5757 178.949 57.0523 178.515C57.1141 178.551 57.1758 178.588 57.2376 178.625L56.9453 178.378Z" fill="black"/>
</g>
<path d="M54.4189 172C54.1425 174.008 53.8711 176.064 54.2102 178.059C54.5494 180.054 55.6231 182.011 57.3023 182.714C58.001 183.007 58.8999 183.01 59.3685 182.353C59.6838 181.911 59.7151 181.276 59.5732 180.73C59.4313 180.185 59.1399 179.708 58.8531 179.242C57.513 177.064 54.7212 171.784 54.4368 172.005L54.4189 172Z" fill="#407BFF"/>
<path d="M54.4189 172C54.1425 174.008 53.8711 176.064 54.2102 178.059C54.5494 180.054 55.6231 182.011 57.3023 182.714C58.001 183.007 58.8999 183.01 59.3685 182.353C59.6838 181.911 59.7151 181.276 59.5732 180.73C59.4313 180.185 59.1399 179.708 58.8531 179.242C57.513 177.064 54.7212 171.784 54.4368 172.005L54.4189 172Z" fill="#407BFF"/>
<g opacity="0.1">
<path d="M54.4189 172C54.1425 174.008 53.8711 176.064 54.2102 178.059C54.5494 180.054 55.6231 182.011 57.3023 182.714C58.001 183.007 58.8999 183.01 59.3685 182.353C59.6838 181.911 59.7151 181.276 59.5732 180.73C59.4313 180.185 59.1399 179.708 58.8531 179.242C57.513 177.064 54.7212 171.784 54.4368 172.005L54.4189 172Z" fill="black"/>
</g>
<path d="M59.6086 174.713C58.9527 175.904 58.4014 177.191 58.1753 178.571C57.9492 179.952 58.0707 181.438 58.6897 182.654C59.3083 183.87 60.4656 184.765 61.7022 184.775C62.6583 184.782 63.5946 184.203 64.113 183.293C64.6847 182.288 64.2668 181.376 63.8306 180.393C62.8396 178.158 61.1967 176.401 59.6086 174.713Z" fill="#407BFF"/>
<path d="M47.2766 178.582C46.9405 179.128 46.9534 179.879 47.1785 180.493C47.4041 181.108 47.8135 181.61 48.2402 182.067C51.1396 185.173 55.2615 186.749 59.2256 186.269C59.5558 186.229 59.9283 186.144 60.0996 185.821C60.2879 185.465 60.1185 184.979 59.8287 184.725C59.5389 184.471 59.1644 184.388 58.8068 184.3C56.777 183.803 54.8367 182.908 53.0634 181.683C51.286 180.455 49.1735 179.606 47.2766 178.582Z" fill="#407BFF"/>
<path opacity="0.1" d="M47.2766 178.582C46.9405 179.128 46.9534 179.879 47.1785 180.493C47.4041 181.108 47.8135 181.61 48.2402 182.067C51.1396 185.173 55.2615 186.749 59.2256 186.269C59.5558 186.229 59.9283 186.144 60.0996 185.821C60.2879 185.465 60.1185 184.979 59.8287 184.725C59.5389 184.471 59.1644 184.388 58.8068 184.3C56.777 183.803 54.8367 182.908 53.0634 181.683C51.286 180.455 49.1735 179.606 47.2766 178.582Z" fill="black"/>
<path d="M54.0923 178.283C53.7979 177.845 53.4279 177.34 52.9454 177.395C52.5714 177.438 52.2965 177.817 52.1416 178.206C51.5126 179.784 52.2646 181.716 53.4673 182.782C54.6699 183.848 56.2137 184.253 57.7033 184.629C58.2142 184.758 58.7251 184.887 59.2361 185.015C59.8442 185.169 61.0648 184.964 60.5219 184.002C60.1579 183.357 58.9398 182.989 58.3756 182.608C56.7232 181.492 55.2591 180.018 54.0923 178.283Z" fill="#407BFF"/>
<path d="M54.283 190.778C52.3687 190.64 50.533 189.766 48.9564 188.525C48.6556 188.289 48.3264 187.91 48.4599 187.523C48.5535 187.251 48.8309 187.138 49.0774 187.055C50.8886 186.448 52.7392 185.836 54.6261 185.918C55.517 185.957 56.4109 186.172 57.2267 186.586C57.8636 186.909 59.1838 187.702 59.3701 188.559C59.5628 189.445 57.9089 190.091 57.3004 190.328C56.3352 190.705 55.3009 190.852 54.283 190.778Z" fill="#407BFF"/>
<path opacity="0.1" d="M54.283 190.778C52.3687 190.64 50.533 189.766 48.9564 188.525C48.6556 188.289 48.3264 187.91 48.4599 187.523C48.5535 187.251 48.8309 187.138 49.0774 187.055C50.8886 186.448 52.7392 185.836 54.6261 185.918C55.517 185.957 56.4109 186.172 57.2267 186.586C57.8636 186.909 59.1838 187.702 59.3701 188.559C59.5628 189.445 57.9089 190.091 57.3004 190.328C56.3352 190.705 55.3009 190.852 54.283 190.778Z" fill="black"/>
<path d="M61.8406 186.038C59.9781 185.612 58.0588 185.508 56.1689 185.731C55.6993 185.786 55.2202 185.866 54.8059 186.122C54.3915 186.379 54.0504 186.848 54.035 187.383C54.0195 187.923 54.3368 188.418 54.7357 188.711C55.1346 189.004 55.6077 189.133 56.0703 189.254C57.4358 189.614 58.8357 189.963 60.2276 189.774C61.2505 189.635 62.4532 189.137 63.115 188.189C63.9731 186.961 62.8416 186.267 61.8406 186.038Z" fill="#407BFF"/>
<path opacity="0.1" d="M61.8406 186.038C59.9781 185.612 58.0588 185.508 56.1689 185.731C55.6993 185.786 55.2202 185.866 54.8059 186.122C54.3915 186.379 54.0504 186.848 54.035 187.383C54.0195 187.923 54.3368 188.418 54.7357 188.711C55.1346 189.004 55.6077 189.133 56.0703 189.254C57.4358 189.614 58.8357 189.963 60.2276 189.774C61.2505 189.635 62.4532 189.137 63.115 188.189C63.9731 186.961 62.8416 186.267 61.8406 186.038Z" fill="white"/>
<path d="M67.5218 186.021C67.8829 185.746 68.2429 185.435 68.4481 185C68.6533 184.565 68.6627 183.974 68.3609 183.619C67.9292 183.111 65.5268 182.39 64.9232 182.25C64.4193 182.133 63.9053 182.346 63.4292 182.567C62.741 182.887 62.0617 183.231 61.3929 183.599C61.0598 183.782 60.7216 183.978 60.4666 184.282C60.2117 184.587 60.0503 185.026 60.1439 185.433C60.2754 186.007 60.8267 186.299 61.3242 186.478C62.6095 186.939 63.9631 187.153 65.3102 187.109C65.2176 187.088 66.9247 186.478 67.5218 186.021Z" fill="#407BFF"/>
<g opacity="0.1">
<path d="M67.5218 186.021C67.8829 185.746 68.2429 185.435 68.4481 185C68.6533 184.565 68.6627 183.974 68.3609 183.619C67.9292 183.111 65.5268 182.39 64.9232 182.25C64.4193 182.133 63.9053 182.346 63.4292 182.567C62.741 182.887 62.0617 183.231 61.3929 183.599C61.0598 183.782 60.7216 183.978 60.4666 184.282C60.2117 184.587 60.0503 185.026 60.1439 185.433C60.2754 186.007 60.8267 186.299 61.3242 186.478C62.6095 186.939 63.9631 187.153 65.3102 187.109C65.2176 187.088 66.9247 186.478 67.5218 186.021Z" fill="black"/>
</g>
<path d="M62.6444 186.969C62.0538 187.15 61.4895 187.554 61.2117 188.172C60.9338 188.791 61.014 189.635 61.49 190.072C61.8362 190.389 62.3083 190.446 62.751 190.489C63.2978 190.544 63.8446 190.598 64.3914 190.653C64.738 190.687 65.1175 190.712 65.4003 190.483C65.7823 190.172 65.8152 189.553 65.8122 189.02C65.8092 188.512 65.8032 187.988 65.6279 187.52C65.4038 186.921 64.9855 186.62 64.4407 186.706C63.8496 186.8 63.2241 186.79 62.6444 186.969Z" fill="#407BFF"/>
<path d="M65.3495 175.225C65.2484 175.147 65.1478 175.078 65.0627 175.046C65.0975 175.032 65.1319 175.025 65.1603 175.028C65.1792 175.028 65.1981 175.035 65.2171 175.046H65.2201C65.239 175.053 65.2549 175.067 65.2704 175.085C65.2863 175.103 65.3017 175.121 65.3147 175.146C65.3271 175.164 65.3366 175.182 65.3431 175.207C65.346 175.211 65.3495 175.218 65.3495 175.225Z" fill="#407BFF"/>
<path opacity="0.1" d="M65.3525 175.225H65.3495C65.2484 175.147 65.1478 175.078 65.0627 175.046C65.0975 175.032 65.1319 175.025 65.1603 175.028C65.1792 175.028 65.1981 175.035 65.2171 175.046H65.2201C65.239 175.053 65.2549 175.067 65.2704 175.085C65.2863 175.103 65.3017 175.121 65.3147 175.146C65.3271 175.164 65.3366 175.182 65.3431 175.207C65.346 175.211 65.3495 175.218 65.3525 175.225Z" fill="#407BFF"/>
<path d="M67.3963 180.796C67.1911 181.348 66.9297 181.889 66.5477 182.304C66.1692 182.723 65.6553 183.013 65.1254 182.995C65.1035 182.995 65.0846 182.995 65.0622 182.991H65.0592C65.0403 182.995 65.0183 182.995 64.9959 182.995C64.4661 183.013 63.9551 182.723 63.5736 182.304C63.1952 181.889 62.9332 181.348 62.7251 180.796C62.4571 180.066 62.2709 179.271 62.375 178.487C62.4915 177.624 62.9551 176.858 63.5293 176.271C63.6807 176.271 64.1603 175.712 64.3117 175.598C64.3241 175.591 64.3371 175.58 64.3525 175.569C64.365 175.555 64.3809 175.544 64.3998 175.53C64.5009 175.448 64.6394 175.326 64.7753 175.222C64.8386 175.176 64.9013 175.133 64.9581 175.097C64.974 175.09 64.9929 175.079 65.0084 175.072C65.0273 175.061 65.0462 175.054 65.0622 175.047C65.1473 175.079 65.2484 175.147 65.349 175.226H65.352C65.5348 175.362 65.718 175.531 65.8092 175.599C65.9636 175.713 66.4401 176.272 66.5945 176.272C67.1687 176.859 67.6323 177.625 67.7459 178.488C67.8535 179.271 67.6677 180.066 67.3963 180.796Z" fill="#407BFF"/>
<path d="M65.0622 175.047C65.0462 175.053 65.0273 175.061 65.0084 175.071C64.9925 175.078 64.977 175.086 64.9581 175.096C64.9013 175.132 64.8381 175.175 64.7753 175.222C64.8162 175.107 64.8794 175.036 64.9646 175.029C64.993 175.025 65.0278 175.032 65.0622 175.047Z" fill="#407BFF"/>
<g opacity="0.2">
<path d="M67.3963 180.796C67.1911 181.348 66.9297 181.889 66.5477 182.304C66.1692 182.723 65.6553 183.013 65.1254 182.995C65.1035 182.995 65.0846 182.995 65.0622 182.991H65.0592C65.0403 182.995 65.0183 182.995 64.9959 182.995C64.4661 183.013 63.9551 182.723 63.5736 182.304C63.1952 181.889 62.9332 181.348 62.7251 180.796C62.4571 180.066 62.2709 179.271 62.375 178.487C62.4915 177.624 62.9551 176.858 63.5293 176.271C63.6807 176.271 64.1603 175.712 64.3117 175.598C64.4063 175.53 64.5955 175.358 64.7753 175.222C64.8794 175.143 64.977 175.078 65.0622 175.047C65.1473 175.079 65.2514 175.147 65.3525 175.226C65.5353 175.362 65.7185 175.53 65.8097 175.598C65.964 175.713 66.4406 176.272 66.595 176.272C67.1692 176.859 67.6328 177.625 67.7464 178.488C67.8535 179.271 67.6677 180.066 67.3963 180.796Z" fill="white"/>
<path d="M65.0622 175.047C64.977 175.079 64.8794 175.143 64.7753 175.222C64.8162 175.107 64.8794 175.036 64.9646 175.029C64.993 175.025 65.0278 175.032 65.0622 175.047Z" fill="white"/>
</g>
<path opacity="0.1" d="M65.3525 175.225C65.2514 175.147 65.1474 175.078 65.0622 175.046C65.0971 175.032 65.1314 175.025 65.1598 175.028C65.2455 175.036 65.3082 175.107 65.3525 175.225Z" fill="white"/>
<path d="M159.657 130.318H173.308C173.752 130.318 173.952 129.958 173.754 129.513L170.329 121.812C170.131 121.368 169.611 121.008 169.166 121.008H155.516C155.072 121.008 154.872 121.368 155.069 121.812L158.495 129.513C158.692 129.958 159.213 130.318 159.657 130.318Z" fill="#407BFF"/>
<path opacity="0.2" d="M159.657 130.318H173.308C173.752 130.318 173.952 129.958 173.754 129.513L170.329 121.812C170.131 121.368 169.611 121.008 169.166 121.008H155.516C155.072 121.008 154.872 121.368 155.069 121.812L158.495 129.513C158.692 129.958 159.213 130.318 159.657 130.318Z" fill="black"/>
<path d="M154.927 121.008H155.516C155.072 121.008 154.872 121.368 155.07 121.813L158.495 129.514C158.693 129.959 159.213 130.319 159.658 130.319H159.068C158.624 130.319 158.103 129.959 157.905 129.514L154.48 121.813C154.282 121.368 154.482 121.008 154.927 121.008Z" fill="#407BFF"/>
<path opacity="0.4" d="M154.927 121.008H155.516C155.072 121.008 154.872 121.368 155.07 121.813L158.495 129.514C158.693 129.959 159.213 130.319 159.658 130.319H159.068C158.624 130.319 158.103 129.959 157.905 129.514L154.48 121.813C154.282 121.368 154.482 121.008 154.927 121.008Z" fill="black"/>
<path d="M159.91 129.433H172.267L168.913 121.893H156.557L159.91 129.433Z" fill="#263238"/>
<path opacity="0.8" d="M159.91 129.433H172.267L168.913 121.893H156.557L159.91 129.433Z" fill="white"/>
<path d="M154.306 193.921L153.47 197.861L149.189 197.3L149.812 192.927L154.306 193.921Z" fill="#FAB27B"/>
<path d="M147.015 197.298C146.456 197.243 145.89 197.085 145.728 196.827C145.647 196.677 145.668 196.492 145.782 196.365C145.869 196.249 145.998 196.172 146.142 196.149C146.911 196.016 148.39 197.065 148.455 197.111C148.492 197.137 148.508 197.184 148.496 197.227C148.483 197.27 148.445 197.301 148.401 197.306C147.939 197.343 147.476 197.341 147.015 197.298ZM146.387 196.354C146.318 196.346 146.249 196.348 146.181 196.361C146.091 196.367 146.009 196.415 145.958 196.489C145.866 196.614 145.887 196.681 145.914 196.72C146.093 197.033 147.225 197.151 148.071 197.129C147.563 196.767 146.992 196.504 146.387 196.354Z" fill="#407BFF"/>
<path d="M148.384 197.302C148.369 197.305 148.353 197.302 148.34 197.294C147.827 197.003 146.844 195.924 146.989 195.428C147.012 195.307 147.118 195.168 147.413 195.168C147.63 195.166 147.837 195.253 147.988 195.408C148.513 195.934 148.514 197.156 148.515 197.214C148.514 197.252 148.492 197.287 148.457 197.305C148.433 197.313 148.407 197.312 148.384 197.302ZM147.465 195.376L147.405 195.365C147.212 195.362 147.191 195.438 147.181 195.465C147.124 195.766 147.756 196.597 148.28 196.981C148.277 196.467 148.116 195.966 147.819 195.546C147.725 195.449 147.599 195.388 147.465 195.376Z" fill="#407BFF"/>
<path d="M148.92 196.722L153.821 197.203C154.006 197.221 154.153 197.365 154.176 197.549L154.67 201.623C154.717 201.984 154.462 202.314 154.101 202.361C154.055 202.367 154.008 202.368 153.962 202.364C152.198 202.16 150.637 201.909 148.437 201.696C145.842 201.442 146.47 201.817 143.415 201.562C141.573 201.405 141.442 199.283 142.232 199.256C145.844 199.157 146.32 198.116 147.821 196.974C148.145 196.758 148.535 196.668 148.92 196.722Z" fill="#263238"/>
<path opacity="0.2" d="M149.485 195.225L153.955 195.576L154.306 193.921L149.812 192.927L149.485 195.225Z" fill="black"/>
<path d="M153.112 161.315L148.889 192.344L155.451 192.859L163.092 162.098L153.112 161.315Z" fill="#263238"/>
<path opacity="0.3" d="M153.112 161.315L148.889 192.344L155.451 192.859L163.092 162.098L153.112 161.315Z" fill="black"/>
<path d="M156.051 192.404L148.147 191.778C148.147 191.778 147.461 192.807 148.21 193.731L155.846 194.418C155.846 194.418 156.599 193.983 156.051 192.404Z" fill="#407BFF"/>
<path d="M160.657 130.652L159.05 126.768C158.913 126.556 158.71 126.394 158.472 126.308L157.666 126.013C157.493 125.949 157.337 125.846 157.211 125.71L156.84 125.31C156.502 124.946 155.972 124.835 155.517 125.033L155.17 125.185C154.819 125.338 154.561 125.653 154.491 126.03C154.28 127.176 154.117 129.679 156.185 131.365L158.502 132.317L160.657 130.652Z" fill="#FAB27B"/>
<path d="M158.503 132.316L161.58 136.946L163.738 134.665L160.657 130.652L158.503 132.316Z" fill="#FAB27B"/>
<path d="M177.131 121.303C176.972 120.988 174.498 121.909 171.604 123.363C168.711 124.817 166.494 126.251 166.653 126.567C166.812 126.882 169.286 125.961 172.179 124.507C175.072 123.053 177.29 121.619 177.131 121.303Z" fill="#263238"/>
<path d="M173.433 122.489C173.702 122.367 173.963 122.252 174.213 122.145L174.714 123.141C174.479 123.277 174.231 123.418 173.972 123.561L173.433 122.489Z" fill="#407BFF"/>
<path opacity="0.5" d="M173.433 122.489C173.702 122.367 173.963 122.252 174.213 122.145L174.714 123.141C174.479 123.277 174.231 123.418 173.972 123.561L173.433 122.489Z" fill="white"/>
<path d="M176.244 121.208C176.382 120.551 173.771 121.713 173.621 121.787C173.439 121.876 173.316 121.587 173.497 121.498C173.681 121.407 176.839 119.894 176.556 121.247C176.515 121.444 176.203 121.406 176.244 121.208Z" fill="#407BFF"/>
<g opacity="0.2">
<path d="M176.244 121.208C176.382 120.551 173.771 121.713 173.621 121.787C173.439 121.876 173.316 121.587 173.497 121.498C173.681 121.407 176.839 119.894 176.556 121.247C176.515 121.444 176.203 121.406 176.244 121.208Z" fill="black"/>
</g>
<path d="M176.382 131.737L173.83 127.405C173.83 127.405 173.945 125.49 172.616 123.204C172.523 123.044 171.659 122.346 171.659 122.346C170.659 122.853 169.972 123.356 169.668 123.589C168.743 124.298 168.497 124.814 169.63 126.54C170.573 127.977 171.688 128.777 171.688 128.777L174.097 133.689L176.382 131.737Z" fill="#FAB27B"/>
<path d="M176.954 131.215L175.849 129.461C175.849 129.461 173.814 129.757 172.474 132.074L173.409 134.097L176.954 131.215Z" fill="#407BFF"/>
<path d="M189.753 121.536C187.824 121.668 186.145 121.328 182.852 131.71C182.239 133.641 180.661 135.565 180.661 135.565L177.036 130.612C177.036 130.612 174.658 130.751 173.016 133.654C173.016 133.654 175.811 143.032 181.062 142.353C186.312 141.674 189.239 135.648 190.397 132.052C191.556 128.456 194.023 121.246 189.753 121.536Z" fill="#263238"/>
<path d="M180.396 116.803L180.037 120.01L185.432 120.035L185.549 115.979L180.396 116.803Z" fill="#FAB27B"/>
<path opacity="0.2" d="M180.266 118.352C181.625 117.992 182.532 116.387 182.532 116.387L181.387 116.61L180.396 116.803L180.266 118.352Z" fill="black"/>
<path d="M178.922 107.783C178.82 108.038 178.872 108.297 179.042 108.363C179.213 108.429 179.451 108.269 179.543 108.019C179.636 107.769 179.594 107.506 179.422 107.442C179.249 107.378 179.027 107.53 178.922 107.783Z" fill="#263238"/>
<path d="M179.588 108.464L177.523 109.966C177.523 109.966 178.008 110.7 179.079 110.72L179.588 108.464Z" fill="#ED893E"/>
<path d="M179.911 106.241C179.96 106.246 180.003 106.274 180.027 106.317C180.185 106.642 180.495 106.87 180.859 106.928C180.939 106.935 180.997 107.003 180.99 107.082C180.98 107.161 180.908 107.219 180.828 107.213C180.366 107.149 179.968 106.865 179.766 106.454C179.728 106.384 179.757 106.297 179.828 106.259L179.829 106.258C179.854 106.245 179.883 106.24 179.911 106.241Z" fill="#263238"/>
<path d="M189.236 110.737C188.025 114.177 187.589 115.663 185.268 116.971C181.981 118.055 177.701 116.739 177.834 113.012C177.952 109.658 179.906 104.607 183.823 104.14C186.615 103.809 189.154 105.747 189.494 108.469C189.589 109.234 189.501 110.011 189.236 110.737Z" fill="#FAB27B"/>
<path d="M190.945 113.551C190.05 114.283 189.232 115.097 188.439 115.939C187.957 116.451 187.382 116.876 186.746 117.176C185.475 117.779 183.968 117.765 182.626 117.343C182.626 117.343 179.039 114.172 181.433 108.282C180.517 107.63 179.956 106.507 179.986 105.383C180.017 104.259 180.637 103.168 181.587 102.567C182.719 101.851 184.469 102.304 185.514 103.143C186.921 102.806 188.416 103.323 189.475 104.309C190.534 105.296 191.196 106.636 191.678 108C192.09 109.167 192.389 110.424 192.138 111.635C191.989 112.357 191.542 113.064 190.945 113.551Z" fill="#263238"/>
<path d="M181.774 109.541C181.089 109.866 180.565 110.444 180.318 111.148C179.998 112.083 180.845 112.608 181.775 112.397C182.618 112.206 183.791 111.487 183.707 110.523C183.624 109.559 182.617 109.153 181.774 109.541Z" fill="#FAB27B"/>
<path d="M186.618 117.906C185.421 117.388 183.266 117.338 180.146 117.823C179.8 117.877 179.53 118.211 179.408 118.539C179.286 118.868 179.456 119.319 179.804 119.364C179.777 119.821 179.664 120.318 179.637 120.776C180.515 120.684 181.483 120.88 182.365 120.924C183.774 120.996 185.168 121.24 186.558 121.485C186.472 120.824 186.269 120.124 186.422 119.476C186.744 119.535 187.065 119.226 187.149 118.91C187.234 118.593 186.917 118.036 186.618 117.906Z" fill="#407BFF"/>
<path d="M186.618 117.906C185.421 117.388 183.266 117.338 180.146 117.823C179.8 117.877 179.53 118.211 179.408 118.539C179.286 118.868 179.456 119.319 179.804 119.364C179.777 119.821 179.664 120.318 179.637 120.776C180.515 120.684 181.483 120.88 182.365 120.924C183.774 120.996 185.168 121.24 186.558 121.485C186.472 120.824 186.269 120.124 186.422 119.476C186.744 119.535 187.065 119.226 187.149 118.91C187.234 118.593 186.917 118.036 186.618 117.906Z" fill="#407BFF"/>
<path d="M171.892 152.07C171.892 152.07 170.783 137.276 170.852 126.605C170.903 118.733 176.551 120.148 183.822 120.185C189.588 120.214 191.552 120.709 192.338 123.853C193.124 126.998 189.242 152.156 189.242 152.156L171.892 152.07Z" fill="#407BFF"/>
<path opacity="0.5" d="M171.892 152.07C171.892 152.07 170.783 137.276 170.852 126.605C170.903 118.733 176.551 120.148 183.822 120.185C189.588 120.214 191.552 120.709 192.338 123.853C193.124 126.998 189.242 152.156 189.242 152.156L171.892 152.07Z" fill="black"/>
<path d="M161.232 131.186C160.823 131.206 160.342 131.331 159.899 131.701C159.486 132.048 158.788 132.712 158.528 133.539C158.048 132.734 157.387 132.052 156.6 131.544L156.557 131.516C156.811 128.018 159.678 128.285 159.678 128.285L159.75 128.463C160.15 129.421 160.645 130.335 161.232 131.186Z" fill="#407BFF"/>
<path opacity="0.2" d="M161.232 131.186C160.823 131.206 160.342 131.331 159.899 131.701C159.486 132.048 158.788 132.712 158.528 133.539C158.048 132.734 157.387 132.052 156.6 131.544L156.557 131.516C156.811 128.018 159.678 128.285 159.678 128.285L159.75 128.463C160.15 129.421 160.645 130.335 161.232 131.186Z" fill="black"/>
<path d="M168.872 143.618C163.58 143.503 158.504 134.751 158.504 134.751C158.379 134.323 158.408 133.914 158.528 133.539C158.788 132.711 159.486 132.047 159.899 131.701C160.342 131.331 160.823 131.206 161.232 131.186C161.785 131.157 162.199 131.321 162.199 131.321C162.199 131.321 166.101 136.137 167.054 135.704C167.997 135.271 168.371 133.675 168.718 131.677C170.573 121.008 172.613 120.687 174.402 120.64C178.115 120.543 173.558 143.719 168.872 143.618Z" fill="#407BFF"/>
<g opacity="0.1">
<path d="M168.872 143.618C163.58 143.503 158.504 134.751 158.504 134.751C158.379 134.323 158.408 133.914 158.528 133.539C158.788 132.711 159.486 132.047 159.899 131.701C160.342 131.331 160.823 131.206 161.232 131.186C161.785 131.157 162.199 131.321 162.199 131.321C162.199 131.321 166.101 136.137 167.054 135.704C167.997 135.271 168.371 133.675 168.718 131.677C170.573 121.008 172.613 120.687 174.402 120.64C178.115 120.543 173.558 143.719 168.872 143.618Z" fill="white"/>
</g>
<path d="M189.242 152.156C189.242 152.156 189.695 156.659 189.631 158.244C189.293 166.646 181.335 169.611 174.991 168.447L152.45 166.004C151.538 169.057 140.919 185.868 140.919 185.868L135.336 182.662C135.336 182.662 141.124 168.784 144.86 159.127C146.994 153.614 163.928 153.447 170.323 154.582C172.266 155.106 171.891 152.07 171.891 152.07L189.242 152.156Z" fill="#263238"/>
<path d="M139.494 186.179L137.362 189.733L133.384 187.755L135.453 183.708L139.494 186.179Z" fill="#FAB27B"/>
<path d="M131.269 187.025C130.744 186.785 130.245 186.441 130.175 186.136C130.145 185.963 130.228 185.79 130.381 185.705C130.505 185.621 130.656 185.589 130.803 185.615C131.597 185.743 132.684 187.258 132.732 187.325C132.759 187.363 132.76 187.413 132.733 187.451C132.706 187.489 132.66 187.506 132.614 187.496C132.153 187.379 131.703 187.221 131.269 187.025ZM130.973 185.897C130.909 185.866 130.841 185.845 130.77 185.834C130.68 185.81 130.585 185.829 130.51 185.884C130.379 185.975 130.378 186.047 130.391 186.094C130.461 186.458 131.522 186.952 132.352 187.214C131.98 186.692 131.512 186.245 130.973 185.897Z" fill="#407BFF"/>
<path d="M132.6 187.488C132.584 187.485 132.57 187.477 132.56 187.465C132.158 187.01 131.562 185.631 131.869 185.197C131.932 185.087 132.082 184.988 132.37 185.086C132.581 185.156 132.753 185.31 132.849 185.511C133.184 186.199 132.776 187.389 132.757 187.444C132.743 187.482 132.711 187.508 132.671 187.514C132.644 187.514 132.619 187.505 132.6 187.488ZM132.35 185.306L132.295 185.274C132.108 185.208 132.063 185.274 132.044 185.297C131.887 185.571 132.225 186.591 132.606 187.14C132.775 186.638 132.786 186.097 132.637 185.59C132.579 185.464 132.476 185.363 132.35 185.306Z" fill="#407BFF"/>
<path d="M133.316 187.102L137.924 189.21C138.097 189.289 138.193 189.478 138.153 189.665L137.272 193.794C137.196 194.161 136.837 194.397 136.471 194.322C136.424 194.312 136.378 194.297 136.334 194.278C134.686 193.489 133.251 192.723 131.182 191.78C128.741 190.664 129.227 191.239 126.339 189.968C124.6 189.2 125.182 187.091 125.96 187.329C129.507 188.441 130.319 187.588 132.162 186.979C132.549 186.877 132.96 186.921 133.316 187.102Z" fill="#263238"/>
<path opacity="0.2" d="M138.411 187.985L139.494 186.179L135.453 183.708L134.454 185.663L138.411 187.985Z" fill="black"/>
<path d="M141.804 186.159L134.882 181.841C134.882 181.841 133.768 182.455 134.013 183.654L140.662 187.901C140.662 187.901 141.556 187.861 141.804 186.159Z" fill="#407BFF"/>
<path d="M180.948 169.748H192.426C196.85 169.748 200.532 166.347 200.882 161.936L202.515 141.317C202.78 137.975 200.139 135.117 196.786 135.117H190.446C183.046 135.117 176.524 139.975 174.406 147.066L170.008 161.788C169.271 164.256 167.001 165.948 164.425 165.948H156.403C154.304 165.948 152.602 167.649 152.602 169.749H174.186H180.948V169.748Z" fill="#407BFF"/>
<path d="M175.785 169.748C176.099 174.654 176.946 192.524 175.681 196.458C174.569 199.919 169.482 200.743 166.478 202.579C165.973 202.888 166.146 203.866 166.704 203.866H190.114C190.673 203.866 190.846 202.888 190.341 202.579C187.337 200.744 182.25 199.919 181.138 196.458C179.873 192.524 180.719 174.654 181.034 169.748H175.785Z" fill="#407BFF"/>
<path opacity="0.2" d="M176.001 173.456H180.818C180.897 171.953 180.975 170.67 181.034 169.748H175.786C175.844 170.67 175.922 171.953 176.001 173.456Z" fill="black"/>
<path opacity="0.7" d="M180.948 169.748H192.426C196.85 169.748 200.532 166.347 200.882 161.936L202.515 141.317C202.78 137.975 200.139 135.117 196.786 135.117H190.446C183.046 135.117 176.524 139.975 174.406 147.066L170.008 161.788C169.271 164.256 167.001 165.948 164.425 165.948H156.403C154.304 165.948 152.602 167.649 152.602 169.749H174.186H180.948V169.748Z" fill="white"/>
</svg>
