<svg width="249" height="249" viewBox="0 0 249 249" fill="none" xmlns="http://www.w3.org/2000/svg">
<path d="M211.092 141.835C222.905 123.34 228.124 95.8003 217.068 75.7408C206.829 57.2401 184.758 48.306 164.425 47.808C146.835 47.3797 132.871 52.5838 119.147 62.8028C112.07 68.0766 104.919 73.719 96.3979 76.7916C89.7446 79.192 82.9021 80.8453 76.0396 82.678C51.2243 89.3163 35.9307 111.831 39.2623 136.039C41.832 154.644 56.274 171.949 74.7 178.862C88.9876 184.22 104.002 180.261 117.807 175.58C125.247 173.055 132.747 170.446 140.6 169.27C148.195 168.13 155.54 169.554 163.06 168.732C181.591 166.711 200.694 158.135 211.092 141.835Z" fill="#407BFF"/>
<path opacity="0.7" d="M211.092 141.835C222.905 123.34 228.124 95.8003 217.068 75.7408C206.829 57.2401 184.758 48.306 164.425 47.808C146.835 47.3797 132.871 52.5838 119.147 62.8028C112.07 68.0766 104.919 73.719 96.3979 76.7916C89.7446 79.192 82.9021 80.8453 76.0396 82.678C51.2243 89.3163 35.9307 111.831 39.2623 136.039C41.832 154.644 56.274 171.949 74.7 178.862C88.9876 184.22 104.002 180.261 117.807 175.58C125.247 173.055 132.747 170.446 140.6 169.27C148.195 168.13 155.54 169.554 163.06 168.732C181.591 166.711 200.694 158.135 211.092 141.835Z" fill="white"/>
<path d="M216.954 150.889H214.847H119.49H117.384V155.112H119.49V198.035H214.847V155.112H216.954V150.889Z" fill="#407BFF"/>
<path opacity="0.5" d="M216.954 150.889H214.847H119.49H117.384V155.112H119.49V198.035H214.847V155.112H216.954V150.889Z" fill="white"/>
<path d="M122.045 173.304H148.05V159.42H122.045V173.304ZM122.573 159.933H147.523V172.806H122.573V159.933Z" fill="white"/>
<path d="M154.34 173.304H180.351V159.42H154.34V173.304ZM154.878 159.948H179.833V172.806H154.878V159.948Z" fill="white"/>
<path d="M186.64 159.42V173.304H212.646V159.42H186.64ZM212.118 172.806H187.168V159.948H212.118V172.806Z" fill="white"/>
<path d="M122.045 191.969H148.05V178.07H122.045V191.969ZM122.573 178.598H147.523V191.441H122.573V178.598Z" fill="white"/>
<path d="M154.34 191.969H180.351V178.07H154.34V191.969ZM154.878 178.598H179.833V191.441H154.878V178.598Z" fill="white"/>
<path d="M186.64 191.969H212.646V178.07H186.64V191.969ZM187.168 178.598H212.118V191.441H187.168V178.598Z" fill="white"/>
<path d="M135.327 168.13C137.659 168.13 139.55 167.421 139.55 166.546C139.55 165.672 137.659 164.963 135.327 164.963C132.994 164.963 131.103 165.672 131.103 166.546C131.103 167.421 132.994 168.13 135.327 168.13Z" fill="white"/>
<path d="M167.467 168.13C169.8 168.13 171.69 167.421 171.69 166.546C171.69 165.672 169.8 164.963 167.467 164.963C165.135 164.963 163.244 165.672 163.244 166.546C163.244 167.421 165.135 168.13 167.467 168.13Z" fill="white"/>
<path d="M200.54 168.13C202.872 168.13 204.763 167.421 204.763 166.546C204.763 165.672 202.872 164.963 200.54 164.963C198.207 164.963 196.317 165.672 196.317 166.546C196.317 167.421 198.207 168.13 200.54 168.13Z" fill="white"/>
<path d="M135.327 183.613C132.996 183.613 131.103 184.32 131.103 185.196C131.103 186.073 132.996 186.775 135.327 186.775C137.657 186.775 139.55 186.068 139.55 185.196C139.55 184.325 137.657 183.613 135.327 183.613Z" fill="white"/>
<path d="M167.467 183.613C165.137 183.613 163.244 184.32 163.244 185.196C163.244 186.073 165.137 186.775 167.467 186.775C169.798 186.775 171.69 186.068 171.69 185.196C171.69 184.325 169.818 183.613 167.467 183.613Z" fill="white"/>
<path d="M200.54 183.613C198.209 183.613 196.322 184.32 196.322 185.196C196.322 186.073 198.209 186.775 200.54 186.775C202.87 186.775 204.763 186.068 204.763 185.196C204.763 184.325 202.875 183.613 200.54 183.613Z" fill="white"/>
<path d="M105.666 147.199C103.743 150.052 101.064 153.762 99.6349 156.741C100.178 154.778 100.711 152.921 101.194 151.263C101.926 149.823 103.888 146.193 106.174 143.793C109.047 140.715 110.277 138.738 108.728 138.569C107.658 138.449 104.52 142.627 102.553 146.776C102.981 145.356 103.32 144.286 103.549 143.643C103.644 143.354 103.733 143.041 103.823 142.707C105.858 139.86 107.711 136.888 109.371 133.808C112.274 128.384 113.21 123.265 111.273 125.466C109.49 127.493 106.388 137.573 103.923 142.313C104.132 141.497 104.331 140.595 104.505 139.704C104.854 138.842 105.312 137.966 105.571 137.169C105.974 135.944 106.328 134.709 106.612 133.449C107.08 131.492 107.317 129.486 107.319 127.473C107.369 125.109 106.725 122.782 105.466 120.78C105.133 120.282 103.091 117.229 102.478 118.788C102.399 119.048 102.383 119.323 102.434 119.59C102.732 122.184 103.674 124.57 104.256 127.095C105.128 130.874 104.55 137.219 104.256 139.918C104.147 140.346 104.007 140.874 103.843 141.487C104.246 136.786 102.21 131.213 100.322 130.237C97.9865 129.032 100.277 133.763 102.08 137.896C102.934 139.705 103.336 141.694 103.25 143.693C102.882 145.047 102.459 146.576 102.02 148.12C101.931 148.329 101.851 148.543 101.771 148.753C101.974 147.745 102.056 146.717 102.015 145.69C101.846 142.991 98.7883 137.587 96.7564 138.349C94.7246 139.111 98.1658 141.96 100.003 145.277C100.968 147.111 101.338 149.199 101.064 151.253C101.064 151.377 101.024 151.497 101.009 151.611C100.795 152.318 100.586 152.996 100.387 153.643C99.8888 155.137 99.4655 156.571 99.0422 157.956C99.5623 155.947 99.7904 153.874 99.7195 151.8C99.4655 147.846 97.1498 144.111 95.2375 143.598C93.3252 143.085 96.9755 149.539 98.2006 153.165C98.8667 155.282 98.9799 157.535 98.5293 159.709C97.9367 161.671 97.3789 163.608 96.8062 165.655C96.9662 162.974 96.9079 160.284 96.6319 157.612C96.2584 153.21 93.6439 150.401 91.8412 150.516C90.0384 150.63 91.9208 153.13 94.5204 158.484C95.893 161.294 96.5043 164.416 96.2933 167.537C96.0592 168.399 95.7953 169.285 95.5762 170.211C95.2973 171.267 95.0782 172.418 94.879 173.593C94.62 172.542 94.2316 171.008 93.7784 169.315C93.2506 167.443 92.8677 165.534 92.633 163.603C92.389 161.357 91.7963 158.553 89.5952 157.388C89.4456 157.284 89.275 157.214 89.0954 157.182C88.9158 157.151 88.7315 157.159 88.5554 157.207C88.3794 157.254 88.2159 157.34 88.0763 157.457C87.9368 157.574 87.8246 157.721 87.7476 157.886C87.5457 158.368 87.5004 158.901 87.6181 159.41C87.9104 160.938 88.4132 162.418 89.1121 163.807C88.6797 164.636 88.4833 165.568 88.5444 166.501C88.5444 166.85 88.5743 167.199 88.5992 167.547C88.405 167.189 88.2207 166.86 88.0464 166.551C87.7299 166.023 87.341 165.542 86.891 165.122C87.0039 164.297 87.0604 163.465 87.0604 162.632C87.0604 161.541 85.7805 158.757 84.6251 160.819C84.162 161.646 84.2516 163.264 84.2068 164.34C83.8931 164.639 83.7985 165.246 84.0624 166.203C83.8831 168.693 83.8483 171.242 84.4508 173.673L84.0524 172.98C83.4911 170.099 83.1581 167.179 83.0564 164.245C82.912 159.4 83.6839 155.426 82.3642 153.932C81.0445 152.438 80.3075 157.692 80.8702 163.419C81.1353 166.032 81.832 168.583 82.9319 170.968C81.6371 168.643 80.3573 166.272 79.1471 163.996C78.6491 162.776 77.4141 159.475 77.7179 156.128C78.1013 151.91 78.3802 148.454 76.7767 146.078C75.1731 143.703 74.8394 145.247 75.6263 150.197C76.1641 153.593 76.7368 158.135 77.7229 161.287C76.7866 159.48 75.9052 157.761 75.1183 156.208C74.6701 154.654 73.6243 150.665 73.6243 147.353C73.6243 143.14 73.1761 140.879 71.9311 141.791C71.0646 142.433 71.6224 147.632 73.0168 152.005C72.3644 150.675 71.8714 149.654 71.5875 149.051C71.458 148.778 71.3136 148.484 71.1493 148.18C70.6936 144.711 70.02 141.275 69.1324 137.891C67.5537 131.945 64.74 127.563 64.8296 130.496C64.9093 133.195 69.5208 142.677 70.96 147.826C70.5517 147.084 70.0786 146.292 69.6005 145.521C69.2668 144.649 69.0029 143.698 68.6493 142.941C68.1065 141.771 67.5238 140.625 66.8714 139.51C65.8752 137.756 64.6768 136.124 63.3008 134.649C61.7068 132.834 59.6066 131.537 57.27 130.924C56.6824 130.785 53.1167 129.928 53.7242 131.522C53.8378 131.765 54.0087 131.977 54.2222 132.139C56.2142 133.833 58.525 134.933 60.6962 136.382C63.9133 138.554 67.8226 143.583 69.4361 145.77L70.2031 147.199C67.2898 143.484 61.996 140.805 59.9542 141.382C57.4244 142.094 62.3247 143.987 66.4631 145.775C68.3226 146.513 69.9738 147.695 71.2738 149.216C71.9311 150.461 72.6632 151.86 73.3952 153.289C73.4799 153.504 73.5596 153.713 73.6442 153.922C73.1061 153.047 72.4658 152.24 71.7369 151.517C69.7698 149.664 63.8436 147.796 62.8825 149.739C61.9213 151.681 66.3685 151.422 69.9839 152.587C71.9312 153.271 73.62 154.538 74.8195 156.218C74.8892 156.317 74.954 156.422 75.0237 156.516C75.3524 157.174 75.6611 157.816 75.955 158.424C76.6322 159.853 77.2796 161.193 77.9121 162.492C76.9249 160.663 75.6787 158.986 74.212 157.512C71.3236 154.793 67.0806 153.648 65.3227 154.594C63.5647 155.54 70.6463 157.746 74.0177 159.574C75.9502 160.668 77.5704 162.238 78.7238 164.136C79.6302 165.973 80.5415 167.771 81.5226 169.659C79.8097 167.59 77.9328 165.663 75.9101 163.897C72.6283 160.934 68.7987 160.665 67.5587 161.979C66.3187 163.294 69.4013 163.837 74.949 165.963C77.8684 167.081 80.444 168.944 82.419 171.367C82.8373 172.159 83.2656 172.97 83.7238 173.817C84.2218 174.773 84.8542 175.769 85.5215 176.76C84.6152 176.172 83.2805 175.316 81.7965 174.39C80.1311 173.382 78.5476 172.244 77.0605 170.988C75.3474 169.519 73.0018 167.871 70.5865 168.523C70.4067 168.549 70.2349 168.615 70.0831 168.715C69.9314 168.815 69.8035 168.947 69.7085 169.102C69.6135 169.257 69.5537 169.431 69.5333 169.611C69.5129 169.792 69.5324 169.975 69.5905 170.147C69.7664 170.639 70.0965 171.062 70.5317 171.352C72.8026 173.11 75.8554 173.956 78.4997 174.997C80.923 175.951 83.4069 176.743 85.9349 177.368C86.5624 178.269 87.2147 179.16 87.8721 180.007L86.6869 180.042C85.2825 180.087 78.9479 177.213 75.7309 176.292C72.5138 175.371 69.5059 177.114 72.8773 178.926C76.2488 180.739 85.417 180.336 85.417 180.336L88.0613 180.256C88.6838 181.053 89.2914 181.81 89.8691 182.502H77.3045V185.988H79.7945L81.7865 198.383H98.4845L100.501 185.988H102.991V182.502H94.6698C94.6025 180.996 94.6425 179.486 94.7893 177.985C95.3446 177.421 95.9609 176.92 96.6269 176.491C100.282 173.966 106.477 173.757 108.126 168.892C108.524 167.721 108.071 166.217 106.672 166.282C105.676 166.327 104.595 167.213 103.967 167.936C101.876 170.351 100.302 172.856 97.5831 174.688C96.6489 175.407 95.7514 176.171 94.8939 176.979C94.9885 176.187 95.108 175.341 95.2624 174.434C95.9195 173.269 96.6689 172.158 97.5034 171.113C99.7295 168.349 103.116 166.73 105.521 164.096C106.258 163.289 107.229 160.391 104.978 161.108C103.982 161.427 102.797 162.946 101.99 163.638C99.7743 165.63 97.5084 167.751 96.0642 170.371C96.124 170.112 96.1887 169.873 96.2485 169.594C97.8021 167.103 99.5523 164.74 101.482 162.527C104.68 158.892 107.956 156.511 108.011 154.519C108.066 152.527 103.943 155.864 100.442 160.426C98.8535 162.518 97.6218 164.859 96.7963 167.353C97.4387 164.773 98.1209 162.164 98.7883 159.664C99.2464 158.419 100.606 155.182 103.111 152.936C106.273 150.112 108.833 147.782 109.286 144.968C109.739 142.154 108.469 143.046 105.666 147.199ZM87.9817 179.23C87.5086 178.588 87.0155 177.891 86.4877 177.119C86.1732 175.809 85.9634 174.477 85.8602 173.135C85.7964 171.992 85.8498 170.845 86.0195 169.713C86.8695 170.766 87.772 171.775 88.7237 172.736C88.701 173.732 88.5792 174.723 88.3601 175.694C88.1736 176.866 88.0473 178.046 87.9817 179.23ZM90.6908 182.512C90.0484 181.83 89.3462 181.018 88.5842 180.022C88.6034 179.232 88.712 178.447 88.9079 177.681C89.212 176.475 89.6496 175.305 90.2127 174.195C91.393 175.316 92.2595 176.058 92.2595 176.058L94.2515 177.806C94.0971 179.544 94.0075 181.177 93.9527 182.502L90.6908 182.512ZM94.2764 177.502L93.385 176.72C92.887 176.272 91.9906 174.539 91.0145 172.542C91.4308 171.702 91.7999 170.839 92.12 169.957C93.1758 171.915 94.112 173.443 94.6648 174.255C94.5055 175.336 94.381 176.436 94.2764 177.502Z" fill="#407BFF"/>
<path opacity="0.5" d="M105.666 147.199C103.743 150.052 101.064 153.762 99.6349 156.741C100.178 154.778 100.711 152.921 101.194 151.263C101.926 149.823 103.888 146.193 106.174 143.793C109.047 140.715 110.277 138.738 108.728 138.569C107.658 138.449 104.52 142.627 102.553 146.776C102.981 145.356 103.32 144.286 103.549 143.643C103.644 143.354 103.733 143.041 103.823 142.707C105.858 139.86 107.711 136.888 109.371 133.808C112.274 128.384 113.21 123.265 111.273 125.466C109.49 127.493 106.388 137.573 103.923 142.313C104.132 141.497 104.331 140.595 104.505 139.704C104.854 138.842 105.312 137.966 105.571 137.169C105.974 135.944 106.328 134.709 106.612 133.449C107.08 131.492 107.317 129.486 107.319 127.473C107.369 125.109 106.725 122.782 105.466 120.78C105.133 120.282 103.091 117.229 102.478 118.788C102.399 119.048 102.383 119.323 102.434 119.59C102.732 122.184 103.674 124.57 104.256 127.095C105.128 130.874 104.55 137.219 104.256 139.918C104.147 140.346 104.007 140.874 103.843 141.487C104.246 136.786 102.21 131.213 100.322 130.237C97.9865 129.032 100.277 133.763 102.08 137.896C102.934 139.705 103.336 141.694 103.25 143.693C102.882 145.047 102.459 146.576 102.02 148.12C101.931 148.329 101.851 148.543 101.771 148.753C101.974 147.745 102.056 146.717 102.015 145.69C101.846 142.991 98.7883 137.587 96.7564 138.349C94.7246 139.111 98.1658 141.96 100.003 145.277C100.968 147.111 101.338 149.199 101.064 151.253C101.064 151.377 101.024 151.497 101.009 151.611C100.795 152.318 100.586 152.996 100.387 153.643C99.8888 155.137 99.4655 156.571 99.0422 157.956C99.5623 155.947 99.7904 153.874 99.7195 151.8C99.4655 147.846 97.1498 144.111 95.2375 143.598C93.3252 143.085 96.9755 149.539 98.2006 153.165C98.8667 155.282 98.9799 157.535 98.5293 159.709C97.9367 161.671 97.3789 163.608 96.8062 165.655C96.9662 162.974 96.9079 160.284 96.6319 157.612C96.2584 153.21 93.6439 150.401 91.8412 150.516C90.0384 150.63 91.9208 153.13 94.5204 158.484C95.893 161.294 96.5043 164.416 96.2933 167.537C96.0592 168.399 95.7953 169.285 95.5762 170.211C95.2973 171.267 95.0782 172.418 94.879 173.593C94.62 172.542 94.2316 171.008 93.7784 169.315C93.2506 167.443 92.8677 165.534 92.633 163.603C92.389 161.357 91.7963 158.553 89.5952 157.388C89.4456 157.284 89.275 157.214 89.0954 157.182C88.9158 157.151 88.7315 157.159 88.5554 157.207C88.3794 157.254 88.2159 157.34 88.0763 157.457C87.9368 157.574 87.8246 157.721 87.7476 157.886C87.5457 158.368 87.5004 158.901 87.6181 159.41C87.9104 160.938 88.4132 162.418 89.1121 163.807C88.6797 164.636 88.4833 165.568 88.5444 166.501C88.5444 166.85 88.5743 167.199 88.5992 167.547C88.405 167.189 88.2207 166.86 88.0464 166.551C87.7299 166.023 87.341 165.542 86.891 165.122C87.0039 164.297 87.0604 163.465 87.0604 162.632C87.0604 161.541 85.7805 158.757 84.6251 160.819C84.162 161.646 84.2516 163.264 84.2068 164.34C83.8931 164.639 83.7985 165.246 84.0624 166.203C83.8831 168.693 83.8483 171.242 84.4508 173.673L84.0524 172.98C83.4911 170.099 83.1581 167.179 83.0564 164.245C82.912 159.4 83.6839 155.426 82.3642 153.932C81.0445 152.438 80.3075 157.692 80.8702 163.419C81.1353 166.032 81.832 168.583 82.9319 170.968C81.6371 168.643 80.3573 166.272 79.1471 163.996C78.6491 162.776 77.4141 159.475 77.7179 156.128C78.1013 151.91 78.3802 148.454 76.7767 146.078C75.1731 143.703 74.8394 145.247 75.6263 150.197C76.1641 153.593 76.7368 158.135 77.7229 161.287C76.7866 159.48 75.9052 157.761 75.1183 156.208C74.6701 154.654 73.6243 150.665 73.6243 147.353C73.6243 143.14 73.1761 140.879 71.9311 141.791C71.0646 142.433 71.6224 147.632 73.0168 152.005C72.3644 150.675 71.8714 149.654 71.5875 149.051C71.458 148.778 71.3136 148.484 71.1493 148.18C70.6936 144.711 70.02 141.275 69.1324 137.891C67.5537 131.945 64.74 127.563 64.8296 130.496C64.9093 133.195 69.5208 142.677 70.96 147.826C70.5517 147.084 70.0786 146.292 69.6005 145.521C69.2668 144.649 69.0029 143.698 68.6493 142.941C68.1065 141.771 67.5238 140.625 66.8714 139.51C65.8752 137.756 64.6768 136.124 63.3008 134.649C61.7068 132.834 59.6066 131.537 57.27 130.924C56.6824 130.785 53.1167 129.928 53.7242 131.522C53.8378 131.765 54.0087 131.977 54.2222 132.139C56.2142 133.833 58.525 134.933 60.6962 136.382C63.9133 138.554 67.8226 143.583 69.4361 145.77L70.2031 147.199C67.2898 143.484 61.996 140.805 59.9542 141.382C57.4244 142.094 62.3247 143.987 66.4631 145.775C68.3226 146.513 69.9738 147.695 71.2738 149.216C71.9311 150.461 72.6632 151.86 73.3952 153.289C73.4799 153.504 73.5596 153.713 73.6442 153.922C73.1061 153.047 72.4658 152.24 71.7369 151.517C69.7698 149.664 63.8436 147.796 62.8825 149.739C61.9213 151.681 66.3685 151.422 69.9839 152.587C71.9312 153.271 73.62 154.538 74.8195 156.218C74.8892 156.317 74.954 156.422 75.0237 156.516C75.3524 157.174 75.6611 157.816 75.955 158.424C76.6322 159.853 77.2796 161.193 77.9121 162.492C76.9249 160.663 75.6787 158.986 74.212 157.512C71.3236 154.793 67.0806 153.648 65.3227 154.594C63.5647 155.54 70.6463 157.746 74.0177 159.574C75.9502 160.668 77.5704 162.238 78.7238 164.136C79.6302 165.973 80.5415 167.771 81.5226 169.659C79.8097 167.59 77.9328 165.663 75.9101 163.897C72.6283 160.934 68.7987 160.665 67.5587 161.979C66.3187 163.294 69.4013 163.837 74.949 165.963C77.8684 167.081 80.444 168.944 82.419 171.367C82.8373 172.159 83.2656 172.97 83.7238 173.817C84.2218 174.773 84.8542 175.769 85.5215 176.76C84.6152 176.172 83.2805 175.316 81.7965 174.39C80.1311 173.382 78.5476 172.244 77.0605 170.988C75.3474 169.519 73.0018 167.871 70.5865 168.523C70.4067 168.549 70.2349 168.615 70.0831 168.715C69.9314 168.815 69.8035 168.947 69.7085 169.102C69.6135 169.257 69.5537 169.431 69.5333 169.611C69.5129 169.792 69.5324 169.975 69.5905 170.147C69.7664 170.639 70.0965 171.062 70.5317 171.352C72.8026 173.11 75.8554 173.956 78.4997 174.997C80.923 175.951 83.4069 176.743 85.9349 177.368C86.5624 178.269 87.2147 179.16 87.8721 180.007L86.6869 180.042C85.2825 180.087 78.9479 177.213 75.7309 176.292C72.5138 175.371 69.5059 177.114 72.8773 178.926C76.2488 180.739 85.417 180.336 85.417 180.336L88.0613 180.256C88.6838 181.053 89.2914 181.81 89.8691 182.502H77.3045V185.988H79.7945L81.7865 198.383H98.4845L100.501 185.988H102.991V182.502H94.6698C94.6025 180.996 94.6425 179.486 94.7893 177.985C95.3446 177.421 95.9609 176.92 96.6269 176.491C100.282 173.966 106.477 173.757 108.126 168.892C108.524 167.721 108.071 166.217 106.672 166.282C105.676 166.327 104.595 167.213 103.967 167.936C101.876 170.351 100.302 172.856 97.5831 174.688C96.6489 175.407 95.7514 176.171 94.8939 176.979C94.9885 176.187 95.108 175.341 95.2624 174.434C95.9195 173.269 96.6689 172.158 97.5034 171.113C99.7295 168.349 103.116 166.73 105.521 164.096C106.258 163.289 107.229 160.391 104.978 161.108C103.982 161.427 102.797 162.946 101.99 163.638C99.7743 165.63 97.5084 167.751 96.0642 170.371C96.124 170.112 96.1887 169.873 96.2485 169.594C97.8021 167.103 99.5523 164.74 101.482 162.527C104.68 158.892 107.956 156.511 108.011 154.519C108.066 152.527 103.943 155.864 100.442 160.426C98.8535 162.518 97.6218 164.859 96.7963 167.353C97.4387 164.773 98.1209 162.164 98.7883 159.664C99.2464 158.419 100.606 155.182 103.111 152.936C106.273 150.112 108.833 147.782 109.286 144.968C109.739 142.154 108.469 143.046 105.666 147.199ZM87.9817 179.23C87.5086 178.588 87.0155 177.891 86.4877 177.119C86.1732 175.809 85.9634 174.477 85.8602 173.135C85.7964 171.992 85.8498 170.845 86.0195 169.713C86.8695 170.766 87.772 171.775 88.7237 172.736C88.701 173.732 88.5792 174.723 88.3601 175.694C88.1736 176.866 88.0473 178.046 87.9817 179.23ZM90.6908 182.512C90.0484 181.83 89.3462 181.018 88.5842 180.022C88.6034 179.232 88.712 178.447 88.9079 177.681C89.212 176.475 89.6496 175.305 90.2127 174.195C91.393 175.316 92.2595 176.058 92.2595 176.058L94.2515 177.806C94.0971 179.544 94.0075 181.177 93.9527 182.502L90.6908 182.512ZM94.2764 177.502L93.385 176.72C92.887 176.272 91.9906 174.539 91.0145 172.542C91.4308 171.702 91.7999 170.839 92.12 169.957C93.1758 171.915 94.112 173.443 94.6648 174.255C94.5055 175.336 94.381 176.436 94.2764 177.502Z" fill="white"/>
<path d="M56.5479 53.4155V103.913H94.8939V53.4155H56.5479ZM92.2346 100.392H59.2271V56.9413H92.2346V100.392Z" fill="#407BFF"/>
<path opacity="0.5" d="M56.5479 53.4155V103.913H94.8939V53.4155H56.5479ZM92.2346 100.392H59.2271V56.9413H92.2346V100.392Z" fill="white"/>
<path d="M190.734 78.0515V115.342H219.06V78.0515H190.734ZM217.083 112.737H192.726V80.676H217.098L217.083 112.737Z" fill="#407BFF"/>
<path opacity="0.5" d="M190.734 78.0515V115.342H219.06V78.0515H190.734ZM217.083 112.737H192.726V80.676H217.098L217.083 112.737Z" fill="white"/>
<path d="M28.7744 203.592C30.2037 198.752 45.0092 148.434 44.9594 148.055C44.9096 147.677 46.1696 140.919 49.1177 135.287C52.0659 129.654 56.1595 123.379 56.6724 122.613C57.453 121.363 57.9746 119.969 58.2062 118.514C58.5897 116.467 62.6882 110.83 63.9681 109.296C65.2479 107.762 69.0875 99.6946 69.3465 98.4147C69.6054 97.1349 71.1343 96.109 73.1861 95.7255C75.2378 95.3421 78.0515 94.9586 78.0515 94.9586C78.5722 95.5714 78.886 96.3331 78.9479 97.1349C78.9479 98.2853 74.3364 125.81 74.0825 130.421C73.8285 135.033 74.4659 137.587 72.4191 142.328C70.3724 147.069 64.3515 150.008 61.4084 151.93C58.4652 153.852 58.6893 154.25 58.6893 154.25C58.6893 154.25 60.3526 200.33 60.3128 203.951" fill="white"/>
<mask id="mask0_436_110" style="mask-type:luminance" maskUnits="userSpaceOnUse" x="28" y="94" width="51" height="110">
<path d="M28.7744 203.592C30.2037 198.752 45.0092 148.434 44.9594 148.055C44.9096 147.677 46.1696 140.919 49.1177 135.287C52.0659 129.654 56.1595 123.379 56.6724 122.613C57.453 121.363 57.9746 119.969 58.2062 118.514C58.5897 116.467 62.6882 110.83 63.9681 109.296C65.2479 107.762 69.0875 99.6946 69.3465 98.4147C69.6054 97.1349 71.1343 96.109 73.1861 95.7255C75.2378 95.3421 78.0515 94.9586 78.0515 94.9586C78.5722 95.5714 78.886 96.3331 78.9479 97.1349C78.9479 98.2853 74.3364 125.81 74.0825 130.421C73.8285 135.033 74.4659 137.587 72.4191 142.328C70.3724 147.069 64.3515 150.008 61.4084 151.93C58.4652 153.852 58.6893 154.25 58.6893 154.25C58.6893 154.25 60.3526 200.33 60.3128 203.951" fill="white"/>
</mask>
<g mask="url(#mask0_436_110)">
<g style="mix-blend-mode:multiply" opacity="0.7">
<path d="M80.8204 125.152C80.2876 122.767 76.8364 124.092 76.8364 124.092C74.4863 126.642 71.593 128.632 68.3704 129.913C62.9764 131.953 57.7638 134.443 52.788 137.358C53.3557 136.218 53.9732 135.068 54.6406 133.872C58.0817 127.787 64.1673 119.585 67.5886 118.524C69.7001 117.877 71.8066 119.216 73.1213 120.352L73.2707 95.7006H73.1861C71.1343 96.0841 69.6005 97.11 69.3465 98.3898C69.0925 99.6697 65.248 107.732 63.9681 109.271C62.6882 110.81 58.5897 116.442 58.2062 118.489C57.9746 119.944 57.453 121.338 56.6724 122.588C56.1744 123.355 52.0609 129.624 49.1177 135.262C46.1746 140.899 44.9096 147.647 44.9594 148.03C44.9943 148.309 39.2972 168.946 35.6767 181.934C38.6647 176.058 43.3111 166.551 46.1347 159.524C47.2453 159.415 49.3966 156.407 51.1795 153.957C53.296 151.048 56.4682 150.252 62.8227 145.491C69.1772 140.73 76.3135 134.111 77.3743 131.467C78.435 128.823 81.3483 127.533 80.8204 125.152Z" fill="#407BFF"/>
</g>
</g>
<path d="M28.7744 203.592C30.2037 198.752 45.0092 148.434 44.9594 148.055C44.9096 147.677 46.1696 140.919 49.1177 135.287C52.0659 129.654 56.1595 123.379 56.6724 122.613C57.453 121.363 57.9746 119.969 58.2062 118.514C58.5897 116.467 62.6882 110.83 63.9681 109.296C65.2479 107.762 69.0875 99.6946 69.3465 98.4147C69.6054 97.1349 71.1343 96.109 73.1861 95.7255C75.2378 95.3421 78.0515 94.9586 78.0515 94.9586C78.5722 95.5714 78.886 96.3331 78.9479 97.1349C78.9479 98.2853 74.3364 125.81 74.0825 130.421C73.8285 135.033 74.4659 137.587 72.4191 142.328C70.3724 147.069 64.3515 150.008 61.4084 151.93C58.4652 153.852 58.6893 154.25 58.6893 154.25C58.6893 154.25 60.3526 200.33 60.3128 203.951" stroke="#2E353A" stroke-linecap="round" stroke-linejoin="round"/>
<path d="M72.9271 126.323C72.9271 126.323 71.5227 126.193 70.1134 123.633" stroke="#2E353A" stroke-linecap="round" stroke-linejoin="round"/>
<path d="M71.3933 109.809C71.3933 109.809 75.3773 110.576 75.8753 113.903" stroke="#2E353A" stroke-linecap="round" stroke-linejoin="round"/>
<path d="M72.6731 99.4357C73.5543 100.106 74.2837 100.956 74.8133 101.928C75.3428 102.9 75.6606 103.974 75.7458 105.078" stroke="#2E353A" stroke-linecap="round" stroke-linejoin="round"/>
<path d="M201.765 126.333L201.451 73.1612C201.45 71.6115 200.833 70.1257 199.737 69.0303C198.641 67.9349 197.154 67.3196 195.604 67.3196H79.2467C77.6975 67.3196 76.2116 67.9351 75.1161 69.0306C74.0206 70.1261 73.4052 71.6119 73.4052 73.1612L73.0865 126.333C73.0858 127.108 73.238 127.875 73.5344 128.592C73.8307 129.308 74.2653 129.959 74.8135 130.507C75.3616 131.055 76.0124 131.49 76.7287 131.786C77.4449 132.082 78.2126 132.235 78.9878 132.234H195.863C196.639 132.235 197.406 132.082 198.123 131.786C198.839 131.49 199.49 131.055 200.038 130.507C200.586 129.959 201.02 129.308 201.317 128.592C201.613 127.875 201.765 127.108 201.765 126.333Z" fill="#2E353A" stroke="#363636" stroke-width="0.868674" stroke-linecap="round" stroke-linejoin="round"/>
<path d="M195.226 129.346L194.972 70.1782H79.8792L79.6302 129.346H195.226Z" fill="white" stroke="#363636" stroke-width="0.651505" stroke-linecap="round" stroke-linejoin="round"/>
<path d="M194.972 70.1782H79.8792L79.8692 73.1313H90.9248L93.7535 77.1751H195.002L194.972 70.1782Z" fill="#407BFF" stroke="#2E353A" stroke-linecap="round" stroke-linejoin="round"/>
<g style="mix-blend-mode:multiply" opacity="0.5">
<path d="M194.972 81.9509L114.072 129.346H195.226L194.972 81.9509Z" fill="#407BFF"/>
</g>
<path d="M199.082 99.7459C199.088 99.2536 198.695 98.8494 198.202 98.843C197.71 98.8367 197.306 99.2306 197.299 99.7229C197.293 100.215 197.687 100.619 198.179 100.626C198.671 100.632 199.076 100.238 199.082 99.7459Z" fill="white"/>
<path d="M88.7436 91.7964C91.3757 91.7964 93.5095 89.6626 93.5095 87.0305C93.5095 84.3984 91.3757 82.2646 88.7436 82.2646C86.1115 82.2646 83.9777 84.3984 83.9777 87.0305C83.9777 89.6626 86.1115 91.7964 88.7436 91.7964Z" fill="#407BFF" stroke="#2E353A" stroke-linecap="round" stroke-linejoin="round"/>
<path d="M88.7436 111.393C91.3757 111.393 93.5095 109.259 93.5095 106.627C93.5095 103.995 91.3757 101.861 88.7436 101.861C86.1115 101.861 83.9777 103.995 83.9777 106.627C83.9777 109.259 86.1115 111.393 88.7436 111.393Z" fill="white" stroke="#2E353A" stroke-linecap="round" stroke-linejoin="round"/>
<path d="M121.313 91.7964C123.945 91.7964 126.079 89.6626 126.079 87.0305C126.079 84.3984 123.945 82.2646 121.313 82.2646C118.681 82.2646 116.547 84.3984 116.547 87.0305C116.547 89.6626 118.681 91.7964 121.313 91.7964Z" fill="white" stroke="#2E353A" stroke-linecap="round" stroke-linejoin="round"/>
<path d="M121.313 111.393C123.945 111.393 126.079 109.259 126.079 106.627C126.079 103.995 123.945 101.861 121.313 101.861C118.681 101.861 116.547 103.995 116.547 106.627C116.547 109.259 118.681 111.393 121.313 111.393Z" fill="#407BFF" stroke="#2E353A" stroke-linecap="round" stroke-linejoin="round"/>
<path d="M153.887 91.7964C156.519 91.7964 158.653 89.6626 158.653 87.0305C158.653 84.3984 156.519 82.2646 153.887 82.2646C151.255 82.2646 149.121 84.3984 149.121 87.0305C149.121 89.6626 151.255 91.7964 153.887 91.7964Z" fill="#407BFF" stroke="#2E353A" stroke-linecap="round" stroke-linejoin="round"/>
<path d="M153.887 111.393C156.519 111.393 158.653 109.259 158.653 106.627C158.653 103.995 156.519 101.861 153.887 101.861C151.255 101.861 149.121 103.995 149.121 106.627C149.121 109.259 151.255 111.393 153.887 111.393Z" fill="#407BFF" stroke="#2E353A" stroke-width="2" stroke-linecap="round" stroke-linejoin="round"/>
<path d="M186.456 91.7964C189.088 91.7964 191.222 89.6626 191.222 87.0305C191.222 84.3984 189.088 82.2646 186.456 82.2646C183.824 82.2646 181.69 84.3984 181.69 87.0305C181.69 89.6626 183.824 91.7964 186.456 91.7964Z" fill="#407BFF" stroke="#2E353A" stroke-linecap="round" stroke-linejoin="round"/>
<path d="M186.456 111.393C189.088 111.393 191.222 109.259 191.222 106.627C191.222 103.995 189.088 101.861 186.456 101.861C183.824 101.861 181.69 103.995 181.69 106.627C181.69 109.259 183.824 111.393 186.456 111.393Z" fill="white" stroke="#2E353A" stroke-linecap="round" stroke-linejoin="round"/>
<path d="M97.0253 93.4846H112.638" stroke="#2E353A" stroke-linecap="round" stroke-linejoin="round"/>
<path d="M97.0253 97.0851H112.638" stroke="#2E353A" stroke-linecap="round" stroke-linejoin="round"/>
<path d="M97.0253 100.691H112.638" stroke="#2E353A" stroke-linecap="round" stroke-linejoin="round"/>
<path d="M129.151 93.4846H144.764" stroke="#2E353A" stroke-linecap="round" stroke-linejoin="round"/>
<path d="M129.151 97.0851H144.764" stroke="#2E353A" stroke-linecap="round" stroke-linejoin="round"/>
<path d="M129.151 100.691H144.764" stroke="#2E353A" stroke-linecap="round" stroke-linejoin="round"/>
<path d="M163.379 93.4846H178.991" stroke="#2E353A" stroke-linecap="round" stroke-linejoin="round"/>
<path d="M163.379 97.0851H178.991" stroke="#2E353A" stroke-linecap="round" stroke-linejoin="round"/>
<path d="M163.379 100.691H178.991" stroke="#2E353A" stroke-linecap="round" stroke-linejoin="round"/>
<path d="M97.0253 113.873H112.638" stroke="#2E353A" stroke-linecap="round" stroke-linejoin="round"/>
<path d="M97.0253 117.478H112.638" stroke="#2E353A" stroke-linecap="round" stroke-linejoin="round"/>
<path d="M97.0253 121.079H112.638" stroke="#2E353A" stroke-linecap="round" stroke-linejoin="round"/>
<path d="M129.151 113.873H144.764" stroke="#2E353A" stroke-linecap="round" stroke-linejoin="round"/>
<path d="M129.151 117.478H144.764" stroke="#2E353A" stroke-linecap="round" stroke-linejoin="round"/>
<path d="M129.151 121.079H144.764" stroke="#2E353A" stroke-linecap="round" stroke-linejoin="round"/>
<path d="M163.379 113.873H178.991" stroke="#2E353A" stroke-linecap="round" stroke-linejoin="round"/>
<path d="M163.379 117.478H178.991" stroke="#2E353A" stroke-linecap="round" stroke-linejoin="round"/>
<path d="M163.379 121.079H178.991" stroke="#2E353A" stroke-linecap="round" stroke-linejoin="round"/>
<path d="M144.485 106.871H147.443" stroke="#2E353A" stroke-linecap="round" stroke-linejoin="round"/>
<path d="M154.201 100.96V97.2644" stroke="#2E353A" stroke-linecap="round" stroke-linejoin="round"/>
<path d="M147.652 101.383L149.554 102.862" stroke="#2E353A" stroke-linecap="round" stroke-linejoin="round"/>
<path d="M149.978 110.671L147.652 111.94" stroke="#2E353A" stroke-linecap="round" stroke-linejoin="round"/>
<path d="M164.126 106.871H161.168" stroke="#2E353A" stroke-linecap="round" stroke-linejoin="round"/>
<path d="M160.954 101.383L159.056 102.862" stroke="#2E353A" stroke-linecap="round" stroke-linejoin="round"/>
<path d="M151.9 116.661L154.39 125.556" stroke="#2E353A" stroke-linecap="round" stroke-linejoin="round"/>
<path d="M149.405 115.591L150.829 120.217" stroke="#2E353A" stroke-linecap="round" stroke-linejoin="round"/>
<path d="M210.774 200.296C210.774 200.296 198.946 178.483 197.263 174.659C195.58 170.834 194.31 164.808 193.896 163.155C193.298 161.215 193.243 159.148 193.737 157.179C194.359 154.39 193.991 146.432 194.27 144.604C194.549 142.777 193.418 137.06 192.776 133.857C192.133 130.655 190.679 128.379 188.717 128.13C188.146 128.062 187.568 128.136 187.033 128.345C186.497 128.555 186.022 128.893 185.649 129.331C185.649 129.331 184.833 122.513 184.041 121.099C183.249 119.684 180.669 119.889 179.29 120.227C177.91 120.566 177.248 124.978 177.248 124.978C177.248 124.978 176.053 120.74 176.018 118.848C175.983 116.955 173.682 115.327 171.89 115.775C170.097 116.223 169.131 117.045 168.643 120.969C168.155 124.893 169.076 130.964 169.076 130.964L168.145 131.343C168.145 131.343 164.788 119.59 163.722 116.487C162.657 113.385 161.631 109.834 160.914 107.523C160.197 105.212 159.131 101.547 156.198 102.11C153.264 102.673 153.987 109.082 153.987 109.082C153.987 109.082 158.573 128.723 158.812 130.272C159.051 131.821 159.808 137.199 159.659 138.992C159.509 140.785 159.514 145.466 159.514 145.466L155.147 140.257C154.609 138.847 153.93 137.496 153.12 136.223C151.626 133.813 148.304 131.567 146.148 132.239C143.992 132.911 145.695 135.132 146.586 136.372C147.478 137.612 148.2 141.093 148.2 142.846C148.2 144.599 149.694 145.834 151.497 149.051C153.299 152.269 162.348 163.384 163.718 165.386C164.732 166.731 166.007 167.857 167.467 168.698C167.467 168.698 172.696 173.254 175.137 178.941C177.577 184.629 185.062 200.958 185.062 200.958" fill="white"/>
<mask id="mask1_436_110" style="mask-type:luminance" maskUnits="userSpaceOnUse" x="145" y="102" width="66" height="99">
<path d="M210.774 200.296C210.774 200.296 198.946 178.483 197.263 174.659C195.58 170.834 194.31 164.808 193.896 163.155C193.298 161.215 193.243 159.148 193.737 157.179C194.359 154.39 193.991 146.432 194.27 144.604C194.549 142.777 193.418 137.06 192.776 133.857C192.133 130.655 190.679 128.379 188.717 128.13C188.146 128.062 187.568 128.136 187.033 128.345C186.497 128.555 186.022 128.893 185.649 129.331C185.649 129.331 184.833 122.513 184.041 121.099C183.249 119.684 180.669 119.889 179.29 120.227C177.91 120.566 177.248 124.978 177.248 124.978C177.248 124.978 176.053 120.74 176.018 118.848C175.983 116.955 173.682 115.327 171.89 115.775C170.097 116.223 169.131 117.045 168.643 120.969C168.155 124.893 169.076 130.964 169.076 130.964L168.145 131.343C168.145 131.343 164.788 119.59 163.722 116.487C162.657 113.385 161.631 109.834 160.914 107.523C160.197 105.212 159.131 101.547 156.198 102.11C153.264 102.673 153.987 109.082 153.987 109.082C153.987 109.082 158.573 128.723 158.812 130.272C159.051 131.821 159.808 137.199 159.659 138.992C159.509 140.785 159.514 145.466 159.514 145.466L155.147 140.257C154.609 138.847 153.93 137.496 153.12 136.223C151.626 133.813 148.304 131.567 146.148 132.239C143.992 132.911 145.695 135.132 146.586 136.372C147.478 137.612 148.2 141.093 148.2 142.846C148.2 144.599 149.694 145.834 151.497 149.051C153.299 152.269 162.348 163.384 163.718 165.386C164.732 166.731 166.007 167.857 167.467 168.698C167.467 168.698 172.696 173.254 175.137 178.941C177.577 184.629 185.062 200.958 185.062 200.958" fill="white"/>
</mask>
<g mask="url(#mask1_436_110)">
<g style="mix-blend-mode:multiply" opacity="0.7">
<path d="M192.865 195.106C195.311 192.865 195.918 174.763 195.609 168.025C195.609 167.97 195.609 167.906 195.609 167.846C194.738 165.595 194.061 163.767 193.906 163.155C193.308 161.215 193.253 159.148 193.747 157.179C194.369 154.39 194.001 146.432 194.28 144.604C194.444 143.524 194.11 141.063 193.682 138.573C191.909 138.419 188.662 140.018 188.662 140.018C188.662 140.018 186.103 136.293 184.434 136.163C182.766 136.034 179.873 138.653 179.873 138.653C179.873 138.653 178.214 133.066 174.808 133.638C171.402 134.211 170.445 133.638 169.101 133.698C167.756 133.758 166.666 130.486 165.321 127.274C163.976 124.062 162.049 112.05 160.909 109.56C160.909 109.56 159.121 104.55 156.805 106.218C154.49 107.887 156.666 113.34 157.751 116.612C158.837 119.884 159.42 126.099 160.301 129.062C161.297 132.363 160.799 137.269 161.711 140.864C162.622 144.46 164.963 145.625 163.673 150.326C162.383 155.027 159.564 153.528 156.422 150.765C153.279 148.001 151.726 141.671 149.948 142.299C149.332 142.454 148.737 142.683 148.175 142.981C148.215 144.704 149.669 145.969 151.472 149.116C153.274 152.264 162.348 163.384 163.718 165.386C164.732 166.731 166.007 167.857 167.467 168.698C167.467 168.698 172.696 173.254 175.137 178.941C175.575 179.962 176.272 181.471 177.129 183.264C178.125 184.061 176.013 180.276 176.531 180.903C179.982 184.952 190.425 197.352 192.865 195.106Z" fill="#407BFF"/>
</g>
</g>
<path d="M210.774 200.296C210.774 200.296 198.946 178.483 197.263 174.659C195.58 170.834 194.31 164.808 193.896 163.155C193.298 161.215 193.243 159.148 193.737 157.179C194.359 154.39 193.991 146.432 194.27 144.604C194.549 142.777 193.418 137.06 192.776 133.857C192.133 130.655 190.679 128.379 188.717 128.13C188.146 128.062 187.568 128.136 187.033 128.345C186.497 128.555 186.022 128.893 185.649 129.331C185.649 129.331 184.833 122.513 184.041 121.099C183.249 119.684 180.669 119.889 179.29 120.227C177.91 120.566 177.248 124.978 177.248 124.978C177.248 124.978 176.053 120.74 176.018 118.848C175.983 116.955 173.682 115.327 171.89 115.775C170.097 116.223 169.131 117.045 168.643 120.969C168.155 124.893 169.076 130.964 169.076 130.964L168.145 131.343C168.145 131.343 164.788 119.59 163.722 116.487C162.657 113.385 161.631 109.834 160.914 107.523C160.197 105.212 159.131 101.547 156.198 102.11C153.264 102.673 153.987 109.082 153.987 109.082C153.987 109.082 158.573 128.723 158.812 130.272C159.051 131.821 159.808 137.199 159.659 138.992C159.509 140.785 159.514 145.466 159.514 145.466L155.147 140.257C154.609 138.847 153.93 137.496 153.12 136.223C151.626 133.813 148.304 131.567 146.148 132.239C143.992 132.911 145.695 135.132 146.586 136.372C147.478 137.612 148.2 141.093 148.2 142.846C148.2 144.599 149.694 145.834 151.497 149.051C153.299 152.268 162.348 163.384 163.718 165.386C164.732 166.731 166.007 167.858 167.467 168.698C167.467 168.698 172.696 173.254 175.137 178.941C177.577 184.629 185.062 200.958 185.062 200.958" stroke="#2E353A" stroke-linecap="round" stroke-linejoin="round"/>
<path d="M154.644 103.534C154.644 103.534 155.187 106.901 155.291 107.324C155.525 108.275 159.46 107.822 159.773 107.09C160.052 106.438 159.848 105.023 159.848 105.023" stroke="#2E353A" stroke-linecap="round" stroke-linejoin="round"/>
<path d="M147.906 136.527C148.233 136.194 148.436 135.759 148.48 135.295C148.525 134.831 148.408 134.365 148.15 133.977C147.224 132.598 146.706 132.289 146.706 132.289" stroke="#2E353A" stroke-linecap="round" stroke-linejoin="round"/>
<path d="M159.196 123.041C159.196 123.041 160.954 123.629 162.607 121.462" stroke="#2E353A" stroke-width="0.75" stroke-linecap="round" stroke-linejoin="round"/>
<path d="M159.405 121.512C159.405 121.512 161.75 119.754 163.543 119.899" stroke="#2E353A" stroke-width="0.75" stroke-linecap="round" stroke-linejoin="round"/>
<path d="M156.975 112.324C156.975 112.324 158.733 110.571 160.142 110.949" stroke="#2E353A" stroke-width="0.75" stroke-linecap="round" stroke-linejoin="round"/>
<path d="M158.628 111.911C159.351 112.032 160.091 111.998 160.799 111.811" stroke="#2E353A" stroke-width="0.75" stroke-linecap="round" stroke-linejoin="round"/>
<path d="M177.243 124.993L178.169 130.476" stroke="#2E353A" stroke-linecap="round" stroke-linejoin="round"/>
<path d="M185.644 129.346L186.635 135.102" stroke="#2E353A" stroke-linecap="round" stroke-linejoin="round"/>
<path d="M159.509 145.501C159.509 145.501 159.26 149.808 159.674 151.477" stroke="#2E353A" stroke-linecap="round" stroke-linejoin="round"/>
<path d="M178.174 133.394C178.174 133.394 179.195 136.098 178.946 137.876" stroke="#2E353A" stroke-width="0.75" stroke-linecap="round" stroke-linejoin="round"/>
<path d="M186.526 136.188C186.526 136.188 187.218 137.582 186.805 140.122" stroke="#2E353A" stroke-width="0.75" stroke-linecap="round" stroke-linejoin="round"/>
<path d="M68.1911 128.369C68.1911 128.369 72.4191 127.603 74.7199 124.789C77.0207 121.975 82.5286 118.385 84.3214 117.747C86.1142 117.11 88.9328 116.975 89.9587 117.872C90.9846 118.768 91.4925 120.944 89.9587 123.509C88.4249 126.074 82.17 128.484 80.8652 129.649C79.5605 130.815 78.435 131.572 76.8812 135.028C75.3689 138.376 73.1917 141.382 70.4819 143.862C68.0467 146.039 63.5697 149.754 61.2639 151.158" fill="white"/>
<mask id="mask2_436_110" style="mask-type:luminance" maskUnits="userSpaceOnUse" x="61" y="117" width="30" height="35">
<path d="M68.1911 128.369C68.1911 128.369 72.4191 127.603 74.7199 124.789C77.0207 121.975 82.5286 118.385 84.3214 117.747C86.1142 117.11 88.9328 116.975 89.9587 117.872C90.9846 118.768 91.4925 120.944 89.9587 123.509C88.4249 126.074 82.17 128.484 80.8652 129.649C79.5605 130.815 78.435 131.572 76.8812 135.028C75.3689 138.376 73.1917 141.382 70.4819 143.862C68.0467 146.039 63.5697 149.754 61.2639 151.158" fill="white"/>
</mask>
<g mask="url(#mask2_436_110)">
<g style="mix-blend-mode:multiply" opacity="0.7">
<path d="M80.8204 125.152C80.2876 122.767 76.8364 124.092 76.8364 124.092C74.4863 126.642 71.593 128.632 68.3704 129.913C62.9764 131.953 57.7638 134.443 52.788 137.358C53.3557 136.218 53.9732 135.068 54.6406 133.872C58.0817 127.787 64.1673 119.585 67.5886 118.524C69.7001 117.877 71.8066 119.216 73.1213 120.352L73.2707 95.7007H73.1861C71.1343 96.0841 69.6005 97.11 69.3465 98.3899C69.0925 99.6697 65.248 107.732 63.9681 109.271C62.6882 110.81 58.5897 116.442 58.2062 118.489C57.9746 119.944 57.453 121.338 56.6724 122.588C56.1744 123.355 52.0609 129.624 49.1177 135.262C46.1746 140.899 44.9096 147.647 44.9594 148.031C44.9943 148.309 39.2972 168.947 35.6767 181.934C38.6647 176.058 43.3111 166.551 46.1347 159.524C47.2453 159.415 49.3966 156.407 51.1795 153.957C53.296 151.048 56.4682 150.252 62.8227 145.491C69.1772 140.73 76.3135 134.111 77.3743 131.467C78.435 128.823 81.3483 127.533 80.8204 125.152Z" fill="#407BFF"/>
</g>
</g>
<path d="M68.1911 128.369C68.1911 128.369 72.4191 127.603 74.7199 124.789C77.0207 121.975 82.5286 118.385 84.3214 117.747C86.1142 117.11 88.9328 116.975 89.9587 117.872C90.9846 118.768 91.4925 120.944 89.9587 123.509C88.4249 126.074 82.17 128.484 80.8652 129.649C79.5605 130.815 78.435 131.572 76.8812 135.028C75.3689 138.376 73.1917 141.382 70.4819 143.862C68.0467 146.039 63.5697 149.754 61.2639 151.158" stroke="#2E353A" stroke-linecap="round" stroke-linejoin="round"/>
<path d="M90.0832 122.508C89.3163 123.658 87.394 123.788 87.394 123.788C87.394 123.788 86.6271 122.125 86.1142 121.099C85.7147 120.408 85.1412 119.835 84.4508 119.435C84.4508 119.435 85.0933 117.772 86.3731 117.772" stroke="#2E353A" stroke-linecap="round" stroke-linejoin="round"/>
<path d="M39.9645 154.34C44.6892 153.317 49.5287 152.923 54.3567 153.17C62.5289 153.563 64.4711 158.23 64.4711 158.23L64.0826 168.732C64.0826 168.732 59.8048 165.62 50.8558 164.455C41.9067 163.289 37.2404 164.066 37.2404 164.066L39.9645 154.34Z" fill="white" stroke="#2E353A" stroke-linecap="round" stroke-linejoin="round"/>
<path d="M64.5508 203.348L66.6573 169.639C53.042 161.467 37.2404 164.066 37.2404 164.066L23.7944 203.348H64.5508Z" fill="#2E353A" stroke="#2E353A" stroke-linecap="round" stroke-linejoin="round"/>
<path d="M170.814 177.452C170.814 177.452 172.144 172.144 179.444 167.826C186.745 163.508 197.706 165.172 197.706 165.172L199.364 169.484C199.364 169.484 190.4 169.156 183.762 172.806C177.124 176.456 173.802 180.774 173.802 180.774L170.814 177.452Z" fill="white" stroke="#2E353A" stroke-linecap="round" stroke-linejoin="round"/>
<path d="M220.24 203.348L200.54 168.13C200.54 168.13 193.07 166.168 184.106 169.818C175.142 173.468 171.486 180.44 171.486 180.44L175.256 203.348H220.24Z" fill="#2E353A" stroke="#2E353A" stroke-linecap="round" stroke-linejoin="round"/>
<path d="M175.764 181.506C176.013 182.577 175.714 183.563 175.087 183.707C174.459 183.852 173.752 183.105 173.503 182.034C173.254 180.963 173.553 179.977 174.175 179.833C174.798 179.688 175.51 180.435 175.764 181.506Z" fill="white"/>
</svg>
